<?xml version="1.0" encoding="utf-8"?>
<!-- Generator: Adobe Illustrator 23.0.3, SVG Export Plug-In . SVG Version: 6.00 Build 0)  -->
<svg version="1.1" id="Layer_1" xmlns="http://www.w3.org/2000/svg" xmlns:xlink="http://www.w3.org/1999/xlink" x="0px" y="0px"
	 viewBox="0 0 1387.3 1593.9" style="enable-background:new 0 0 1387.3 1593.9;" xml:space="preserve">
<style type="text/css">
	.st0{fill:none;stroke:#FF0000;stroke-width:0.1;stroke-linecap:round;}
</style>
<g id="svgGroup">
	<path id="front_outsideCutPath" vector-effect="non-scaling-stroke" class="st0" d="M51.6,1593.7v-16.8h33.6v16.8l0.1,0.1h34.1
		l0.1-0.1v-16.8h33.6v16.8l0.1,0.1h34.1l0.1-0.1v-16.8H221v16.8l0.1,0.1h34.1l0.1-0.1v-16.8H289v16.8l0.1,0.1h34.1l0.1-0.1v-16.8
		H357v16.8l0.1,0.1h34.1l0.1-0.1v-16.8h33.6v16.8l0.1,0.1h34.1l0.1-0.1v-16.8h33.6v16.8l0.1,0.1H527l0.1-0.1v-16.8h33.6v16.8
		l0.1,0.1h51.3l0.1-0.1v-39.3l-0.1-0.1h-16.8v-33.6h16.8l0.1-0.1v-34.1l-0.1-0.1h-16.8v-33.6h16.8l0.1-0.1v-34.1l-0.1-0.1h-16.8
		v-33.6h16.8l0.1-0.1v-34.1l-0.1-0.1h-16.8V1317h16.8l0.1-0.1v-34.1l-0.1-0.1h-16.8v-33.6h16.8l0.1-0.1v-34.1l-0.1-0.1h-16.8v-33.6
		h16.8l0.1-0.1V1147l-0.1-0.1h-16.8v-33.6h16.8l0.1-0.1v-34.1l-0.1-0.1h-16.8v-33.6h16.8l0.1-0.1v-34.1l-0.1-0.1h-16.8V977h16.8
		l0.1-0.1v-34.1l-0.1-0.1h-16.8V909h16.8l0.1-0.1v-34.1l-0.1-0.1h-16.8V841h16.8l0.1-0.1v-39.3l-0.1-0.1H561l-0.1,0.1v16.8h-33.6
		v-16.8l-0.1-0.1h-34.1l-0.1,0.1v16.8h-33.6v-16.8l-0.1-0.1h-34.1l-0.1,0.1v16.8h-33.6v-16.8l-0.1-0.1h-34.1l-0.1,0.1v16.8h-33.6
		v-16.8l-0.1-0.1h-34.1l-0.1,0.1v16.8h-33.6v-16.8l-0.1-0.1h-34.1l-0.1,0.1v16.8h-33.6v-16.8l-0.1-0.1h-34.1l-0.1,0.1v16.8h-33.6
		v-16.8l-0.1-0.1H85.2l-0.1,0.1v16.8H51.6v-16.8l-0.1-0.1H0.1L0,801.6v39.3l0.1,0.1H17v33.6H0.1L0,874.7v34.1l0.1,0.1H17v33.6H0.1
		L0,942.7v34.1l0.1,0.1H17v33.6H0.1l-0.1,0.1v34.1l0.1,0.1H17v33.6H0.1l-0.1,0.1v34.1l0.1,0.1H17v33.6H0.1l-0.1,0.1v34.1l0.1,0.1H17
		v33.6H0.1l-0.1,0.1v34.1l0.1,0.1H17v33.6H0.1l-0.1,0.1v34.1l0.1,0.1H17v33.6H0.1l-0.1,0.1v34.1l0.1,0.1H17v33.6H0.1L0,1418v34.1
		l0.1,0.1H17v33.6H0.1l-0.1,0.1v34.1l0.1,0.1H17v33.6H0.1l-0.1,0.1v39.3l0.1,0.1h51.3L51.6,1593.7z"/>
	<path id="left_outsideCutPath" vector-effect="non-scaling-stroke" class="st0" d="M642.9,1593.7v-16.8h33.6v16.8l0.1,0.1h34.1
		l0.1-0.1v-16.8h33.6v16.8l0.1,0.1h4.2l0.1-0.1v-39h16.8l0.1-0.1v-34.1l-0.1-0.1h-16.8v-33.6h16.8l0.1-0.1v-34.1l-0.1-0.1h-16.8
		v-33.6h16.8l0.1-0.1v-34.1l-0.1-0.1h-16.8V1351h16.8l0.1-0.1v-34.1l-0.1-0.1h-16.8v-33.6h16.8l0.1-0.1v-34.1l-0.1-0.1h-16.8v-33.6
		h16.8l0.1-0.1V1181l-0.1-0.1h-16.8v-33.6h16.8l0.1-0.1v-34.1l-0.1-0.1h-16.8v-33.6h16.8l0.1-0.1v-34.1l-0.1-0.1h-16.8V1011h16.8
		l0.1-0.1v-34.1l-0.1-0.1h-16.8V943h16.8l0.1-0.1v-34.1l-0.1-0.1h-16.8V875h16.8l0.1-0.1v-34.1l-0.1-0.1h-16.8v-39l-0.1-0.1h-4.2
		l-0.1,0.1v16.8h-33.6v-16.8l-0.1-0.1h-34.1l-0.1,0.1v16.8h-33.6v-16.8l-0.1-0.1h-4.2l-0.1,0.1v39h-16.8l-0.1,0.1v34.1l0.1,0.1h16.8
		v33.6h-16.8l-0.1,0.1v34.1l0.1,0.1h16.8v33.6h-16.8l-0.1,0.1v34.1l0.1,0.1h16.8v33.6h-16.8l-0.1,0.1v34.1l0.1,0.1h16.8v33.6h-16.8
		l-0.1,0.1v34.1l0.1,0.1h16.8v33.6h-16.8l-0.1,0.1v34.1l0.1,0.1h16.8v33.6h-16.8l-0.1,0.1v34.1l0.1,0.1h16.8v33.6h-16.8l-0.1,0.1
		v34.1l0.1,0.1h16.8v33.6h-16.8l-0.1,0.1v34.1l0.1,0.1h16.8v33.6h-16.8l-0.1,0.1v34.1l0.1,0.1h16.8v33.6h-16.8l-0.1,0.1v34.1
		l0.1,0.1h16.8v39l0.1,0.1h4.2L642.9,1593.7z"/>
	<path id="top_outsideCutPath" vector-effect="non-scaling-stroke" class="st0" d="M860.4,1593.7v-16.8H894v16.8l0.1,0.1h34.1
		l0.1-0.1v-16.8h33.6v16.8l0.1,0.1h34.1l0.1-0.1v-16.8h33.6v16.8l0.1,0.1h34.1l0.1-0.1v-16.8h33.6v16.8l0.1,0.1h34.1l0.1-0.1v-16.8
		h33.6v16.8l0.1,0.1h34.1l0.1-0.1v-16.8h33.6v16.8l0.1,0.1h34.1l0.1-0.1v-16.8h33.6v16.8l0.1,0.1h34.1l0.1-0.1v-16.8h34l0.1-0.1
		v-3.9h16.8l0.1-0.1v-34.1l-0.1-0.1h-16.8V1505h16.8l0.1-0.1v-34.1l-0.1-0.1h-16.8v-3.9l-0.1-0.1h-34v-16.8l-0.1-0.1h-34.1l-0.1,0.1
		v16.8h-33.6v-16.8l-0.1-0.1h-34.1l-0.1,0.1v16.8h-33.6v-16.8l-0.1-0.1H1166l-0.1,0.1v16.8h-33.6v-16.8l-0.1-0.1H1098l-0.1,0.1v16.8
		h-33.6v-16.8l-0.1-0.1H1030l-0.1,0.1v16.8h-33.6v-16.8l-0.1-0.1h-34.1l-0.1,0.1v16.8h-33.6v-16.8l-0.1-0.1h-34.1l-0.1,0.1v16.8
		h-33.6v-16.8l-0.1-0.1h-34.1l-0.1,0.1v16.8h-34l-0.1,0.1v3.9H775l-0.1,0.1v34.1l0.1,0.1h16.8v33.6H775l-0.1,0.1v34.1l0.1,0.1h16.8
		v3.9l0.1,0.1h34v16.8l0.1,0.1h34.1L860.4,1593.7z"/>
	<path id="back_outsideCutPath" vector-effect="non-scaling-stroke" class="st0" d="M51.6,792.3v-16.8h33.6v16.8l0.1,0.1h34.1
		l0.1-0.1v-16.8h33.6v16.8l0.1,0.1h34.1l0.1-0.1v-16.8H221v16.8l0.1,0.1h34.1l0.1-0.1v-16.8H289v16.8l0.1,0.1h34.1l0.1-0.1v-16.8
		H357v16.8l0.1,0.1h34.1l0.1-0.1v-16.8h33.6v16.8l0.1,0.1h34.1l0.1-0.1v-16.8h33.6v16.8l0.1,0.1H527l0.1-0.1v-16.8h33.6v16.8
		l0.1,0.1h51.3l0.1-0.1V753l-0.1-0.1h-16.8v-33.6h16.8l0.1-0.1V685l-0.1-0.1h-16.8v-33.6h16.8l0.1-0.1V617l-0.1-0.1h-16.8v-33.6
		h16.8l0.1-0.1v-34.1l-0.1-0.1h-16.8v-33.6h16.8l0.1-0.1v-34.1l-0.1-0.1h-16.8v-33.6h16.8l0.1-0.1v-34.1l-0.1-0.1h-16.8v-33.6h16.8
		l0.1-0.1v-34.1l-0.1-0.1h-16.8v-33.6h16.8l0.1-0.1v-34.1l-0.1-0.1h-16.8v-33.6h16.8l0.1-0.1v-34.1l-0.1-0.1h-16.8v-33.6h16.8
		l0.1-0.1v-34.1l-0.1-0.1h-16.8V108h16.8l0.1-0.1V73.3l-0.1-0.1h-16.8V39.6h16.8l0.1-0.1V0.1l0.1-0.1H561l-0.1,0.1V17h-33.6V0.1
		L527.2,0h-34.1L493,0.1V17h-33.6V0.1L459.2,0h-34.1L425,0.1V17h-33.6V0.1L391.2,0h-34.1L357,0.1V17h-33.6V0.1L323.3,0h-34.1
		L289,0.1V17h-33.6V0.1L255.3,0h-34.1L221,0.1V17h-33.6V0.1L187.3,0h-34.1l-0.1,0.1V17h-33.6V0.1L119.4,0H85.2l-0.1,0.1V17H51.6V0.1
		L51.4,0H0.1L0,0.1v39.3l0.1,0.1H17v33.6H0.1L0,73.3v34.1l0.1,0.1H17v33.6H0.1L0,141.3v34.1l0.1,0.1H17v33.6H0.1L0,209.2v34.1
		l0.1,0.1H17V277H0.1L0,277.2v34.1l0.1,0.1H17V345H0.1L0,345.2v34.1l0.1,0.1H17V413H0.1L0,413.1v34.1l0.1,0.1H17V481H0.1L0,481.1
		v34.1l0.1,0.1H17v33.6H0.1L0,549.1v34.1l0.1,0.1H17v33.6H0.1L0,617v34.1l0.1,0.1H17v33.6H0.1L0,685v34.1l0.1,0.1H17v33.6H0.1L0,753
		v39.3l0.1,0.1h51.3L51.6,792.3z"/>
	<path id="right_outsideCutPath" vector-effect="non-scaling-stroke" class="st0" d="M642.9,792.3v-16.8h33.6v16.8l0.1,0.1h34.1
		l0.1-0.1v-16.8h33.6v16.8l0.1,0.1h4.2l0.1-0.1v-39h16.8l0.1-0.1V719l-0.1-0.1h-16.8v-33.6h16.8l0.1-0.1V651l-0.1-0.1h-16.8v-33.6
		h16.8l0.1-0.1v-34.1l-0.1-0.1h-16.8v-33.6h16.8l0.1-0.1v-34.1l-0.1-0.1h-16.8v-33.6h16.8l0.1-0.1v-34.1l-0.1-0.1h-16.8v-33.6h16.8
		l0.1-0.1v-34.1l-0.1-0.1h-16.8v-33.6h16.8l0.1-0.1v-34.1l-0.1-0.1h-16.8v-33.6h16.8l0.1-0.1v-34.1l-0.1-0.1h-16.8v-33.6h16.8
		l0.1-0.1v-34.1l-0.1-0.1h-16.8V142h16.8l0.1-0.1v-34.1l-0.1-0.1h-16.8V73.6h16.8l0.1-0.1V39.3l-0.1-0.1h-16.8v-39L748.7,0h-4.2
		l-0.1,0.1V17h-33.6V0.1L710.7,0h-34.1l-0.1,0.1V17h-33.6V0.1L642.7,0h-4.2l-0.1,0.1v39h-16.8l-0.1,0.1v34.1l0.1,0.1h16.8V107h-16.8
		l-0.1,0.1v34.1l0.1,0.1h16.8v33.6h-16.8l-0.1,0.1v34.1l0.1,0.1h16.8v33.6h-16.8l-0.1,0.1V277l0.1,0.1h16.8V311h-16.8l-0.1,0.1v34.1
		l0.1,0.1h16.8V379h-16.8l-0.1,0.1v34.1l0.1,0.1h16.8V447h-16.8l-0.1,0.1v34.1l0.1,0.1h16.8v33.6h-16.8l-0.1,0.1v34.1l0.1,0.1h16.8
		v33.6h-16.8l-0.1,0.1V617l0.1,0.1h16.8v33.6h-16.8l-0.1,0.1v34.1l0.1,0.1h16.8v33.6h-16.8l-0.1,0.1v34.1l0.1,0.1h16.8v39l0.1,0.1
		h4.2L642.9,792.3z"/>
	<path id="bottom_outsideCutPath" vector-effect="non-scaling-stroke" class="st0" d="M860.4,1440.3v-16.8H894v16.8l0.1,0.1h34.1
		l0.1-0.1v-16.8h33.6v16.8l0.1,0.1h34.1l0.1-0.1v-16.8h33.6v16.8l0.1,0.1h34.1l0.1-0.1v-16.8h33.6v16.8l0.1,0.1h34.1l0.1-0.1v-16.8
		h33.6v16.8l0.1,0.1h34.1l0.1-0.1v-16.8h33.6v16.8l0.1,0.1h34.1l0.1-0.1v-16.8h33.6v16.8l0.1,0.1h34.1l0.1-0.1v-16.8h34l0.1-0.1
		v-3.9h16.8l0.1-0.1v-34.1l-0.1-0.1h-16.8v-33.6h16.8l0.1-0.1v-34.1l-0.1-0.1h-16.8v-3.9l-0.1-0.1h-34v-16.8l-0.1-0.1h-34.1
		l-0.1,0.1v16.8h-33.6v-16.8l-0.1-0.1h-34.1l-0.1,0.1v16.8h-33.6v-16.8l-0.1-0.1H1166l-0.1,0.1v16.8h-33.6v-16.8l-0.1-0.1H1098
		l-0.1,0.1v16.8h-33.6v-16.8l-0.1-0.1H1030l-0.1,0.1v16.8h-33.6v-16.8l-0.1-0.1h-34.1l-0.1,0.1v16.8h-33.6v-16.8l-0.1-0.1h-34.1
		l-0.1,0.1v16.8h-33.6v-16.8l-0.1-0.1h-34.1l-0.1,0.1v16.8h-34l-0.1,0.1v3.9H775l-0.1,0.1v34.1l0.1,0.1h16.8v33.6H775l-0.1,0.1v34.1
		l0.1,0.1h16.8v3.9l0.1,0.1h34v16.8l0.1,0.1h34.1L860.4,1440.3z"/>
</g>
<rect x="46.3" y="881.8" class="st0" width="106.4" height="54.3"/>
</svg>
