G04 #@! TF.GenerationSoftware,KiCad,Pcbnew,(5.1.2)-1*
G04 #@! TF.CreationDate,2019-05-14T12:57:47-07:00*
G04 #@! TF.ProjectId,1_32 Male,315f3332-204d-4616-9c65-2e6b69636164,rev?*
G04 #@! TF.SameCoordinates,Original*
G04 #@! TF.FileFunction,Profile,NP*
%FSLAX46Y46*%
G04 Gerber Fmt 4.6, Leading zero omitted, Abs format (unit mm)*
G04 Created by KiCad (PCBNEW (5.1.2)-1) date 2019-05-14 12:57:47*
%MOMM*%
%LPD*%
G04 APERTURE LIST*
%ADD10C,0.507740*%
G04 APERTURE END LIST*
D10*
X134619999Y-125984001D02*
X147320000Y-125984001D01*
X115570000Y-106680000D02*
X115570000Y-121793001D01*
X117220999Y-106045001D02*
G75*
G02X116586000Y-106680000I-634999J0D01*
G01*
X134493000Y-75184001D02*
X134493000Y-76073001D01*
X164846001Y-94107000D02*
G75*
G02X165481000Y-93472001I634999J0D01*
G01*
X147066000Y-76708001D02*
X135127999Y-76708001D01*
X163830000Y-75184001D02*
G75*
G02X166370000Y-77724001I0J-2540000D01*
G01*
X164846000Y-106045001D02*
X164846000Y-94107000D01*
X165481000Y-106680001D02*
G75*
G02X164846000Y-106045001I0J635000D01*
G01*
X147700999Y-76073001D02*
G75*
G02X147066000Y-76708000I-634999J0D01*
G01*
X118110000Y-124333001D02*
G75*
G02X115570000Y-121793001I0J2540000D01*
G01*
X147700999Y-75184001D02*
X147700999Y-76073001D01*
X135127999Y-76708000D02*
G75*
G02X134493000Y-76073001I0J634999D01*
G01*
X118110000Y-124333001D02*
X133985000Y-124333001D01*
X166370000Y-106680001D02*
X165481000Y-106680001D01*
X147320000Y-125984001D02*
X147320000Y-124968001D01*
X118110000Y-75184001D02*
X134493000Y-75184001D01*
X134619999Y-125984001D02*
X134619999Y-124968001D01*
X115570000Y-77724001D02*
X115570000Y-92710001D01*
X147700999Y-75184001D02*
X163830000Y-75184001D01*
X166370000Y-77724001D02*
X166370000Y-93472001D01*
X166370000Y-106680001D02*
X166370000Y-121793001D01*
X147954999Y-124333001D02*
X163830000Y-124333001D01*
X115570000Y-92710001D02*
X116586000Y-92710001D01*
X117221000Y-93345000D02*
X117221000Y-106045001D01*
X147319999Y-124968001D02*
G75*
G02X147954999Y-124333001I635000J0D01*
G01*
X133984999Y-124333001D02*
G75*
G02X134619999Y-124968001I0J-635000D01*
G01*
X116586000Y-92710001D02*
G75*
G02X117220999Y-93345000I0J-634999D01*
G01*
X166370000Y-121793001D02*
G75*
G02X163830000Y-124333001I-2540000J0D01*
G01*
X115570000Y-77724001D02*
G75*
G02X118110000Y-75184001I2540000J0D01*
G01*
X166370000Y-93472001D02*
X165481000Y-93472001D01*
X115570000Y-106680000D02*
X116586000Y-106680000D01*
M02*
