<svg width="16.268in" height="22.637in" viewBox="0 0 16.268 22.637" xmlns="http://www.w3.org/2000/svg" version="1.1" preserveAspectRatio="xMidYMid meet"><g id="svgGroup" stroke-linecap="round" fill-rule="evenodd" font-size="9pt" stroke="#000" stroke-width="0.25mm" fill="none" style="stroke:#000;stroke-width:0.25mm;fill:none"><path d="M 1.021 22.635 L 1.021 22.401 L 1.959 22.401 L 1.959 22.635 L 1.961 22.637 L 2.907 22.637 L 2.909 22.635 L 2.909 22.401 L 3.847 22.401 L 3.847 22.635 L 3.849 22.637 L 4.795 22.637 L 4.797 22.635 L 4.797 22.401 L 5.735 22.401 L 5.735 22.635 L 5.737 22.637 L 6.754 22.637 L 6.756 22.635 L 6.756 21.256 L 6.754 21.254 L 6.52 21.254 L 6.52 20.316 L 6.754 20.316 L 6.756 20.314 L 6.756 19.368 L 6.754 19.366 L 6.52 19.366 L 6.52 18.428 L 6.754 18.428 L 6.756 18.426 L 6.756 17.48 L 6.754 17.478 L 6.52 17.478 L 6.52 16.54 L 6.754 16.54 L 6.756 16.538 L 6.756 15.592 L 6.754 15.59 L 6.52 15.59 L 6.52 14.652 L 6.754 14.652 L 6.756 14.65 L 6.756 13.704 L 6.754 13.702 L 6.52 13.702 L 6.52 12.764 L 6.754 12.764 L 6.756 12.762 L 6.756 11.383 L 6.754 11.381 L 5.737 11.381 L 5.735 11.383 L 5.735 11.617 L 4.797 11.617 L 4.797 11.383 L 4.795 11.381 L 3.849 11.381 L 3.847 11.383 L 3.847 11.617 L 2.909 11.617 L 2.909 11.383 L 2.907 11.381 L 1.961 11.381 L 1.959 11.383 L 1.959 11.617 L 1.021 11.617 L 1.021 11.383 L 1.019 11.381 L 0.002 11.381 L 0 11.383 L 0 12.762 L 0.002 12.764 L 0.236 12.764 L 0.236 13.702 L 0.002 13.702 L 0 13.704 L 0 14.65 L 0.002 14.652 L 0.236 14.652 L 0.236 15.59 L 0.002 15.59 L 0 15.592 L 0 16.538 L 0.002 16.54 L 0.236 16.54 L 0.236 17.478 L 0.002 17.478 L 0 17.48 L 0 18.426 L 0.002 18.428 L 0.236 18.428 L 0.236 19.366 L 0.002 19.366 L 0 19.368 L 0 20.314 L 0.002 20.316 L 0.236 20.316 L 0.236 21.254 L 0.002 21.254 L 0 21.256 L 0 22.635 L 0.002 22.637 L 1.019 22.637 L 1.021 22.635 Z" id="front_outsideCutPath" stroke="#FF0000" stroke-width="0.1" style="stroke:#FF0000;stroke-width:0.1" vector-effect="non-scaling-stroke"/><path d="M 7.665 22.635 L 7.665 22.401 L 8.603 22.401 L 8.603 22.635 L 8.605 22.637 L 9.149 22.637 L 9.151 22.635 L 9.151 21.26 L 9.385 21.26 L 9.387 21.258 L 9.387 20.312 L 9.385 20.31 L 9.151 20.31 L 9.151 19.372 L 9.385 19.372 L 9.387 19.37 L 9.387 18.424 L 9.385 18.422 L 9.151 18.422 L 9.151 17.484 L 9.385 17.484 L 9.387 17.482 L 9.387 16.536 L 9.385 16.534 L 9.151 16.534 L 9.151 15.596 L 9.385 15.596 L 9.387 15.594 L 9.387 14.648 L 9.385 14.646 L 9.151 14.646 L 9.151 13.708 L 9.385 13.708 L 9.387 13.706 L 9.387 12.76 L 9.385 12.758 L 9.151 12.758 L 9.151 11.383 L 9.149 11.381 L 8.605 11.381 L 8.603 11.383 L 8.603 11.617 L 7.665 11.617 L 7.665 11.383 L 7.663 11.381 L 7.119 11.381 L 7.117 11.383 L 7.117 12.758 L 6.883 12.758 L 6.881 12.76 L 6.881 13.706 L 6.883 13.708 L 7.117 13.708 L 7.117 14.646 L 6.883 14.646 L 6.881 14.648 L 6.881 15.594 L 6.883 15.596 L 7.117 15.596 L 7.117 16.534 L 6.883 16.534 L 6.881 16.536 L 6.881 17.482 L 6.883 17.484 L 7.117 17.484 L 7.117 18.422 L 6.883 18.422 L 6.881 18.424 L 6.881 19.37 L 6.883 19.372 L 7.117 19.372 L 7.117 20.31 L 6.883 20.31 L 6.881 20.312 L 6.881 21.258 L 6.883 21.26 L 7.117 21.26 L 7.117 22.635 L 7.119 22.637 L 7.663 22.637 L 7.665 22.635 Z" id="left_outsideCutPath" stroke="#FF0000" stroke-width="0.1" style="stroke:#FF0000;stroke-width:0.1" vector-effect="non-scaling-stroke"/><path d="M 11.477 22.635 L 11.477 22.401 L 12.415 22.401 L 12.415 22.635 L 12.417 22.637 L 13.363 22.637 L 13.365 22.635 L 13.365 22.401 L 14.303 22.401 L 14.303 22.635 L 14.305 22.637 L 15.251 22.637 L 15.253 22.635 L 15.253 22.401 L 16.03 22.401 L 16.032 22.399 L 16.032 21.859 L 16.266 21.859 L 16.268 21.857 L 16.268 20.911 L 16.266 20.909 L 16.032 20.909 L 16.032 20.369 L 16.03 20.367 L 15.253 20.367 L 15.253 20.133 L 15.251 20.131 L 14.305 20.131 L 14.303 20.133 L 14.303 20.367 L 13.365 20.367 L 13.365 20.133 L 13.363 20.131 L 12.417 20.131 L 12.415 20.133 L 12.415 20.367 L 11.477 20.367 L 11.477 20.133 L 11.475 20.131 L 10.529 20.131 L 10.527 20.133 L 10.527 20.367 L 9.75 20.367 L 9.748 20.369 L 9.748 20.909 L 9.514 20.909 L 9.512 20.911 L 9.512 21.857 L 9.514 21.859 L 9.748 21.859 L 9.748 22.399 L 9.75 22.401 L 10.527 22.401 L 10.527 22.635 L 10.529 22.637 L 11.475 22.637 L 11.477 22.635 Z" id="top_outsideCutPath" stroke="#FF0000" stroke-width="0.1" style="stroke:#FF0000;stroke-width:0.1" vector-effect="non-scaling-stroke"/><path d="M 1.021 11.254 L 1.021 11.02 L 1.959 11.02 L 1.959 11.254 L 1.961 11.256 L 2.907 11.256 L 2.909 11.254 L 2.909 11.02 L 3.847 11.02 L 3.847 11.254 L 3.849 11.256 L 4.795 11.256 L 4.797 11.254 L 4.797 11.02 L 5.735 11.02 L 5.735 11.254 L 5.737 11.256 L 6.754 11.256 L 6.756 11.254 L 6.756 9.875 L 6.754 9.873 L 6.52 9.873 L 6.52 8.935 L 6.754 8.935 L 6.756 8.933 L 6.756 7.987 L 6.754 7.985 L 6.52 7.985 L 6.52 7.047 L 6.754 7.047 L 6.756 7.045 L 6.756 6.099 L 6.754 6.097 L 6.52 6.097 L 6.52 5.159 L 6.754 5.159 L 6.756 5.157 L 6.756 4.211 L 6.754 4.209 L 6.52 4.209 L 6.52 3.271 L 6.754 3.271 L 6.756 3.269 L 6.756 2.323 L 6.754 2.321 L 6.52 2.321 L 6.52 1.383 L 6.754 1.383 L 6.756 1.381 L 6.756 0.002 L 6.754 0 L 5.737 0 L 5.735 0.002 L 5.735 0.236 L 4.797 0.236 L 4.797 0.002 L 4.795 0 L 3.849 0 L 3.847 0.002 L 3.847 0.236 L 2.909 0.236 L 2.909 0.002 L 2.907 0 L 1.961 0 L 1.959 0.002 L 1.959 0.236 L 1.021 0.236 L 1.021 0.002 L 1.019 0 L 0.002 0 L 0 0.002 L 0 1.381 L 0.002 1.383 L 0.236 1.383 L 0.236 2.321 L 0.002 2.321 L 0 2.323 L 0 3.269 L 0.002 3.271 L 0.236 3.271 L 0.236 4.209 L 0.002 4.209 L 0 4.211 L 0 5.157 L 0.002 5.159 L 0.236 5.159 L 0.236 6.097 L 0.002 6.097 L 0 6.099 L 0 7.045 L 0.002 7.047 L 0.236 7.047 L 0.236 7.985 L 0.002 7.985 L 0 7.987 L 0 8.933 L 0.002 8.935 L 0.236 8.935 L 0.236 9.873 L 0.002 9.873 L 0 9.875 L 0 11.254 L 0.002 11.256 L 1.019 11.256 L 1.021 11.254 Z" id="back_outsideCutPath" stroke="#FF0000" stroke-width="0.1" style="stroke:#FF0000;stroke-width:0.1" vector-effect="non-scaling-stroke"/><path d="M 7.665 11.254 L 7.665 11.02 L 8.603 11.02 L 8.603 11.254 L 8.605 11.256 L 9.149 11.256 L 9.151 11.254 L 9.151 9.879 L 9.385 9.879 L 9.387 9.877 L 9.387 8.931 L 9.385 8.929 L 9.151 8.929 L 9.151 7.991 L 9.385 7.991 L 9.387 7.989 L 9.387 7.043 L 9.385 7.041 L 9.151 7.041 L 9.151 6.103 L 9.385 6.103 L 9.387 6.101 L 9.387 5.155 L 9.385 5.153 L 9.151 5.153 L 9.151 4.215 L 9.385 4.215 L 9.387 4.213 L 9.387 3.267 L 9.385 3.265 L 9.151 3.265 L 9.151 2.327 L 9.385 2.327 L 9.387 2.325 L 9.387 1.379 L 9.385 1.377 L 9.151 1.377 L 9.151 0.002 L 9.149 0 L 8.605 0 L 8.603 0.002 L 8.603 0.236 L 7.665 0.236 L 7.665 0.002 L 7.663 0 L 7.119 0 L 7.117 0.002 L 7.117 1.377 L 6.883 1.377 L 6.881 1.379 L 6.881 2.325 L 6.883 2.327 L 7.117 2.327 L 7.117 3.265 L 6.883 3.265 L 6.881 3.267 L 6.881 4.213 L 6.883 4.215 L 7.117 4.215 L 7.117 5.153 L 6.883 5.153 L 6.881 5.155 L 6.881 6.101 L 6.883 6.103 L 7.117 6.103 L 7.117 7.041 L 6.883 7.041 L 6.881 7.043 L 6.881 7.989 L 6.883 7.991 L 7.117 7.991 L 7.117 8.929 L 6.883 8.929 L 6.881 8.931 L 6.881 9.877 L 6.883 9.879 L 7.117 9.879 L 7.117 11.254 L 7.119 11.256 L 7.663 11.256 L 7.665 11.254 Z" id="right_outsideCutPath" stroke="#FF0000" stroke-width="0.1" style="stroke:#FF0000;stroke-width:0.1" vector-effect="non-scaling-stroke"/><path d="M 11.477 20.004 L 11.477 19.77 L 12.415 19.77 L 12.415 20.004 L 12.417 20.006 L 13.363 20.006 L 13.365 20.004 L 13.365 19.77 L 14.303 19.77 L 14.303 20.004 L 14.305 20.006 L 15.251 20.006 L 15.253 20.004 L 15.253 19.77 L 16.03 19.77 L 16.032 19.768 L 16.032 19.228 L 16.266 19.228 L 16.268 19.226 L 16.268 18.28 L 16.266 18.278 L 16.032 18.278 L 16.032 17.738 L 16.03 17.736 L 15.253 17.736 L 15.253 17.502 L 15.251 17.5 L 14.305 17.5 L 14.303 17.502 L 14.303 17.736 L 13.365 17.736 L 13.365 17.502 L 13.363 17.5 L 12.417 17.5 L 12.415 17.502 L 12.415 17.736 L 11.477 17.736 L 11.477 17.502 L 11.475 17.5 L 10.529 17.5 L 10.527 17.502 L 10.527 17.736 L 9.75 17.736 L 9.748 17.738 L 9.748 18.278 L 9.514 18.278 L 9.512 18.28 L 9.512 19.226 L 9.514 19.228 L 9.748 19.228 L 9.748 19.768 L 9.75 19.77 L 10.527 19.77 L 10.527 20.004 L 10.529 20.006 L 11.475 20.006 L 11.477 20.004 Z" id="bottom_outsideCutPath" stroke="#FF0000" stroke-width="0.1" style="stroke:#FF0000;stroke-width:0.1" vector-effect="non-scaling-stroke"/></g></svg>