<svg width="16.296in" height="22.637in" viewBox="0 0 16.296 22.637" xmlns="http://www.w3.org/2000/svg" version="1.1" preserveAspectRatio="xMidYMid meet"><g id="svgGroup" stroke-linecap="round" fill-rule="evenodd" font-size="9pt" stroke="#000" stroke-width="0.25mm" fill="none" style="stroke:#000;stroke-width:0.25mm;fill:none"><path d="M 1.131 22.635 L 1.131 22.401 L 1.875 22.401 L 1.875 22.635 L 1.877 22.637 L 2.629 22.637 L 2.631 22.635 L 2.631 22.401 L 3.375 22.401 L 3.375 22.635 L 3.377 22.637 L 4.129 22.637 L 4.131 22.635 L 4.131 22.401 L 4.875 22.401 L 4.875 22.635 L 4.877 22.637 L 5.629 22.637 L 5.631 22.635 L 5.631 22.401 L 6.375 22.401 L 6.375 22.635 L 6.377 22.637 L 7.504 22.637 L 7.506 22.635 L 7.506 21.883 L 7.504 21.881 L 7.27 21.881 L 7.27 21.137 L 7.504 21.137 L 7.506 21.135 L 7.506 20.383 L 7.504 20.381 L 7.27 20.381 L 7.27 19.637 L 7.504 19.637 L 7.506 19.635 L 7.506 18.883 L 7.504 18.881 L 7.27 18.881 L 7.27 18.137 L 7.504 18.137 L 7.506 18.135 L 7.506 17.383 L 7.504 17.381 L 7.27 17.381 L 7.27 16.637 L 7.504 16.637 L 7.506 16.635 L 7.506 15.883 L 7.504 15.881 L 7.27 15.881 L 7.27 15.137 L 7.504 15.137 L 7.506 15.135 L 7.506 14.383 L 7.504 14.381 L 7.27 14.381 L 7.27 13.637 L 7.504 13.637 L 7.506 13.635 L 7.506 12.883 L 7.504 12.881 L 7.27 12.881 L 7.27 12.137 L 7.504 12.137 L 7.506 12.135 L 7.506 11.383 L 7.504 11.381 L 6.377 11.381 L 6.375 11.383 L 6.375 11.617 L 5.631 11.617 L 5.631 11.383 L 5.629 11.381 L 4.877 11.381 L 4.875 11.383 L 4.875 11.617 L 4.131 11.617 L 4.131 11.383 L 4.129 11.381 L 3.377 11.381 L 3.375 11.383 L 3.375 11.617 L 2.631 11.617 L 2.631 11.383 L 2.629 11.381 L 1.877 11.381 L 1.875 11.383 L 1.875 11.617 L 1.131 11.617 L 1.131 11.383 L 1.129 11.381 L 0.002 11.381 L 0 11.383 L 0 12.135 L 0.002 12.137 L 0.236 12.137 L 0.236 12.881 L 0.002 12.881 L 0 12.883 L 0 13.635 L 0.002 13.637 L 0.236 13.637 L 0.236 14.381 L 0.002 14.381 L 0 14.383 L 0 15.135 L 0.002 15.137 L 0.236 15.137 L 0.236 15.881 L 0.002 15.881 L 0 15.883 L 0 16.635 L 0.002 16.637 L 0.236 16.637 L 0.236 17.381 L 0.002 17.381 L 0 17.383 L 0 18.135 L 0.002 18.137 L 0.236 18.137 L 0.236 18.881 L 0.002 18.881 L 0 18.883 L 0 19.635 L 0.002 19.637 L 0.236 19.637 L 0.236 20.381 L 0.002 20.381 L 0 20.383 L 0 21.135 L 0.002 21.137 L 0.236 21.137 L 0.236 21.881 L 0.002 21.881 L 0 21.883 L 0 22.635 L 0.002 22.637 L 1.129 22.637 L 1.131 22.635 Z" id="front_outsideCutPath" stroke="#FF0000" stroke-width="0.1" style="stroke:#FF0000;stroke-width:0.1" vector-effect="non-scaling-stroke"/><path d="M 8.901 22.635 L 8.901 21.887 L 9.135 21.887 L 9.137 21.885 L 9.137 21.133 L 9.135 21.131 L 8.901 21.131 L 8.901 20.387 L 9.135 20.387 L 9.137 20.385 L 9.137 19.633 L 9.135 19.631 L 8.901 19.631 L 8.901 18.887 L 9.135 18.887 L 9.137 18.885 L 9.137 18.133 L 9.135 18.131 L 8.901 18.131 L 8.901 17.387 L 9.135 17.387 L 9.137 17.385 L 9.137 16.633 L 9.135 16.631 L 8.901 16.631 L 8.901 15.887 L 9.135 15.887 L 9.137 15.885 L 9.137 15.133 L 9.135 15.131 L 8.901 15.131 L 8.901 14.387 L 9.135 14.387 L 9.137 14.385 L 9.137 13.633 L 9.135 13.631 L 8.901 13.631 L 8.901 12.887 L 9.135 12.887 L 9.137 12.885 L 9.137 12.133 L 9.135 12.131 L 8.901 12.131 L 8.901 11.383 L 8.899 11.381 L 7.869 11.381 L 7.867 11.383 L 7.867 12.131 L 7.633 12.131 L 7.631 12.133 L 7.631 12.885 L 7.633 12.887 L 7.867 12.887 L 7.867 13.631 L 7.633 13.631 L 7.631 13.633 L 7.631 14.385 L 7.633 14.387 L 7.867 14.387 L 7.867 15.131 L 7.633 15.131 L 7.631 15.133 L 7.631 15.885 L 7.633 15.887 L 7.867 15.887 L 7.867 16.631 L 7.633 16.631 L 7.631 16.633 L 7.631 17.385 L 7.633 17.387 L 7.867 17.387 L 7.867 18.131 L 7.633 18.131 L 7.631 18.133 L 7.631 18.885 L 7.633 18.887 L 7.867 18.887 L 7.867 19.631 L 7.633 19.631 L 7.631 19.633 L 7.631 20.385 L 7.633 20.387 L 7.867 20.387 L 7.867 21.131 L 7.633 21.131 L 7.631 21.133 L 7.631 21.885 L 7.633 21.887 L 7.867 21.887 L 7.867 22.635 L 7.869 22.637 L 8.899 22.637 L 8.901 22.635 Z" id="left_outsideCutPath" stroke="#FF0000" stroke-width="0.1" style="stroke:#FF0000;stroke-width:0.1" vector-effect="non-scaling-stroke"/><path d="M 10.907 22.635 L 10.907 22.401 L 11.651 22.401 L 11.651 22.635 L 11.653 22.637 L 12.405 22.637 L 12.407 22.635 L 12.407 22.401 L 13.151 22.401 L 13.151 22.635 L 13.153 22.637 L 13.905 22.637 L 13.907 22.635 L 13.907 22.401 L 14.651 22.401 L 14.651 22.635 L 14.653 22.637 L 15.405 22.637 L 15.407 22.635 L 15.407 22.401 L 16.294 22.401 L 16.296 22.399 L 16.296 21.369 L 16.294 21.367 L 15.407 21.367 L 15.407 21.133 L 15.405 21.131 L 14.653 21.131 L 14.651 21.133 L 14.651 21.367 L 13.907 21.367 L 13.907 21.133 L 13.905 21.131 L 13.153 21.131 L 13.151 21.133 L 13.151 21.367 L 12.407 21.367 L 12.407 21.133 L 12.405 21.131 L 11.653 21.131 L 11.651 21.133 L 11.651 21.367 L 10.907 21.367 L 10.907 21.133 L 10.905 21.131 L 10.153 21.131 L 10.151 21.133 L 10.151 21.367 L 9.264 21.367 L 9.262 21.369 L 9.262 22.399 L 9.264 22.401 L 10.151 22.401 L 10.151 22.635 L 10.153 22.637 L 10.905 22.637 L 10.907 22.635 Z" id="top_outsideCutPath" stroke="#FF0000" stroke-width="0.1" style="stroke:#FF0000;stroke-width:0.1" vector-effect="non-scaling-stroke"/><path d="M 1.131 11.254 L 1.131 11.02 L 1.875 11.02 L 1.875 11.254 L 1.877 11.256 L 2.629 11.256 L 2.631 11.254 L 2.631 11.02 L 3.375 11.02 L 3.375 11.254 L 3.377 11.256 L 4.129 11.256 L 4.131 11.254 L 4.131 11.02 L 4.875 11.02 L 4.875 11.254 L 4.877 11.256 L 5.629 11.256 L 5.631 11.254 L 5.631 11.02 L 6.375 11.02 L 6.375 11.254 L 6.377 11.256 L 7.504 11.256 L 7.506 11.254 L 7.506 10.502 L 7.504 10.5 L 7.27 10.5 L 7.27 9.756 L 7.504 9.756 L 7.506 9.754 L 7.506 9.002 L 7.504 9 L 7.27 9 L 7.27 8.256 L 7.504 8.256 L 7.506 8.254 L 7.506 7.502 L 7.504 7.5 L 7.27 7.5 L 7.27 6.756 L 7.504 6.756 L 7.506 6.754 L 7.506 6.002 L 7.504 6 L 7.27 6 L 7.27 5.256 L 7.504 5.256 L 7.506 5.254 L 7.506 4.502 L 7.504 4.5 L 7.27 4.5 L 7.27 3.756 L 7.504 3.756 L 7.506 3.754 L 7.506 3.002 L 7.504 3 L 7.27 3 L 7.27 2.256 L 7.504 2.256 L 7.506 2.254 L 7.506 1.502 L 7.504 1.5 L 7.27 1.5 L 7.27 0.756 L 7.504 0.756 L 7.506 0.754 L 7.506 0.002 L 7.504 0 L 6.377 0 L 6.375 0.002 L 6.375 0.236 L 5.631 0.236 L 5.631 0.002 L 5.629 0 L 4.877 0 L 4.875 0.002 L 4.875 0.236 L 4.131 0.236 L 4.131 0.002 L 4.129 0 L 3.377 0 L 3.375 0.002 L 3.375 0.236 L 2.631 0.236 L 2.631 0.002 L 2.629 0 L 1.877 0 L 1.875 0.002 L 1.875 0.236 L 1.131 0.236 L 1.131 0.002 L 1.129 0 L 0.002 0 L 0 0.002 L 0 0.754 L 0.002 0.756 L 0.236 0.756 L 0.236 1.5 L 0.002 1.5 L 0 1.502 L 0 2.254 L 0.002 2.256 L 0.236 2.256 L 0.236 3 L 0.002 3 L 0 3.002 L 0 3.754 L 0.002 3.756 L 0.236 3.756 L 0.236 4.5 L 0.002 4.5 L 0 4.502 L 0 5.254 L 0.002 5.256 L 0.236 5.256 L 0.236 6 L 0.002 6 L 0 6.002 L 0 6.754 L 0.002 6.756 L 0.236 6.756 L 0.236 7.5 L 0.002 7.5 L 0 7.502 L 0 8.254 L 0.002 8.256 L 0.236 8.256 L 0.236 9 L 0.002 9 L 0 9.002 L 0 9.754 L 0.002 9.756 L 0.236 9.756 L 0.236 10.5 L 0.002 10.5 L 0 10.502 L 0 11.254 L 0.002 11.256 L 1.129 11.256 L 1.131 11.254 Z" id="back_outsideCutPath" stroke="#FF0000" stroke-width="0.1" style="stroke:#FF0000;stroke-width:0.1" vector-effect="non-scaling-stroke"/><path d="M 8.901 11.254 L 8.901 10.506 L 9.135 10.506 L 9.137 10.504 L 9.137 9.752 L 9.135 9.75 L 8.901 9.75 L 8.901 9.006 L 9.135 9.006 L 9.137 9.004 L 9.137 8.252 L 9.135 8.25 L 8.901 8.25 L 8.901 7.506 L 9.135 7.506 L 9.137 7.504 L 9.137 6.752 L 9.135 6.75 L 8.901 6.75 L 8.901 6.006 L 9.135 6.006 L 9.137 6.004 L 9.137 5.252 L 9.135 5.25 L 8.901 5.25 L 8.901 4.506 L 9.135 4.506 L 9.137 4.504 L 9.137 3.752 L 9.135 3.75 L 8.901 3.75 L 8.901 3.006 L 9.135 3.006 L 9.137 3.004 L 9.137 2.252 L 9.135 2.25 L 8.901 2.25 L 8.901 1.506 L 9.135 1.506 L 9.137 1.504 L 9.137 0.752 L 9.135 0.75 L 8.901 0.75 L 8.901 0.002 L 8.899 0 L 7.869 0 L 7.867 0.002 L 7.867 0.75 L 7.633 0.75 L 7.631 0.752 L 7.631 1.504 L 7.633 1.506 L 7.867 1.506 L 7.867 2.25 L 7.633 2.25 L 7.631 2.252 L 7.631 3.004 L 7.633 3.006 L 7.867 3.006 L 7.867 3.75 L 7.633 3.75 L 7.631 3.752 L 7.631 4.504 L 7.633 4.506 L 7.867 4.506 L 7.867 5.25 L 7.633 5.25 L 7.631 5.252 L 7.631 6.004 L 7.633 6.006 L 7.867 6.006 L 7.867 6.75 L 7.633 6.75 L 7.631 6.752 L 7.631 7.504 L 7.633 7.506 L 7.867 7.506 L 7.867 8.25 L 7.633 8.25 L 7.631 8.252 L 7.631 9.004 L 7.633 9.006 L 7.867 9.006 L 7.867 9.75 L 7.633 9.75 L 7.631 9.752 L 7.631 10.504 L 7.633 10.506 L 7.867 10.506 L 7.867 11.254 L 7.869 11.256 L 8.899 11.256 L 8.901 11.254 Z" id="right_outsideCutPath" stroke="#FF0000" stroke-width="0.1" style="stroke:#FF0000;stroke-width:0.1" vector-effect="non-scaling-stroke"/><path d="M 10.907 21.004 L 10.907 20.77 L 11.651 20.77 L 11.651 21.004 L 11.653 21.006 L 12.405 21.006 L 12.407 21.004 L 12.407 20.77 L 13.151 20.77 L 13.151 21.004 L 13.153 21.006 L 13.905 21.006 L 13.907 21.004 L 13.907 20.77 L 14.651 20.77 L 14.651 21.004 L 14.653 21.006 L 15.405 21.006 L 15.407 21.004 L 15.407 20.77 L 16.294 20.77 L 16.296 20.768 L 16.296 19.738 L 16.294 19.736 L 15.407 19.736 L 15.407 19.502 L 15.405 19.5 L 14.653 19.5 L 14.651 19.502 L 14.651 19.736 L 13.907 19.736 L 13.907 19.502 L 13.905 19.5 L 13.153 19.5 L 13.151 19.502 L 13.151 19.736 L 12.407 19.736 L 12.407 19.502 L 12.405 19.5 L 11.653 19.5 L 11.651 19.502 L 11.651 19.736 L 10.907 19.736 L 10.907 19.502 L 10.905 19.5 L 10.153 19.5 L 10.151 19.502 L 10.151 19.736 L 9.264 19.736 L 9.262 19.738 L 9.262 20.768 L 9.264 20.77 L 10.151 20.77 L 10.151 21.004 L 10.153 21.006 L 10.905 21.006 L 10.907 21.004 Z" id="bottom_outsideCutPath" stroke="#FF0000" stroke-width="0.1" style="stroke:#FF0000;stroke-width:0.1" vector-effect="non-scaling-stroke"/></g></svg>