<svg width="16.768in" height="22.637in" viewBox="0 0 16.768 22.637" xmlns="http://www.w3.org/2000/svg" version="1.1" preserveAspectRatio="xMidYMid meet"><g id="svgGroup" stroke-linecap="round" fill-rule="evenodd" font-size="9pt" stroke="#000" stroke-width="0.25mm" fill="none" style="stroke:#000;stroke-width:0.25mm;fill:none"><path d="M 1.146 22.635 L 1.146 22.401 L 2.084 22.401 L 2.084 22.635 L 2.086 22.637 L 3.032 22.637 L 3.034 22.635 L 3.034 22.401 L 3.972 22.401 L 3.972 22.635 L 3.974 22.637 L 4.92 22.637 L 4.922 22.635 L 4.922 22.401 L 5.86 22.401 L 5.86 22.635 L 5.862 22.637 L 7.004 22.637 L 7.006 22.635 L 7.006 21.256 L 7.004 21.254 L 6.77 21.254 L 6.77 20.316 L 7.004 20.316 L 7.006 20.314 L 7.006 19.368 L 7.004 19.366 L 6.77 19.366 L 6.77 18.428 L 7.004 18.428 L 7.006 18.426 L 7.006 17.48 L 7.004 17.478 L 6.77 17.478 L 6.77 16.54 L 7.004 16.54 L 7.006 16.538 L 7.006 15.592 L 7.004 15.59 L 6.77 15.59 L 6.77 14.652 L 7.004 14.652 L 7.006 14.65 L 7.006 13.704 L 7.004 13.702 L 6.77 13.702 L 6.77 12.764 L 7.004 12.764 L 7.006 12.762 L 7.006 11.383 L 7.004 11.381 L 5.862 11.381 L 5.86 11.383 L 5.86 11.617 L 4.922 11.617 L 4.922 11.383 L 4.92 11.381 L 3.974 11.381 L 3.972 11.383 L 3.972 11.617 L 3.034 11.617 L 3.034 11.383 L 3.032 11.381 L 2.086 11.381 L 2.084 11.383 L 2.084 11.617 L 1.146 11.617 L 1.146 11.383 L 1.144 11.381 L 0.002 11.381 L 0 11.383 L 0 12.762 L 0.002 12.764 L 0.236 12.764 L 0.236 13.702 L 0.002 13.702 L 0 13.704 L 0 14.65 L 0.002 14.652 L 0.236 14.652 L 0.236 15.59 L 0.002 15.59 L 0 15.592 L 0 16.538 L 0.002 16.54 L 0.236 16.54 L 0.236 17.478 L 0.002 17.478 L 0 17.48 L 0 18.426 L 0.002 18.428 L 0.236 18.428 L 0.236 19.366 L 0.002 19.366 L 0 19.368 L 0 20.314 L 0.002 20.316 L 0.236 20.316 L 0.236 21.254 L 0.002 21.254 L 0 21.256 L 0 22.635 L 0.002 22.637 L 1.144 22.637 L 1.146 22.635 Z" id="front_outsideCutPath" stroke="#FF0000" stroke-width="0.1" style="stroke:#FF0000;stroke-width:0.1" vector-effect="non-scaling-stroke"/><path d="M 7.915 22.635 L 7.915 22.401 L 8.853 22.401 L 8.853 22.635 L 8.855 22.637 L 9.399 22.637 L 9.401 22.635 L 9.401 21.26 L 9.635 21.26 L 9.637 21.258 L 9.637 20.312 L 9.635 20.31 L 9.401 20.31 L 9.401 19.372 L 9.635 19.372 L 9.637 19.37 L 9.637 18.424 L 9.635 18.422 L 9.401 18.422 L 9.401 17.484 L 9.635 17.484 L 9.637 17.482 L 9.637 16.536 L 9.635 16.534 L 9.401 16.534 L 9.401 15.596 L 9.635 15.596 L 9.637 15.594 L 9.637 14.648 L 9.635 14.646 L 9.401 14.646 L 9.401 13.708 L 9.635 13.708 L 9.637 13.706 L 9.637 12.76 L 9.635 12.758 L 9.401 12.758 L 9.401 11.383 L 9.399 11.381 L 8.855 11.381 L 8.853 11.383 L 8.853 11.617 L 7.915 11.617 L 7.915 11.383 L 7.913 11.381 L 7.369 11.381 L 7.367 11.383 L 7.367 12.758 L 7.133 12.758 L 7.131 12.76 L 7.131 13.706 L 7.133 13.708 L 7.367 13.708 L 7.367 14.646 L 7.133 14.646 L 7.131 14.648 L 7.131 15.594 L 7.133 15.596 L 7.367 15.596 L 7.367 16.534 L 7.133 16.534 L 7.131 16.536 L 7.131 17.482 L 7.133 17.484 L 7.367 17.484 L 7.367 18.422 L 7.133 18.422 L 7.131 18.424 L 7.131 19.37 L 7.133 19.372 L 7.367 19.372 L 7.367 20.31 L 7.133 20.31 L 7.131 20.312 L 7.131 21.258 L 7.133 21.26 L 7.367 21.26 L 7.367 22.635 L 7.369 22.637 L 7.913 22.637 L 7.915 22.635 Z" id="left_outsideCutPath" stroke="#FF0000" stroke-width="0.1" style="stroke:#FF0000;stroke-width:0.1" vector-effect="non-scaling-stroke"/><path d="M 11.852 22.635 L 11.852 22.401 L 12.79 22.401 L 12.79 22.635 L 12.792 22.637 L 13.738 22.637 L 13.74 22.635 L 13.74 22.401 L 14.678 22.401 L 14.678 22.635 L 14.68 22.637 L 15.626 22.637 L 15.628 22.635 L 15.628 22.401 L 16.53 22.401 L 16.532 22.399 L 16.532 21.859 L 16.766 21.859 L 16.768 21.857 L 16.768 20.911 L 16.766 20.909 L 16.532 20.909 L 16.532 20.369 L 16.53 20.367 L 15.628 20.367 L 15.628 20.133 L 15.626 20.131 L 14.68 20.131 L 14.678 20.133 L 14.678 20.367 L 13.74 20.367 L 13.74 20.133 L 13.738 20.131 L 12.792 20.131 L 12.79 20.133 L 12.79 20.367 L 11.852 20.367 L 11.852 20.133 L 11.85 20.131 L 10.904 20.131 L 10.902 20.133 L 10.902 20.367 L 10 20.367 L 9.998 20.369 L 9.998 20.909 L 9.764 20.909 L 9.762 20.911 L 9.762 21.857 L 9.764 21.859 L 9.998 21.859 L 9.998 22.399 L 10 22.401 L 10.902 22.401 L 10.902 22.635 L 10.904 22.637 L 11.85 22.637 L 11.852 22.635 Z" id="top_outsideCutPath" stroke="#FF0000" stroke-width="0.1" style="stroke:#FF0000;stroke-width:0.1" vector-effect="non-scaling-stroke"/><path d="M 1.146 11.254 L 1.146 11.02 L 2.084 11.02 L 2.084 11.254 L 2.086 11.256 L 3.032 11.256 L 3.034 11.254 L 3.034 11.02 L 3.972 11.02 L 3.972 11.254 L 3.974 11.256 L 4.92 11.256 L 4.922 11.254 L 4.922 11.02 L 5.86 11.02 L 5.86 11.254 L 5.862 11.256 L 7.004 11.256 L 7.006 11.254 L 7.006 9.875 L 7.004 9.873 L 6.77 9.873 L 6.77 8.935 L 7.004 8.935 L 7.006 8.933 L 7.006 7.987 L 7.004 7.985 L 6.77 7.985 L 6.77 7.047 L 7.004 7.047 L 7.006 7.045 L 7.006 6.099 L 7.004 6.097 L 6.77 6.097 L 6.77 5.159 L 7.004 5.159 L 7.006 5.157 L 7.006 4.211 L 7.004 4.209 L 6.77 4.209 L 6.77 3.271 L 7.004 3.271 L 7.006 3.269 L 7.006 2.323 L 7.004 2.321 L 6.77 2.321 L 6.77 1.383 L 7.004 1.383 L 7.006 1.381 L 7.006 0.002 L 7.004 0 L 5.862 0 L 5.86 0.002 L 5.86 0.236 L 4.922 0.236 L 4.922 0.002 L 4.92 0 L 3.974 0 L 3.972 0.002 L 3.972 0.236 L 3.034 0.236 L 3.034 0.002 L 3.032 0 L 2.086 0 L 2.084 0.002 L 2.084 0.236 L 1.146 0.236 L 1.146 0.002 L 1.144 0 L 0.002 0 L 0 0.002 L 0 1.381 L 0.002 1.383 L 0.236 1.383 L 0.236 2.321 L 0.002 2.321 L 0 2.323 L 0 3.269 L 0.002 3.271 L 0.236 3.271 L 0.236 4.209 L 0.002 4.209 L 0 4.211 L 0 5.157 L 0.002 5.159 L 0.236 5.159 L 0.236 6.097 L 0.002 6.097 L 0 6.099 L 0 7.045 L 0.002 7.047 L 0.236 7.047 L 0.236 7.985 L 0.002 7.985 L 0 7.987 L 0 8.933 L 0.002 8.935 L 0.236 8.935 L 0.236 9.873 L 0.002 9.873 L 0 9.875 L 0 11.254 L 0.002 11.256 L 1.144 11.256 L 1.146 11.254 Z" id="back_outsideCutPath" stroke="#FF0000" stroke-width="0.1" style="stroke:#FF0000;stroke-width:0.1" vector-effect="non-scaling-stroke"/><path d="M 7.915 11.254 L 7.915 11.02 L 8.853 11.02 L 8.853 11.254 L 8.855 11.256 L 9.399 11.256 L 9.401 11.254 L 9.401 9.879 L 9.635 9.879 L 9.637 9.877 L 9.637 8.931 L 9.635 8.929 L 9.401 8.929 L 9.401 7.991 L 9.635 7.991 L 9.637 7.989 L 9.637 7.043 L 9.635 7.041 L 9.401 7.041 L 9.401 6.103 L 9.635 6.103 L 9.637 6.101 L 9.637 5.155 L 9.635 5.153 L 9.401 5.153 L 9.401 4.215 L 9.635 4.215 L 9.637 4.213 L 9.637 3.267 L 9.635 3.265 L 9.401 3.265 L 9.401 2.327 L 9.635 2.327 L 9.637 2.325 L 9.637 1.379 L 9.635 1.377 L 9.401 1.377 L 9.401 0.002 L 9.399 0 L 8.855 0 L 8.853 0.002 L 8.853 0.236 L 7.915 0.236 L 7.915 0.002 L 7.913 0 L 7.369 0 L 7.367 0.002 L 7.367 1.377 L 7.133 1.377 L 7.131 1.379 L 7.131 2.325 L 7.133 2.327 L 7.367 2.327 L 7.367 3.265 L 7.133 3.265 L 7.131 3.267 L 7.131 4.213 L 7.133 4.215 L 7.367 4.215 L 7.367 5.153 L 7.133 5.153 L 7.131 5.155 L 7.131 6.101 L 7.133 6.103 L 7.367 6.103 L 7.367 7.041 L 7.133 7.041 L 7.131 7.043 L 7.131 7.989 L 7.133 7.991 L 7.367 7.991 L 7.367 8.929 L 7.133 8.929 L 7.131 8.931 L 7.131 9.877 L 7.133 9.879 L 7.367 9.879 L 7.367 11.254 L 7.369 11.256 L 7.913 11.256 L 7.915 11.254 Z" id="right_outsideCutPath" stroke="#FF0000" stroke-width="0.1" style="stroke:#FF0000;stroke-width:0.1" vector-effect="non-scaling-stroke"/><path d="M 11.852 20.004 L 11.852 19.77 L 12.79 19.77 L 12.79 20.004 L 12.792 20.006 L 13.738 20.006 L 13.74 20.004 L 13.74 19.77 L 14.678 19.77 L 14.678 20.004 L 14.68 20.006 L 15.626 20.006 L 15.628 20.004 L 15.628 19.77 L 16.53 19.77 L 16.532 19.768 L 16.532 19.228 L 16.766 19.228 L 16.768 19.226 L 16.768 18.28 L 16.766 18.278 L 16.532 18.278 L 16.532 17.738 L 16.53 17.736 L 15.628 17.736 L 15.628 17.502 L 15.626 17.5 L 14.68 17.5 L 14.678 17.502 L 14.678 17.736 L 13.74 17.736 L 13.74 17.502 L 13.738 17.5 L 12.792 17.5 L 12.79 17.502 L 12.79 17.736 L 11.852 17.736 L 11.852 17.502 L 11.85 17.5 L 10.904 17.5 L 10.902 17.502 L 10.902 17.736 L 10 17.736 L 9.998 17.738 L 9.998 18.278 L 9.764 18.278 L 9.762 18.28 L 9.762 19.226 L 9.764 19.228 L 9.998 19.228 L 9.998 19.768 L 10 19.77 L 10.902 19.77 L 10.902 20.004 L 10.904 20.006 L 11.85 20.006 L 11.852 20.004 Z" id="bottom_outsideCutPath" stroke="#FF0000" stroke-width="0.1" style="stroke:#FF0000;stroke-width:0.1" vector-effect="non-scaling-stroke"/></g></svg>