<svg width="17.268in" height="22.637in" viewBox="0 0 17.268 22.637" xmlns="http://www.w3.org/2000/svg" version="1.1" preserveAspectRatio="xMidYMid meet"><g id="svgGroup" stroke-linecap="round" fill-rule="evenodd" font-size="9pt" stroke="#000" stroke-width="0.25mm" fill="none" style="stroke:#000;stroke-width:0.25mm;fill:none"><path d="M 1.271 22.635 L 1.271 22.401 L 2.209 22.401 L 2.209 22.635 L 2.211 22.637 L 3.157 22.637 L 3.159 22.635 L 3.159 22.401 L 4.097 22.401 L 4.097 22.635 L 4.099 22.637 L 5.045 22.637 L 5.047 22.635 L 5.047 22.401 L 5.985 22.401 L 5.985 22.635 L 5.987 22.637 L 7.254 22.637 L 7.256 22.635 L 7.256 21.256 L 7.254 21.254 L 7.02 21.254 L 7.02 20.316 L 7.254 20.316 L 7.256 20.314 L 7.256 19.368 L 7.254 19.366 L 7.02 19.366 L 7.02 18.428 L 7.254 18.428 L 7.256 18.426 L 7.256 17.48 L 7.254 17.478 L 7.02 17.478 L 7.02 16.54 L 7.254 16.54 L 7.256 16.538 L 7.256 15.592 L 7.254 15.59 L 7.02 15.59 L 7.02 14.652 L 7.254 14.652 L 7.256 14.65 L 7.256 13.704 L 7.254 13.702 L 7.02 13.702 L 7.02 12.764 L 7.254 12.764 L 7.256 12.762 L 7.256 11.383 L 7.254 11.381 L 5.987 11.381 L 5.985 11.383 L 5.985 11.617 L 5.047 11.617 L 5.047 11.383 L 5.045 11.381 L 4.099 11.381 L 4.097 11.383 L 4.097 11.617 L 3.159 11.617 L 3.159 11.383 L 3.157 11.381 L 2.211 11.381 L 2.209 11.383 L 2.209 11.617 L 1.271 11.617 L 1.271 11.383 L 1.269 11.381 L 0.002 11.381 L 0 11.383 L 0 12.762 L 0.002 12.764 L 0.236 12.764 L 0.236 13.702 L 0.002 13.702 L 0 13.704 L 0 14.65 L 0.002 14.652 L 0.236 14.652 L 0.236 15.59 L 0.002 15.59 L 0 15.592 L 0 16.538 L 0.002 16.54 L 0.236 16.54 L 0.236 17.478 L 0.002 17.478 L 0 17.48 L 0 18.426 L 0.002 18.428 L 0.236 18.428 L 0.236 19.366 L 0.002 19.366 L 0 19.368 L 0 20.314 L 0.002 20.316 L 0.236 20.316 L 0.236 21.254 L 0.002 21.254 L 0 21.256 L 0 22.635 L 0.002 22.637 L 1.269 22.637 L 1.271 22.635 Z" id="front_outsideCutPath" stroke="#FF0000" stroke-width="0.1" style="stroke:#FF0000;stroke-width:0.1" vector-effect="non-scaling-stroke"/><path d="M 8.165 22.635 L 8.165 22.401 L 9.103 22.401 L 9.103 22.635 L 9.105 22.637 L 9.649 22.637 L 9.651 22.635 L 9.651 21.26 L 9.885 21.26 L 9.887 21.258 L 9.887 20.312 L 9.885 20.31 L 9.651 20.31 L 9.651 19.372 L 9.885 19.372 L 9.887 19.37 L 9.887 18.424 L 9.885 18.422 L 9.651 18.422 L 9.651 17.484 L 9.885 17.484 L 9.887 17.482 L 9.887 16.536 L 9.885 16.534 L 9.651 16.534 L 9.651 15.596 L 9.885 15.596 L 9.887 15.594 L 9.887 14.648 L 9.885 14.646 L 9.651 14.646 L 9.651 13.708 L 9.885 13.708 L 9.887 13.706 L 9.887 12.76 L 9.885 12.758 L 9.651 12.758 L 9.651 11.383 L 9.649 11.381 L 9.105 11.381 L 9.103 11.383 L 9.103 11.617 L 8.165 11.617 L 8.165 11.383 L 8.163 11.381 L 7.619 11.381 L 7.617 11.383 L 7.617 12.758 L 7.383 12.758 L 7.381 12.76 L 7.381 13.706 L 7.383 13.708 L 7.617 13.708 L 7.617 14.646 L 7.383 14.646 L 7.381 14.648 L 7.381 15.594 L 7.383 15.596 L 7.617 15.596 L 7.617 16.534 L 7.383 16.534 L 7.381 16.536 L 7.381 17.482 L 7.383 17.484 L 7.617 17.484 L 7.617 18.422 L 7.383 18.422 L 7.381 18.424 L 7.381 19.37 L 7.383 19.372 L 7.617 19.372 L 7.617 20.31 L 7.383 20.31 L 7.381 20.312 L 7.381 21.258 L 7.383 21.26 L 7.617 21.26 L 7.617 22.635 L 7.619 22.637 L 8.163 22.637 L 8.165 22.635 Z" id="left_outsideCutPath" stroke="#FF0000" stroke-width="0.1" style="stroke:#FF0000;stroke-width:0.1" vector-effect="non-scaling-stroke"/><path d="M 12.227 22.635 L 12.227 22.401 L 13.165 22.401 L 13.165 22.635 L 13.167 22.637 L 14.113 22.637 L 14.115 22.635 L 14.115 22.401 L 15.053 22.401 L 15.053 22.635 L 15.055 22.637 L 16.001 22.637 L 16.003 22.635 L 16.003 22.401 L 17.03 22.401 L 17.032 22.399 L 17.032 21.859 L 17.266 21.859 L 17.268 21.857 L 17.268 20.911 L 17.266 20.909 L 17.032 20.909 L 17.032 20.369 L 17.03 20.367 L 16.003 20.367 L 16.003 20.133 L 16.001 20.131 L 15.055 20.131 L 15.053 20.133 L 15.053 20.367 L 14.115 20.367 L 14.115 20.133 L 14.113 20.131 L 13.167 20.131 L 13.165 20.133 L 13.165 20.367 L 12.227 20.367 L 12.227 20.133 L 12.225 20.131 L 11.279 20.131 L 11.277 20.133 L 11.277 20.367 L 10.25 20.367 L 10.248 20.369 L 10.248 20.909 L 10.014 20.909 L 10.012 20.911 L 10.012 21.857 L 10.014 21.859 L 10.248 21.859 L 10.248 22.399 L 10.25 22.401 L 11.277 22.401 L 11.277 22.635 L 11.279 22.637 L 12.225 22.637 L 12.227 22.635 Z" id="top_outsideCutPath" stroke="#FF0000" stroke-width="0.1" style="stroke:#FF0000;stroke-width:0.1" vector-effect="non-scaling-stroke"/><path d="M 1.271 11.254 L 1.271 11.02 L 2.209 11.02 L 2.209 11.254 L 2.211 11.256 L 3.157 11.256 L 3.159 11.254 L 3.159 11.02 L 4.097 11.02 L 4.097 11.254 L 4.099 11.256 L 5.045 11.256 L 5.047 11.254 L 5.047 11.02 L 5.985 11.02 L 5.985 11.254 L 5.987 11.256 L 7.254 11.256 L 7.256 11.254 L 7.256 9.875 L 7.254 9.873 L 7.02 9.873 L 7.02 8.935 L 7.254 8.935 L 7.256 8.933 L 7.256 7.987 L 7.254 7.985 L 7.02 7.985 L 7.02 7.047 L 7.254 7.047 L 7.256 7.045 L 7.256 6.099 L 7.254 6.097 L 7.02 6.097 L 7.02 5.159 L 7.254 5.159 L 7.256 5.157 L 7.256 4.211 L 7.254 4.209 L 7.02 4.209 L 7.02 3.271 L 7.254 3.271 L 7.256 3.269 L 7.256 2.323 L 7.254 2.321 L 7.02 2.321 L 7.02 1.383 L 7.254 1.383 L 7.256 1.381 L 7.256 0.002 L 7.254 0 L 5.987 0 L 5.985 0.002 L 5.985 0.236 L 5.047 0.236 L 5.047 0.002 L 5.045 0 L 4.099 0 L 4.097 0.002 L 4.097 0.236 L 3.159 0.236 L 3.159 0.002 L 3.157 0 L 2.211 0 L 2.209 0.002 L 2.209 0.236 L 1.271 0.236 L 1.271 0.002 L 1.269 0 L 0.002 0 L 0 0.002 L 0 1.381 L 0.002 1.383 L 0.236 1.383 L 0.236 2.321 L 0.002 2.321 L 0 2.323 L 0 3.269 L 0.002 3.271 L 0.236 3.271 L 0.236 4.209 L 0.002 4.209 L 0 4.211 L 0 5.157 L 0.002 5.159 L 0.236 5.159 L 0.236 6.097 L 0.002 6.097 L 0 6.099 L 0 7.045 L 0.002 7.047 L 0.236 7.047 L 0.236 7.985 L 0.002 7.985 L 0 7.987 L 0 8.933 L 0.002 8.935 L 0.236 8.935 L 0.236 9.873 L 0.002 9.873 L 0 9.875 L 0 11.254 L 0.002 11.256 L 1.269 11.256 L 1.271 11.254 Z" id="back_outsideCutPath" stroke="#FF0000" stroke-width="0.1" style="stroke:#FF0000;stroke-width:0.1" vector-effect="non-scaling-stroke"/><path d="M 8.165 11.254 L 8.165 11.02 L 9.103 11.02 L 9.103 11.254 L 9.105 11.256 L 9.649 11.256 L 9.651 11.254 L 9.651 9.879 L 9.885 9.879 L 9.887 9.877 L 9.887 8.931 L 9.885 8.929 L 9.651 8.929 L 9.651 7.991 L 9.885 7.991 L 9.887 7.989 L 9.887 7.043 L 9.885 7.041 L 9.651 7.041 L 9.651 6.103 L 9.885 6.103 L 9.887 6.101 L 9.887 5.155 L 9.885 5.153 L 9.651 5.153 L 9.651 4.215 L 9.885 4.215 L 9.887 4.213 L 9.887 3.267 L 9.885 3.265 L 9.651 3.265 L 9.651 2.327 L 9.885 2.327 L 9.887 2.325 L 9.887 1.379 L 9.885 1.377 L 9.651 1.377 L 9.651 0.002 L 9.649 0 L 9.105 0 L 9.103 0.002 L 9.103 0.236 L 8.165 0.236 L 8.165 0.002 L 8.163 0 L 7.619 0 L 7.617 0.002 L 7.617 1.377 L 7.383 1.377 L 7.381 1.379 L 7.381 2.325 L 7.383 2.327 L 7.617 2.327 L 7.617 3.265 L 7.383 3.265 L 7.381 3.267 L 7.381 4.213 L 7.383 4.215 L 7.617 4.215 L 7.617 5.153 L 7.383 5.153 L 7.381 5.155 L 7.381 6.101 L 7.383 6.103 L 7.617 6.103 L 7.617 7.041 L 7.383 7.041 L 7.381 7.043 L 7.381 7.989 L 7.383 7.991 L 7.617 7.991 L 7.617 8.929 L 7.383 8.929 L 7.381 8.931 L 7.381 9.877 L 7.383 9.879 L 7.617 9.879 L 7.617 11.254 L 7.619 11.256 L 8.163 11.256 L 8.165 11.254 Z" id="right_outsideCutPath" stroke="#FF0000" stroke-width="0.1" style="stroke:#FF0000;stroke-width:0.1" vector-effect="non-scaling-stroke"/><path d="M 12.227 20.004 L 12.227 19.77 L 13.165 19.77 L 13.165 20.004 L 13.167 20.006 L 14.113 20.006 L 14.115 20.004 L 14.115 19.77 L 15.053 19.77 L 15.053 20.004 L 15.055 20.006 L 16.001 20.006 L 16.003 20.004 L 16.003 19.77 L 17.03 19.77 L 17.032 19.768 L 17.032 19.228 L 17.266 19.228 L 17.268 19.226 L 17.268 18.28 L 17.266 18.278 L 17.032 18.278 L 17.032 17.738 L 17.03 17.736 L 16.003 17.736 L 16.003 17.502 L 16.001 17.5 L 15.055 17.5 L 15.053 17.502 L 15.053 17.736 L 14.115 17.736 L 14.115 17.502 L 14.113 17.5 L 13.167 17.5 L 13.165 17.502 L 13.165 17.736 L 12.227 17.736 L 12.227 17.502 L 12.225 17.5 L 11.279 17.5 L 11.277 17.502 L 11.277 17.736 L 10.25 17.736 L 10.248 17.738 L 10.248 18.278 L 10.014 18.278 L 10.012 18.28 L 10.012 19.226 L 10.014 19.228 L 10.248 19.228 L 10.248 19.768 L 10.25 19.77 L 11.277 19.77 L 11.277 20.004 L 11.279 20.006 L 12.225 20.006 L 12.227 20.004 Z" id="bottom_outsideCutPath" stroke="#FF0000" stroke-width="0.1" style="stroke:#FF0000;stroke-width:0.1" vector-effect="non-scaling-stroke"/></g></svg>