<svg width="16.768in" height="22.937in" viewBox="0 0 16.768 22.937" xmlns="http://www.w3.org/2000/svg" version="1.1" preserveAspectRatio="xMidYMid meet"><g id="svgGroup" stroke-linecap="round" fill-rule="evenodd" font-size="9pt" stroke="#000" stroke-width="0.25mm" fill="none" style="stroke:#000;stroke-width:0.25mm;fill:none"><path d="M 0.57 22.935 L 0.57 22.701 L 1.272 22.701 L 1.272 22.935 L 1.274 22.937 L 1.984 22.937 L 1.986 22.935 L 1.986 22.701 L 2.688 22.701 L 2.688 22.935 L 2.69 22.937 L 3.4 22.937 L 3.402 22.935 L 3.402 22.701 L 4.104 22.701 L 4.104 22.935 L 4.106 22.937 L 4.816 22.937 L 4.818 22.935 L 4.818 22.701 L 5.52 22.701 L 5.52 22.935 L 5.522 22.937 L 6.232 22.937 L 6.234 22.935 L 6.234 22.701 L 6.936 22.701 L 6.936 22.935 L 6.938 22.937 L 7.504 22.937 L 7.506 22.935 L 7.506 21.835 L 7.504 21.833 L 7.27 21.833 L 7.27 21.131 L 7.504 21.131 L 7.506 21.129 L 7.506 20.419 L 7.504 20.417 L 7.27 20.417 L 7.27 19.715 L 7.504 19.715 L 7.506 19.713 L 7.506 19.003 L 7.504 19.001 L 7.27 19.001 L 7.27 18.299 L 7.504 18.299 L 7.506 18.297 L 7.506 17.587 L 7.504 17.585 L 7.27 17.585 L 7.27 16.883 L 7.504 16.883 L 7.506 16.881 L 7.506 16.171 L 7.504 16.169 L 7.27 16.169 L 7.27 15.467 L 7.504 15.467 L 7.506 15.465 L 7.506 14.755 L 7.504 14.753 L 7.27 14.753 L 7.27 14.051 L 7.504 14.051 L 7.506 14.049 L 7.506 13.339 L 7.504 13.337 L 7.27 13.337 L 7.27 12.635 L 7.504 12.635 L 7.506 12.633 L 7.506 11.533 L 7.504 11.531 L 6.938 11.531 L 6.936 11.533 L 6.936 11.767 L 6.234 11.767 L 6.234 11.533 L 6.232 11.531 L 5.522 11.531 L 5.52 11.533 L 5.52 11.767 L 4.818 11.767 L 4.818 11.533 L 4.816 11.531 L 4.106 11.531 L 4.104 11.533 L 4.104 11.767 L 3.402 11.767 L 3.402 11.533 L 3.4 11.531 L 2.69 11.531 L 2.688 11.533 L 2.688 11.767 L 1.986 11.767 L 1.986 11.533 L 1.984 11.531 L 1.274 11.531 L 1.272 11.533 L 1.272 11.767 L 0.57 11.767 L 0.57 11.533 L 0.568 11.531 L 0.002 11.531 L 0 11.533 L 0 12.633 L 0.002 12.635 L 0.236 12.635 L 0.236 13.337 L 0.002 13.337 L 0 13.339 L 0 14.049 L 0.002 14.051 L 0.236 14.051 L 0.236 14.753 L 0.002 14.753 L 0 14.755 L 0 15.465 L 0.002 15.467 L 0.236 15.467 L 0.236 16.169 L 0.002 16.169 L 0 16.171 L 0 16.881 L 0.002 16.883 L 0.236 16.883 L 0.236 17.585 L 0.002 17.585 L 0 17.587 L 0 18.297 L 0.002 18.299 L 0.236 18.299 L 0.236 19.001 L 0.002 19.001 L 0 19.003 L 0 19.713 L 0.002 19.715 L 0.236 19.715 L 0.236 20.417 L 0.002 20.417 L 0 20.419 L 0 21.129 L 0.002 21.131 L 0.236 21.131 L 0.236 21.833 L 0.002 21.833 L 0 21.835 L 0 22.935 L 0.002 22.937 L 0.568 22.937 L 0.57 22.935 Z" id="front_outsideCutPath" stroke="#FF0000" stroke-width="0.1" style="stroke:#FF0000;stroke-width:0.1" vector-effect="non-scaling-stroke"/><path d="M 8.033 22.935 L 8.033 22.701 L 8.735 22.701 L 8.735 22.935 L 8.737 22.937 L 8.899 22.937 L 8.901 22.935 L 8.901 21.839 L 9.135 21.839 L 9.137 21.837 L 9.137 21.127 L 9.135 21.125 L 8.901 21.125 L 8.901 20.423 L 9.135 20.423 L 9.137 20.421 L 9.137 19.711 L 9.135 19.709 L 8.901 19.709 L 8.901 19.007 L 9.135 19.007 L 9.137 19.005 L 9.137 18.295 L 9.135 18.293 L 8.901 18.293 L 8.901 17.591 L 9.135 17.591 L 9.137 17.589 L 9.137 16.879 L 9.135 16.877 L 8.901 16.877 L 8.901 16.175 L 9.135 16.175 L 9.137 16.173 L 9.137 15.463 L 9.135 15.461 L 8.901 15.461 L 8.901 14.759 L 9.135 14.759 L 9.137 14.757 L 9.137 14.047 L 9.135 14.045 L 8.901 14.045 L 8.901 13.343 L 9.135 13.343 L 9.137 13.341 L 9.137 12.631 L 9.135 12.629 L 8.901 12.629 L 8.901 11.533 L 8.899 11.531 L 8.737 11.531 L 8.735 11.533 L 8.735 11.767 L 8.033 11.767 L 8.033 11.533 L 8.031 11.531 L 7.869 11.531 L 7.867 11.533 L 7.867 12.629 L 7.633 12.629 L 7.631 12.631 L 7.631 13.341 L 7.633 13.343 L 7.867 13.343 L 7.867 14.045 L 7.633 14.045 L 7.631 14.047 L 7.631 14.757 L 7.633 14.759 L 7.867 14.759 L 7.867 15.461 L 7.633 15.461 L 7.631 15.463 L 7.631 16.173 L 7.633 16.175 L 7.867 16.175 L 7.867 16.877 L 7.633 16.877 L 7.631 16.879 L 7.631 17.589 L 7.633 17.591 L 7.867 17.591 L 7.867 18.293 L 7.633 18.293 L 7.631 18.295 L 7.631 19.005 L 7.633 19.007 L 7.867 19.007 L 7.867 19.709 L 7.633 19.709 L 7.631 19.711 L 7.631 20.421 L 7.633 20.423 L 7.867 20.423 L 7.867 21.125 L 7.633 21.125 L 7.631 21.127 L 7.631 21.837 L 7.633 21.839 L 7.867 21.839 L 7.867 22.935 L 7.869 22.937 L 8.031 22.937 L 8.033 22.935 Z" id="left_outsideCutPath" stroke="#FF0000" stroke-width="0.1" style="stroke:#FF0000;stroke-width:0.1" vector-effect="non-scaling-stroke"/><path d="M 10.54 22.935 L 10.54 22.701 L 11.242 22.701 L 11.242 22.935 L 11.244 22.937 L 11.954 22.937 L 11.956 22.935 L 11.956 22.701 L 12.658 22.701 L 12.658 22.935 L 12.66 22.937 L 13.37 22.937 L 13.372 22.935 L 13.372 22.701 L 14.074 22.701 L 14.074 22.935 L 14.076 22.937 L 14.786 22.937 L 14.788 22.935 L 14.788 22.701 L 15.49 22.701 L 15.49 22.935 L 15.492 22.937 L 16.202 22.937 L 16.204 22.935 L 16.204 22.701 L 16.53 22.701 L 16.532 22.699 L 16.532 22.541 L 16.766 22.541 L 16.768 22.539 L 16.768 21.829 L 16.766 21.827 L 16.532 21.827 L 16.532 21.669 L 16.53 21.667 L 16.204 21.667 L 16.204 21.433 L 16.202 21.431 L 15.492 21.431 L 15.49 21.433 L 15.49 21.667 L 14.788 21.667 L 14.788 21.433 L 14.786 21.431 L 14.076 21.431 L 14.074 21.433 L 14.074 21.667 L 13.372 21.667 L 13.372 21.433 L 13.37 21.431 L 12.66 21.431 L 12.658 21.433 L 12.658 21.667 L 11.956 21.667 L 11.956 21.433 L 11.954 21.431 L 11.244 21.431 L 11.242 21.433 L 11.242 21.667 L 10.54 21.667 L 10.54 21.433 L 10.538 21.431 L 9.828 21.431 L 9.826 21.433 L 9.826 21.667 L 9.5 21.667 L 9.498 21.669 L 9.498 21.827 L 9.264 21.827 L 9.262 21.829 L 9.262 22.539 L 9.264 22.541 L 9.498 22.541 L 9.498 22.699 L 9.5 22.701 L 9.826 22.701 L 9.826 22.935 L 9.828 22.937 L 10.538 22.937 L 10.54 22.935 Z" id="top_outsideCutPath" stroke="#FF0000" stroke-width="0.1" style="stroke:#FF0000;stroke-width:0.1" vector-effect="non-scaling-stroke"/><path d="M 0.57 11.404 L 0.57 11.17 L 1.272 11.17 L 1.272 11.404 L 1.274 11.406 L 1.984 11.406 L 1.986 11.404 L 1.986 11.17 L 2.688 11.17 L 2.688 11.404 L 2.69 11.406 L 3.4 11.406 L 3.402 11.404 L 3.402 11.17 L 4.104 11.17 L 4.104 11.404 L 4.106 11.406 L 4.816 11.406 L 4.818 11.404 L 4.818 11.17 L 5.52 11.17 L 5.52 11.404 L 5.522 11.406 L 6.232 11.406 L 6.234 11.404 L 6.234 11.17 L 6.936 11.17 L 6.936 11.404 L 6.938 11.406 L 7.504 11.406 L 7.506 11.404 L 7.506 10.304 L 7.504 10.302 L 7.27 10.302 L 7.27 9.6 L 7.504 9.6 L 7.506 9.598 L 7.506 8.888 L 7.504 8.886 L 7.27 8.886 L 7.27 8.184 L 7.504 8.184 L 7.506 8.182 L 7.506 7.472 L 7.504 7.47 L 7.27 7.47 L 7.27 6.768 L 7.504 6.768 L 7.506 6.766 L 7.506 6.056 L 7.504 6.054 L 7.27 6.054 L 7.27 5.352 L 7.504 5.352 L 7.506 5.35 L 7.506 4.64 L 7.504 4.638 L 7.27 4.638 L 7.27 3.936 L 7.504 3.936 L 7.506 3.934 L 7.506 3.224 L 7.504 3.222 L 7.27 3.222 L 7.27 2.52 L 7.504 2.52 L 7.506 2.518 L 7.506 1.808 L 7.504 1.806 L 7.27 1.806 L 7.27 1.104 L 7.504 1.104 L 7.506 1.102 L 7.506 0.002 L 7.504 0 L 6.938 0 L 6.936 0.002 L 6.936 0.236 L 6.234 0.236 L 6.234 0.002 L 6.232 0 L 5.522 0 L 5.52 0.002 L 5.52 0.236 L 4.818 0.236 L 4.818 0.002 L 4.816 0 L 4.106 0 L 4.104 0.002 L 4.104 0.236 L 3.402 0.236 L 3.402 0.002 L 3.4 0 L 2.69 0 L 2.688 0.002 L 2.688 0.236 L 1.986 0.236 L 1.986 0.002 L 1.984 0 L 1.274 0 L 1.272 0.002 L 1.272 0.236 L 0.57 0.236 L 0.57 0.002 L 0.568 0 L 0.002 0 L 0 0.002 L 0 1.102 L 0.002 1.104 L 0.236 1.104 L 0.236 1.806 L 0.002 1.806 L 0 1.808 L 0 2.518 L 0.002 2.52 L 0.236 2.52 L 0.236 3.222 L 0.002 3.222 L 0 3.224 L 0 3.934 L 0.002 3.936 L 0.236 3.936 L 0.236 4.638 L 0.002 4.638 L 0 4.64 L 0 5.35 L 0.002 5.352 L 0.236 5.352 L 0.236 6.054 L 0.002 6.054 L 0 6.056 L 0 6.766 L 0.002 6.768 L 0.236 6.768 L 0.236 7.47 L 0.002 7.47 L 0 7.472 L 0 8.182 L 0.002 8.184 L 0.236 8.184 L 0.236 8.886 L 0.002 8.886 L 0 8.888 L 0 9.598 L 0.002 9.6 L 0.236 9.6 L 0.236 10.302 L 0.002 10.302 L 0 10.304 L 0 11.404 L 0.002 11.406 L 0.568 11.406 L 0.57 11.404 Z" id="back_outsideCutPath" stroke="#FF0000" stroke-width="0.1" style="stroke:#FF0000;stroke-width:0.1" vector-effect="non-scaling-stroke"/><path d="M 8.033 11.404 L 8.033 11.17 L 8.735 11.17 L 8.735 11.404 L 8.737 11.406 L 8.899 11.406 L 8.901 11.404 L 8.901 10.308 L 9.135 10.308 L 9.137 10.306 L 9.137 9.596 L 9.135 9.594 L 8.901 9.594 L 8.901 8.892 L 9.135 8.892 L 9.137 8.89 L 9.137 8.18 L 9.135 8.178 L 8.901 8.178 L 8.901 7.476 L 9.135 7.476 L 9.137 7.474 L 9.137 6.764 L 9.135 6.762 L 8.901 6.762 L 8.901 6.06 L 9.135 6.06 L 9.137 6.058 L 9.137 5.348 L 9.135 5.346 L 8.901 5.346 L 8.901 4.644 L 9.135 4.644 L 9.137 4.642 L 9.137 3.932 L 9.135 3.93 L 8.901 3.93 L 8.901 3.228 L 9.135 3.228 L 9.137 3.226 L 9.137 2.516 L 9.135 2.514 L 8.901 2.514 L 8.901 1.812 L 9.135 1.812 L 9.137 1.81 L 9.137 1.1 L 9.135 1.098 L 8.901 1.098 L 8.901 0.002 L 8.899 0 L 8.737 0 L 8.735 0.002 L 8.735 0.236 L 8.033 0.236 L 8.033 0.002 L 8.031 0 L 7.869 0 L 7.867 0.002 L 7.867 1.098 L 7.633 1.098 L 7.631 1.1 L 7.631 1.81 L 7.633 1.812 L 7.867 1.812 L 7.867 2.514 L 7.633 2.514 L 7.631 2.516 L 7.631 3.226 L 7.633 3.228 L 7.867 3.228 L 7.867 3.93 L 7.633 3.93 L 7.631 3.932 L 7.631 4.642 L 7.633 4.644 L 7.867 4.644 L 7.867 5.346 L 7.633 5.346 L 7.631 5.348 L 7.631 6.058 L 7.633 6.06 L 7.867 6.06 L 7.867 6.762 L 7.633 6.762 L 7.631 6.764 L 7.631 7.474 L 7.633 7.476 L 7.867 7.476 L 7.867 8.178 L 7.633 8.178 L 7.631 8.18 L 7.631 8.89 L 7.633 8.892 L 7.867 8.892 L 7.867 9.594 L 7.633 9.594 L 7.631 9.596 L 7.631 10.306 L 7.633 10.308 L 7.867 10.308 L 7.867 11.404 L 7.869 11.406 L 8.031 11.406 L 8.033 11.404 Z" id="right_outsideCutPath" stroke="#FF0000" stroke-width="0.1" style="stroke:#FF0000;stroke-width:0.1" vector-effect="non-scaling-stroke"/><path d="M 10.54 21.304 L 10.54 21.07 L 11.242 21.07 L 11.242 21.304 L 11.244 21.306 L 11.954 21.306 L 11.956 21.304 L 11.956 21.07 L 12.658 21.07 L 12.658 21.304 L 12.66 21.306 L 13.37 21.306 L 13.372 21.304 L 13.372 21.07 L 14.074 21.07 L 14.074 21.304 L 14.076 21.306 L 14.786 21.306 L 14.788 21.304 L 14.788 21.07 L 15.49 21.07 L 15.49 21.304 L 15.492 21.306 L 16.202 21.306 L 16.204 21.304 L 16.204 21.07 L 16.53 21.07 L 16.532 21.068 L 16.532 20.91 L 16.766 20.91 L 16.768 20.908 L 16.768 20.198 L 16.766 20.196 L 16.532 20.196 L 16.532 20.038 L 16.53 20.036 L 16.204 20.036 L 16.204 19.802 L 16.202 19.8 L 15.492 19.8 L 15.49 19.802 L 15.49 20.036 L 14.788 20.036 L 14.788 19.802 L 14.786 19.8 L 14.076 19.8 L 14.074 19.802 L 14.074 20.036 L 13.372 20.036 L 13.372 19.802 L 13.37 19.8 L 12.66 19.8 L 12.658 19.802 L 12.658 20.036 L 11.956 20.036 L 11.956 19.802 L 11.954 19.8 L 11.244 19.8 L 11.242 19.802 L 11.242 20.036 L 10.54 20.036 L 10.54 19.802 L 10.538 19.8 L 9.828 19.8 L 9.826 19.802 L 9.826 20.036 L 9.5 20.036 L 9.498 20.038 L 9.498 20.196 L 9.264 20.196 L 9.262 20.198 L 9.262 20.908 L 9.264 20.91 L 9.498 20.91 L 9.498 21.068 L 9.5 21.07 L 9.826 21.07 L 9.826 21.304 L 9.828 21.306 L 10.538 21.306 L 10.54 21.304 Z" id="bottom_outsideCutPath" stroke="#FF0000" stroke-width="0.1" style="stroke:#FF0000;stroke-width:0.1" vector-effect="non-scaling-stroke"/></g></svg>