<?xml version="1.0" encoding="utf-8"?>
<!-- Generator: Adobe Illustrator 22.1.0, SVG Export Plug-In . SVG Version: 6.00 Build 0)  -->
<svg version="1.1" id="Layer_1" xmlns="http://www.w3.org/2000/svg" xmlns:xlink="http://www.w3.org/1999/xlink" x="0px" y="0px"
	 viewBox="0 0 1206 1650.6" style="enable-background:new 0 0 1206 1650.6;" xml:space="preserve">
<style type="text/css">
	.st0{fill:none;stroke:#FF0000;stroke-width:0.1;stroke-linecap:round;}
</style>
<g id="svgGroup">
	<path id="front_outsideCutPath" vector-effect="non-scaling-stroke" class="st0" d="M0,829.8v79.1h17v51H0v51h17v51H0v51h17v51H0
		v51h17v51H0v51h17v51H0v51h17v51H0v51h17v51H0v51v28.1h40.6v-17h51v17h51v-17h51v17h51v-17h51v17h51v-17h51v17h51v-17h51v17H540
		v-79.1h-17v-51h17v-51h-17v-51h17v-51h-17v-51h17v-51h-17v-51h17v-51h-17v-51h17v-51h-17v-51h17v-51h-17v-51h17v-51v-28.1h-40.6v17
		h-51v-17h-51v17h-51v-17h-51v17h-51v-17h-51v17h-51v-17h-51v17h-51v-17H0z"/>
	<path id="left_outsideCutPath" vector-effect="non-scaling-stroke" class="st0" d="M566,829.8v79.1h-17v51h17v51h-17v51h17v51h-17
		v51h17v51h-17v51h17v51h-17v51h17v51h-17v51h17v51h-17v51h17v51v28.1h11.5v-17h51v17H640v-79.1h17v-51h-17v-51h17v-51h-17v-51h17
		v-51h-17v-51h17v-51h-17v-51h17v-51h-17v-51h17v-51h-17v-51h17v-51h-17v-51v-28.1h-11.5v17h-51v-17H566z"/>
	<path id="top_outsideCutPath" vector-effect="non-scaling-stroke" class="st0" d="M683,1559.6v11.5h-17v51h17v11.5h23.6v17h51v-17
		h51v17h51v-17h51v17h51v-17h51v17h51v-17h51v17h51v-17h23.6v-11.5h17v-51h-17v-11.5h-23.6v-17h-51v17h-51v-17h-51v17h-51v-17h-51
		v17h-51v-17h-51v17h-51v-17h-51v17H683z"/>
	<path id="back_outsideCutPath" vector-effect="non-scaling-stroke" class="st0" d="M0,0v79.1h17v51H0v51h17v51H0v51h17v51H0v51h17
		v51H0v51h17v51H0v51h17v51H0v51h17v51H0v51v28.1h40.6v-17h51v17h51v-17h51v17h51v-17h51v17h51v-17h51v17h51v-17h51v17H540v-79.1
		h-17v-51h17v-51h-17v-51h17v-51h-17v-51h17v-51h-17v-51h17v-51h-17v-51h17v-51h-17v-51h17v-51h-17v-51h17v-51V0h-40.6v17h-51V0h-51
		v17h-51V0h-51v17h-51V0h-51v17h-51V0h-51v17h-51V0H0z"/>
	<path id="right_outsideCutPath" vector-effect="non-scaling-stroke" class="st0" d="M566,0v79.1h-17v51h17v51h-17v51h17v51h-17v51
		h17v51h-17v51h17v51h-17v51h17v51h-17v51h17v51h-17v51h17v51v28.1h11.5v-17h51v17H640v-79.1h17v-51h-17v-51h17v-51h-17v-51h17v-51
		h-17v-51h17v-51h-17v-51h17v-51h-17v-51h17v-51h-17v-51h17v-51h-17v-51V0h-11.5v17h-51V0H566z"/>
	<path id="bottom_outsideCutPath" vector-effect="non-scaling-stroke" class="st0" d="M683,1442.6v11.5h-17v51h17v11.5h23.6v17h51
		v-17h51v17h51v-17h51v17h51v-17h51v17h51v-17h51v17h51v-17h23.6v-11.5h17v-51h-17v-11.5h-23.6v-17h-51v17h-51v-17h-51v17h-51v-17
		h-51v17h-51v-17h-51v17h-51v-17h-51v17H683z"/>
</g>
</svg>
