<svg width="19.268in" height="22.137in" viewBox="0 0 19.268 22.137" xmlns="http://www.w3.org/2000/svg" version="1.1" preserveAspectRatio="xMidYMid meet"><g id="svgGroup" stroke-linecap="round" fill-rule="evenodd" font-size="9pt" stroke="#000" stroke-width="0.25mm" fill="none" style="stroke:#000;stroke-width:0.25mm;fill:none"><path d="M 1.365 22.135 L 1.365 21.901 L 2.185 21.901 L 2.185 22.135 L 2.187 22.137 L 3.015 22.137 L 3.017 22.135 L 3.017 21.901 L 3.837 21.901 L 3.837 22.135 L 3.839 22.137 L 4.667 22.137 L 4.669 22.135 L 4.669 21.901 L 5.489 21.901 L 5.489 22.135 L 5.491 22.137 L 6.319 22.137 L 6.321 22.135 L 6.321 21.901 L 7.141 21.901 L 7.141 22.135 L 7.143 22.137 L 8.504 22.137 L 8.506 22.135 L 8.506 21.176 L 8.504 21.174 L 8.27 21.174 L 8.27 20.354 L 8.504 20.354 L 8.506 20.352 L 8.506 19.524 L 8.504 19.522 L 8.27 19.522 L 8.27 18.702 L 8.504 18.702 L 8.506 18.7 L 8.506 17.872 L 8.504 17.87 L 8.27 17.87 L 8.27 17.05 L 8.504 17.05 L 8.506 17.048 L 8.506 16.22 L 8.504 16.218 L 8.27 16.218 L 8.27 15.398 L 8.504 15.398 L 8.506 15.396 L 8.506 14.568 L 8.504 14.566 L 8.27 14.566 L 8.27 13.746 L 8.504 13.746 L 8.506 13.744 L 8.506 12.916 L 8.504 12.914 L 8.27 12.914 L 8.27 12.094 L 8.504 12.094 L 8.506 12.092 L 8.506 11.133 L 8.504 11.131 L 7.143 11.131 L 7.141 11.133 L 7.141 11.367 L 6.321 11.367 L 6.321 11.133 L 6.319 11.131 L 5.491 11.131 L 5.489 11.133 L 5.489 11.367 L 4.669 11.367 L 4.669 11.133 L 4.667 11.131 L 3.839 11.131 L 3.837 11.133 L 3.837 11.367 L 3.017 11.367 L 3.017 11.133 L 3.015 11.131 L 2.187 11.131 L 2.185 11.133 L 2.185 11.367 L 1.365 11.367 L 1.365 11.133 L 1.363 11.131 L 0.002 11.131 L 0 11.133 L 0 12.092 L 0.002 12.094 L 0.236 12.094 L 0.236 12.914 L 0.002 12.914 L 0 12.916 L 0 13.744 L 0.002 13.746 L 0.236 13.746 L 0.236 14.566 L 0.002 14.566 L 0 14.568 L 0 15.396 L 0.002 15.398 L 0.236 15.398 L 0.236 16.218 L 0.002 16.218 L 0 16.22 L 0 17.048 L 0.002 17.05 L 0.236 17.05 L 0.236 17.87 L 0.002 17.87 L 0 17.872 L 0 18.7 L 0.002 18.702 L 0.236 18.702 L 0.236 19.522 L 0.002 19.522 L 0 19.524 L 0 20.352 L 0.002 20.354 L 0.236 20.354 L 0.236 21.174 L 0.002 21.174 L 0 21.176 L 0 22.135 L 0.002 22.137 L 1.363 22.137 L 1.365 22.135 Z" id="front_outsideCutPath" stroke="#FF0000" stroke-width="0.1" style="stroke:#FF0000;stroke-width:0.1" vector-effect="non-scaling-stroke"/><path d="M 9.224 22.135 L 9.224 21.901 L 10.044 21.901 L 10.044 22.135 L 10.046 22.137 L 10.399 22.137 L 10.401 22.135 L 10.401 21.18 L 10.635 21.18 L 10.637 21.178 L 10.637 20.35 L 10.635 20.348 L 10.401 20.348 L 10.401 19.528 L 10.635 19.528 L 10.637 19.526 L 10.637 18.698 L 10.635 18.696 L 10.401 18.696 L 10.401 17.876 L 10.635 17.876 L 10.637 17.874 L 10.637 17.046 L 10.635 17.044 L 10.401 17.044 L 10.401 16.224 L 10.635 16.224 L 10.637 16.222 L 10.637 15.394 L 10.635 15.392 L 10.401 15.392 L 10.401 14.572 L 10.635 14.572 L 10.637 14.57 L 10.637 13.742 L 10.635 13.74 L 10.401 13.74 L 10.401 12.92 L 10.635 12.92 L 10.637 12.918 L 10.637 12.09 L 10.635 12.088 L 10.401 12.088 L 10.401 11.133 L 10.399 11.131 L 10.046 11.131 L 10.044 11.133 L 10.044 11.367 L 9.224 11.367 L 9.224 11.133 L 9.222 11.131 L 8.869 11.131 L 8.867 11.133 L 8.867 12.088 L 8.633 12.088 L 8.631 12.09 L 8.631 12.918 L 8.633 12.92 L 8.867 12.92 L 8.867 13.74 L 8.633 13.74 L 8.631 13.742 L 8.631 14.57 L 8.633 14.572 L 8.867 14.572 L 8.867 15.392 L 8.633 15.392 L 8.631 15.394 L 8.631 16.222 L 8.633 16.224 L 8.867 16.224 L 8.867 17.044 L 8.633 17.044 L 8.631 17.046 L 8.631 17.874 L 8.633 17.876 L 8.867 17.876 L 8.867 18.696 L 8.633 18.696 L 8.631 18.698 L 8.631 19.526 L 8.633 19.528 L 8.867 19.528 L 8.867 20.348 L 8.633 20.348 L 8.631 20.35 L 8.631 21.178 L 8.633 21.18 L 8.867 21.18 L 8.867 22.135 L 8.869 22.137 L 9.222 22.137 L 9.224 22.135 Z" id="left_outsideCutPath" stroke="#FF0000" stroke-width="0.1" style="stroke:#FF0000;stroke-width:0.1" vector-effect="non-scaling-stroke"/><path d="M 12.953 22.135 L 12.953 21.901 L 13.773 21.901 L 13.773 22.135 L 13.775 22.137 L 14.603 22.137 L 14.605 22.135 L 14.605 21.901 L 15.425 21.901 L 15.425 22.135 L 15.427 22.137 L 16.255 22.137 L 16.257 22.135 L 16.257 21.901 L 17.077 21.901 L 17.077 22.135 L 17.079 22.137 L 17.907 22.137 L 17.909 22.135 L 17.909 21.901 L 19.03 21.901 L 19.032 21.899 L 19.032 21.55 L 19.266 21.55 L 19.268 21.548 L 19.268 20.72 L 19.266 20.718 L 19.032 20.718 L 19.032 20.369 L 19.03 20.367 L 17.909 20.367 L 17.909 20.133 L 17.907 20.131 L 17.079 20.131 L 17.077 20.133 L 17.077 20.367 L 16.257 20.367 L 16.257 20.133 L 16.255 20.131 L 15.427 20.131 L 15.425 20.133 L 15.425 20.367 L 14.605 20.367 L 14.605 20.133 L 14.603 20.131 L 13.775 20.131 L 13.773 20.133 L 13.773 20.367 L 12.953 20.367 L 12.953 20.133 L 12.951 20.131 L 12.123 20.131 L 12.121 20.133 L 12.121 20.367 L 11 20.367 L 10.998 20.369 L 10.998 20.718 L 10.764 20.718 L 10.762 20.72 L 10.762 21.548 L 10.764 21.55 L 10.998 21.55 L 10.998 21.899 L 11 21.901 L 12.121 21.901 L 12.121 22.135 L 12.123 22.137 L 12.951 22.137 L 12.953 22.135 Z" id="top_outsideCutPath" stroke="#FF0000" stroke-width="0.1" style="stroke:#FF0000;stroke-width:0.1" vector-effect="non-scaling-stroke"/><path d="M 1.365 11.004 L 1.365 10.77 L 2.185 10.77 L 2.185 11.004 L 2.187 11.006 L 3.015 11.006 L 3.017 11.004 L 3.017 10.77 L 3.837 10.77 L 3.837 11.004 L 3.839 11.006 L 4.667 11.006 L 4.669 11.004 L 4.669 10.77 L 5.489 10.77 L 5.489 11.004 L 5.491 11.006 L 6.319 11.006 L 6.321 11.004 L 6.321 10.77 L 7.141 10.77 L 7.141 11.004 L 7.143 11.006 L 8.504 11.006 L 8.506 11.004 L 8.506 10.045 L 8.504 10.043 L 8.27 10.043 L 8.27 9.223 L 8.504 9.223 L 8.506 9.221 L 8.506 8.393 L 8.504 8.391 L 8.27 8.391 L 8.27 7.571 L 8.504 7.571 L 8.506 7.569 L 8.506 6.741 L 8.504 6.739 L 8.27 6.739 L 8.27 5.919 L 8.504 5.919 L 8.506 5.917 L 8.506 5.089 L 8.504 5.087 L 8.27 5.087 L 8.27 4.267 L 8.504 4.267 L 8.506 4.265 L 8.506 3.437 L 8.504 3.435 L 8.27 3.435 L 8.27 2.615 L 8.504 2.615 L 8.506 2.613 L 8.506 1.785 L 8.504 1.783 L 8.27 1.783 L 8.27 0.963 L 8.504 0.963 L 8.506 0.961 L 8.506 0.002 L 8.504 0 L 7.143 0 L 7.141 0.002 L 7.141 0.236 L 6.321 0.236 L 6.321 0.002 L 6.319 0 L 5.491 0 L 5.489 0.002 L 5.489 0.236 L 4.669 0.236 L 4.669 0.002 L 4.667 0 L 3.839 0 L 3.837 0.002 L 3.837 0.236 L 3.017 0.236 L 3.017 0.002 L 3.015 0 L 2.187 0 L 2.185 0.002 L 2.185 0.236 L 1.365 0.236 L 1.365 0.002 L 1.363 0 L 0.002 0 L 0 0.002 L 0 0.961 L 0.002 0.963 L 0.236 0.963 L 0.236 1.783 L 0.002 1.783 L 0 1.785 L 0 2.613 L 0.002 2.615 L 0.236 2.615 L 0.236 3.435 L 0.002 3.435 L 0 3.437 L 0 4.265 L 0.002 4.267 L 0.236 4.267 L 0.236 5.087 L 0.002 5.087 L 0 5.089 L 0 5.917 L 0.002 5.919 L 0.236 5.919 L 0.236 6.739 L 0.002 6.739 L 0 6.741 L 0 7.569 L 0.002 7.571 L 0.236 7.571 L 0.236 8.391 L 0.002 8.391 L 0 8.393 L 0 9.221 L 0.002 9.223 L 0.236 9.223 L 0.236 10.043 L 0.002 10.043 L 0 10.045 L 0 11.004 L 0.002 11.006 L 1.363 11.006 L 1.365 11.004 Z" id="back_outsideCutPath" stroke="#FF0000" stroke-width="0.1" style="stroke:#FF0000;stroke-width:0.1" vector-effect="non-scaling-stroke"/><path d="M 9.224 11.004 L 9.224 10.77 L 10.044 10.77 L 10.044 11.004 L 10.046 11.006 L 10.399 11.006 L 10.401 11.004 L 10.401 10.049 L 10.635 10.049 L 10.637 10.047 L 10.637 9.219 L 10.635 9.217 L 10.401 9.217 L 10.401 8.397 L 10.635 8.397 L 10.637 8.395 L 10.637 7.567 L 10.635 7.565 L 10.401 7.565 L 10.401 6.745 L 10.635 6.745 L 10.637 6.743 L 10.637 5.915 L 10.635 5.913 L 10.401 5.913 L 10.401 5.093 L 10.635 5.093 L 10.637 5.091 L 10.637 4.263 L 10.635 4.261 L 10.401 4.261 L 10.401 3.441 L 10.635 3.441 L 10.637 3.439 L 10.637 2.611 L 10.635 2.609 L 10.401 2.609 L 10.401 1.789 L 10.635 1.789 L 10.637 1.787 L 10.637 0.959 L 10.635 0.957 L 10.401 0.957 L 10.401 0.002 L 10.399 0 L 10.046 0 L 10.044 0.002 L 10.044 0.236 L 9.224 0.236 L 9.224 0.002 L 9.222 0 L 8.869 0 L 8.867 0.002 L 8.867 0.957 L 8.633 0.957 L 8.631 0.959 L 8.631 1.787 L 8.633 1.789 L 8.867 1.789 L 8.867 2.609 L 8.633 2.609 L 8.631 2.611 L 8.631 3.439 L 8.633 3.441 L 8.867 3.441 L 8.867 4.261 L 8.633 4.261 L 8.631 4.263 L 8.631 5.091 L 8.633 5.093 L 8.867 5.093 L 8.867 5.913 L 8.633 5.913 L 8.631 5.915 L 8.631 6.743 L 8.633 6.745 L 8.867 6.745 L 8.867 7.565 L 8.633 7.565 L 8.631 7.567 L 8.631 8.395 L 8.633 8.397 L 8.867 8.397 L 8.867 9.217 L 8.633 9.217 L 8.631 9.219 L 8.631 10.047 L 8.633 10.049 L 8.867 10.049 L 8.867 11.004 L 8.869 11.006 L 9.222 11.006 L 9.224 11.004 Z" id="right_outsideCutPath" stroke="#FF0000" stroke-width="0.1" style="stroke:#FF0000;stroke-width:0.1" vector-effect="non-scaling-stroke"/><path d="M 12.953 20.004 L 12.953 19.77 L 13.773 19.77 L 13.773 20.004 L 13.775 20.006 L 14.603 20.006 L 14.605 20.004 L 14.605 19.77 L 15.425 19.77 L 15.425 20.004 L 15.427 20.006 L 16.255 20.006 L 16.257 20.004 L 16.257 19.77 L 17.077 19.77 L 17.077 20.004 L 17.079 20.006 L 17.907 20.006 L 17.909 20.004 L 17.909 19.77 L 19.03 19.77 L 19.032 19.768 L 19.032 19.419 L 19.266 19.419 L 19.268 19.417 L 19.268 18.589 L 19.266 18.587 L 19.032 18.587 L 19.032 18.238 L 19.03 18.236 L 17.909 18.236 L 17.909 18.002 L 17.907 18 L 17.079 18 L 17.077 18.002 L 17.077 18.236 L 16.257 18.236 L 16.257 18.002 L 16.255 18 L 15.427 18 L 15.425 18.002 L 15.425 18.236 L 14.605 18.236 L 14.605 18.002 L 14.603 18 L 13.775 18 L 13.773 18.002 L 13.773 18.236 L 12.953 18.236 L 12.953 18.002 L 12.951 18 L 12.123 18 L 12.121 18.002 L 12.121 18.236 L 11 18.236 L 10.998 18.238 L 10.998 18.587 L 10.764 18.587 L 10.762 18.589 L 10.762 19.417 L 10.764 19.419 L 10.998 19.419 L 10.998 19.768 L 11 19.77 L 12.121 19.77 L 12.121 20.004 L 12.123 20.006 L 12.951 20.006 L 12.953 20.004 Z" id="bottom_outsideCutPath" stroke="#FF0000" stroke-width="0.1" style="stroke:#FF0000;stroke-width:0.1" vector-effect="non-scaling-stroke"/></g></svg>