<?xml version="1.0" encoding="utf-8"?>
<!-- Generator: Adobe Illustrator 23.0.3, SVG Export Plug-In . SVG Version: 6.00 Build 0)  -->
<svg version="1.1" id="Layer_1" xmlns="http://www.w3.org/2000/svg" xmlns:xlink="http://www.w3.org/1999/xlink" x="0px" y="0px"
	 viewBox="0 0 700.6 839.5" style="enable-background:new 0 0 700.6 839.5;" xml:space="preserve">
<style type="text/css">
	.st0{fill:none;stroke:#FF0000;stroke-width:0.1;stroke-linecap:round;}
</style>
<g id="svgGroup">
	<path id="front_outsideCutPath" vector-effect="non-scaling-stroke" class="st0" d="M-1460.4,1580.5v-16.8h59v16.8l0.1,0.1h59.6
		l0.1-0.1v-16.8h59v16.8l0.1,0.1h59.6l0.1-0.1v-16.8h59v16.8l0.1,0.1h59.6l0.1-0.1v-16.8h59v16.8l0.1,0.1h98l0.1-0.1v-69l-0.1-0.1
		h-16.8v-59h16.8l0.1-0.1v-59.6l-0.1-0.1h-16.8v-59h16.8l0.1-0.1v-59.6l-0.1-0.1h-16.8v-59h16.8l0.1-0.1v-59.6l-0.1-0.1h-16.8v-59
		h16.8l0.1-0.1v-59.6l-0.1-0.1h-16.8v-59h16.8l0.1-0.1v-59.6l-0.1-0.1h-16.8v-59h16.8l0.1-0.1v-69l-0.1-0.1h-98l-0.1,0.1v16.8h-59
		v-16.8l-0.1-0.1h-59.6l-0.1,0.1v16.8h-59v-16.8l-0.1-0.1h-59.6l-0.1,0.1v16.8h-59v-16.8l-0.1-0.1h-59.6l-0.1,0.1v16.8h-59v-16.8
		l-0.1-0.1h-98l-0.1,0.1v69l0.1,0.1h16.8v59h-16.8l-0.1,0.1v59.6l0.1,0.1h16.8v59h-16.8l-0.1,0.1v59.6l0.1,0.1h16.8v59h-16.8
		l-0.1,0.1v59.6l0.1,0.1h16.8v59h-16.8l-0.1,0.1v59.6l0.1,0.1h16.8v59h-16.8l-0.1,0.1v59.6l0.1,0.1h16.8v59h-16.8l-0.1,0.1v69
		l0.1,0.1h98L-1460.4,1580.5z"/>
	<path id="left_outsideCutPath" vector-effect="non-scaling-stroke" class="st0" d="M-894.6,1580.5v-16.8h59v16.8l0.1,0.1h25.4
		l0.1-0.1v-68.8h16.8l0.1-0.1V1452l-0.1-0.1h-16.8v-59h16.8l0.1-0.1V1333l-0.1-0.1h-16.8v-59h16.8l0.1-0.1v-59.6l-0.1-0.1h-16.8v-59
		h16.8l0.1-0.1v-59.6l-0.1-0.1h-16.8v-59h16.8l0.1-0.1v-59.6l-0.1-0.1h-16.8v-59h16.8l0.1-0.1v-59.6l-0.1-0.1h-16.8v-68.8l-0.1-0.1
		h-25.4l-0.1,0.1v16.8h-59v-16.8l-0.1-0.1h-25.4l-0.1,0.1v68.8h-16.8l-0.1,0.1v59.6l0.1,0.1h16.8v59h-16.8l-0.1,0.1v59.6l0.1,0.1
		h16.8v59h-16.8l-0.1,0.1v59.6l0.1,0.1h16.8v59h-16.8l-0.1,0.1v59.6l0.1,0.1h16.8v59h-16.8l-0.1,0.1v59.6l0.1,0.1h16.8v59h-16.8
		l-0.1,0.1v59.6l0.1,0.1h16.8v68.8l0.1,0.1h25.4L-894.6,1580.5z"/>
	<path id="top_outsideCutPath" vector-effect="non-scaling-stroke" class="st0" d="M-626.1,1580.5v-16.8h59v16.8l0.1,0.1h59.6
		l0.1-0.1v-16.8h59v16.8l0.1,0.1h59.6l0.1-0.1v-16.8h59v16.8l0.1,0.1h59.6l0.1-0.1v-16.8h80.7l0.1-0.1v-25.1h16.8l0.1-0.1v-59.6
		l-0.1-0.1h-16.8v-25.1l-0.1-0.1h-80.7v-16.8l-0.1-0.1H-329l-0.1,0.1v16.8h-59v-16.8l-0.1-0.1h-59.6l-0.1,0.1v16.8h-59v-16.8
		l-0.1-0.1h-59.6l-0.1,0.1v16.8h-59v-16.8l-0.1-0.1h-59.6l-0.1,0.1v16.8h-80.7l-0.1,0.1v25.1h-16.8l-0.1,0.1v59.6l0.1,0.1h16.8v25.1
		l0.1,0.1h80.7v16.8l0.1,0.1h59.6L-626.1,1580.5z"/>
	<path id="back_outsideCutPath" vector-effect="non-scaling-stroke" class="st0" d="M-1460.4,779.1v-16.8h59v16.8l0.1,0.1h59.6
		l0.1-0.1v-16.8h59v16.8l0.1,0.1h59.6l0.1-0.1v-16.8h59v16.8l0.1,0.1h59.6l0.1-0.1v-16.8h59v16.8l0.1,0.1h98l0.1-0.1v-69l-0.1-0.1
		h-16.8v-59h16.8l0.1-0.1v-59.6l-0.1-0.1h-16.8v-59h16.8l0.1-0.1v-59.6l-0.1-0.1h-16.8v-59h16.8l0.1-0.1v-59.6l-0.1-0.1h-16.8v-59
		h16.8l0.1-0.1v-59.6l-0.1-0.1h-16.8v-59h16.8l0.1-0.1v-59.6l-0.1-0.1h-16.8v-59h16.8l0.1-0.1v-69l-0.1-0.1h-98l-0.1,0.1V3.8h-59
		v-16.8l-0.1-0.1h-59.6l-0.1,0.1V3.8h-59v-16.8l-0.1-0.1h-59.6l-0.1,0.1V3.8h-59v-16.8l-0.1-0.1h-59.6l-0.1,0.1V3.8h-59v-16.8
		l-0.1-0.1h-98l-0.1,0.1v69l0.1,0.1h16.8v59h-16.8l-0.1,0.1v59.6l0.1,0.1h16.8v59h-16.8l-0.1,0.1v59.6l0.1,0.1h16.8v59h-16.8
		l-0.1,0.1v59.6l0.1,0.1h16.8v59h-16.8l-0.1,0.1v59.6l0.1,0.1h16.8v59h-16.8l-0.1,0.1v59.6l0.1,0.1h16.8v59h-16.8l-0.1,0.1v69
		l0.1,0.1h98L-1460.4,779.1z"/>
	<path id="right_outsideCutPath" vector-effect="non-scaling-stroke" class="st0" d="M-894.6,779.1v-16.8h59v16.8l0.1,0.1h25.4
		l0.1-0.1v-68.8h16.8l0.1-0.1v-59.6l-0.1-0.1h-16.8v-59h16.8l0.1-0.1v-59.6l-0.1-0.1h-16.8v-59h16.8l0.1-0.1v-59.6l-0.1-0.1h-16.8
		v-59h16.8l0.1-0.1v-59.6l-0.1-0.1h-16.8v-59h16.8l0.1-0.1v-59.6l-0.1-0.1h-16.8v-59h16.8l0.1-0.1V55.8l-0.1-0.1h-16.8v-68.8
		l-0.1-0.1h-25.4l-0.1,0.1V3.8h-59v-16.8l-0.1-0.1h-25.4l-0.1,0.1v68.8h-16.8l-0.1,0.1v59.6l0.1,0.1h16.8v59h-16.8l-0.1,0.1v59.6
		l0.1,0.1h16.8v59h-16.8l-0.1,0.1v59.6l0.1,0.1h16.8v59h-16.8l-0.1,0.1v59.6l0.1,0.1h16.8v59h-16.8l-0.1,0.1v59.6l0.1,0.1h16.8v59
		h-16.8l-0.1,0.1v59.6l0.1,0.1h16.8v68.8l0.1,0.1h25.4L-894.6,779.1z"/>
	<path id="bottom_outsideCutPath" vector-effect="non-scaling-stroke" class="st0" d="M-626.1,1427.1v-16.8h59v16.8l0.1,0.1h59.6
		l0.1-0.1v-16.8h59v16.8l0.1,0.1h59.6l0.1-0.1v-16.8h59v16.8l0.1,0.1h59.6l0.1-0.1v-16.8h80.7l0.1-0.1v-25.1h16.8l0.1-0.1v-59.6
		l-0.1-0.1h-16.8v-25.1l-0.1-0.1h-80.7v-16.8l-0.1-0.1H-329l-0.1,0.1v16.8h-59v-16.8l-0.1-0.1h-59.6l-0.1,0.1v16.8h-59v-16.8
		l-0.1-0.1h-59.6l-0.1,0.1v16.8h-59v-16.8l-0.1-0.1h-59.6l-0.1,0.1v16.8h-80.7l-0.1,0.1v25.1h-16.8l-0.1,0.1v59.6l0.1,0.1h16.8v25.1
		l0.1,0.1h80.7v16.8l0.1,0.1h59.6L-626.1,1427.1z"/>
	<path id="left_outsideCutPath_1_" vector-effect="non-scaling-stroke" class="st0" d="M209.8,807.8V791h59v16.8l0.1,0.1h25.4
		l0.1-0.1v-68.8h16.8l0.1-0.1v-59.6l-0.1-0.1h-16.8v-59h16.8l0.1-0.1v-59.6l-0.1-0.1h-16.8v-59h16.8l0.1-0.1v-59.6l-0.1-0.1h-16.8
		v-59h16.8l0.1-0.1v-59.6l-0.1-0.1h-16.8v-59h16.8l0.1-0.1v-59.6l-0.1-0.1h-16.8v-59h16.8l0.1-0.1V84.6l-0.1-0.1h-16.8V15.7
		l-0.1-0.1h-25.4l-0.1,0.1v16.8h-59V15.7l-0.1-0.1h-25.4l-0.1,0.1v68.8h-16.8l-0.1,0.1v59.6l0.1,0.1H184v59h-16.8l-0.1,0.1v59.6
		l0.1,0.1H184v59h-16.8l-0.1,0.1v59.6l0.1,0.1H184v59h-16.8l-0.1,0.1V501l0.1,0.1H184v59h-16.8l-0.1,0.1V620l0.1,0.1H184v59h-16.8
		l-0.1,0.1v59.6l0.1,0.1H184v68.8l0.1,0.1h25.4L209.8,807.8z"/>
	<path id="right_outsideCutPath_1_" vector-effect="non-scaling-stroke" class="st0" d="M51.5,807.8V791h59v16.8l0.1,0.1h25.4
		l0.1-0.1v-68.8H153l0.1-0.1v-59.6l-0.1-0.1h-16.8v-59H153l0.1-0.1v-59.6l-0.1-0.1h-16.8v-59H153l0.1-0.1v-59.6l-0.1-0.1h-16.8v-59
		H153l0.1-0.1v-59.6l-0.1-0.1h-16.8v-59H153l0.1-0.1v-59.6l-0.1-0.1h-16.8v-59H153l0.1-0.1V84.6l-0.1-0.1h-16.8V15.7l-0.1-0.1h-25.4
		l-0.1,0.1v16.8h-59V15.7l-0.1-0.1H25.9l-0.1,0.1v68.8H8.9l-0.1,0.1v59.6l0.1,0.1h16.8v59H8.9l-0.1,0.1v59.6l0.1,0.1h16.8v59H8.9
		l-0.1,0.1v59.6l0.1,0.1h16.8v59H8.9l-0.1,0.1V501l0.1,0.1h16.8v59H8.9l-0.1,0.1V620l0.1,0.1h16.8v59H8.9l-0.1,0.1v59.6l0.1,0.1
		h16.8v68.8l0.1,0.1h25.4L51.5,807.8z"/>
	<path id="top_outsideCutPath_1_" vector-effect="non-scaling-stroke" class="st0" d="M345.9,173.3h16.8v59h-16.8l-0.1,0.1v59.6
		l0.1,0.1h16.8v59h-16.8l-0.1,0.1V411l0.1,0.1h16.8v59h-16.8l-0.1,0.1V530l0.1,0.1h16.8v80.7l0.1,0.1h25.1v16.8l0.1,0.1h59.6
		l0.1-0.1V611h25.1l0.1-0.1v-80.7h16.8l0.1-0.1v-59.6l-0.1-0.1h-16.8v-59h16.8l0.1-0.1v-59.6l-0.1-0.1h-16.8v-59h16.8l0.1-0.1v-59.6
		l-0.1-0.1h-16.8v-59h16.8l0.1-0.1v-59.6l-0.1-0.1h-16.8V32.7l-0.1-0.1H448V15.7l-0.1-0.1h-59.6l-0.1,0.1v16.8h-25.1l-0.1,0.1v80.7
		h-16.8l-0.1,0.1v59.6L345.9,173.3z"/>
	<path id="bottom_outsideCutPath_1_" vector-effect="non-scaling-stroke" class="st0" d="M499.4,173.3h16.8v59h-16.8l-0.1,0.1v59.6
		l0.1,0.1h16.8v59h-16.8l-0.1,0.1V411l0.1,0.1h16.8v59h-16.8l-0.1,0.1V530l0.1,0.1h16.8v80.7l0.1,0.1h25.1v16.8l0.1,0.1h59.6
		l0.1-0.1V611h25.1l0.1-0.1v-80.7h16.8l0.1-0.1v-59.6l-0.1-0.1h-16.8v-59h16.8l0.1-0.1v-59.6l-0.1-0.1h-16.8v-59h16.8l0.1-0.1v-59.6
		l-0.1-0.1h-16.8v-59h16.8l0.1-0.1v-59.6l-0.1-0.1h-16.8V32.7l-0.1-0.1h-25.1V15.7l-0.1-0.1h-59.6l-0.1,0.1v16.8h-25.1l-0.1,0.1
		v80.7h-16.8l-0.1,0.1v59.6L499.4,173.3z"/>
</g>
</svg>
