<svg width="19.268in" height="22.137in" viewBox="0 0 19.268 22.137" xmlns="http://www.w3.org/2000/svg" version="1.1" preserveAspectRatio="xMidYMid meet"><g id="svgGroup" stroke-linecap="round" fill-rule="evenodd" font-size="9pt" stroke="#000" stroke-width="0.25mm" fill="none" style="stroke:#000;stroke-width:0.25mm;fill:none"><path d="M 1.365 22.135 L 1.365 21.901 L 2.185 21.901 L 2.185 22.135 L 2.187 22.137 L 3.015 22.137 L 3.017 22.135 L 3.017 21.901 L 3.837 21.901 L 3.837 22.135 L 3.839 22.137 L 4.667 22.137 L 4.669 22.135 L 4.669 21.901 L 5.489 21.901 L 5.489 22.135 L 5.491 22.137 L 6.319 22.137 L 6.321 22.135 L 6.321 21.901 L 7.141 21.901 L 7.141 22.135 L 7.143 22.137 L 8.504 22.137 L 8.506 22.135 L 8.506 21.176 L 8.504 21.174 L 8.27 21.174 L 8.27 20.354 L 8.504 20.354 L 8.506 20.352 L 8.506 19.524 L 8.504 19.522 L 8.27 19.522 L 8.27 18.702 L 8.504 18.702 L 8.506 18.7 L 8.506 17.872 L 8.504 17.87 L 8.27 17.87 L 8.27 17.05 L 8.504 17.05 L 8.506 17.048 L 8.506 16.22 L 8.504 16.218 L 8.27 16.218 L 8.27 15.398 L 8.504 15.398 L 8.506 15.396 L 8.506 14.568 L 8.504 14.566 L 8.27 14.566 L 8.27 13.746 L 8.504 13.746 L 8.506 13.744 L 8.506 12.916 L 8.504 12.914 L 8.27 12.914 L 8.27 12.094 L 8.504 12.094 L 8.506 12.092 L 8.506 11.133 L 8.504 11.131 L 7.143 11.131 L 7.141 11.133 L 7.141 11.367 L 6.321 11.367 L 6.321 11.133 L 6.319 11.131 L 5.491 11.131 L 5.489 11.133 L 5.489 11.367 L 4.669 11.367 L 4.669 11.133 L 4.667 11.131 L 3.839 11.131 L 3.837 11.133 L 3.837 11.367 L 3.017 11.367 L 3.017 11.133 L 3.015 11.131 L 2.187 11.131 L 2.185 11.133 L 2.185 11.367 L 1.365 11.367 L 1.365 11.133 L 1.363 11.131 L 0.002 11.131 L 0 11.133 L 0 12.092 L 0.002 12.094 L 0.236 12.094 L 0.236 12.914 L 0.002 12.914 L 0 12.916 L 0 13.744 L 0.002 13.746 L 0.236 13.746 L 0.236 14.566 L 0.002 14.566 L 0 14.568 L 0 15.396 L 0.002 15.398 L 0.236 15.398 L 0.236 16.218 L 0.002 16.218 L 0 16.22 L 0 17.048 L 0.002 17.05 L 0.236 17.05 L 0.236 17.87 L 0.002 17.87 L 0 17.872 L 0 18.7 L 0.002 18.702 L 0.236 18.702 L 0.236 19.522 L 0.002 19.522 L 0 19.524 L 0 20.352 L 0.002 20.354 L 0.236 20.354 L 0.236 21.174 L 0.002 21.174 L 0 21.176 L 0 22.135 L 0.002 22.137 L 1.363 22.137 L 1.365 22.135 Z" id="front_outsideCutPath" stroke="#FF0000" stroke-width="0.1" style="stroke:#FF0000;stroke-width:0.1" vector-effect="non-scaling-stroke"/><path d="M 5.493 17.277 L 5.355 17.277 L 5.355 16.688 Q 5.355 16.617 5.334 16.569 A 0.164 0.164 0 0 0 5.304 16.521 Q 5.263 16.477 5.185 16.469 A 0.366 0.366 0 0 0 5.146 16.467 A 0.417 0.417 0 0 0 5.067 16.473 Q 4.983 16.49 4.936 16.544 A 0.225 0.225 0 0 0 4.897 16.612 Q 4.873 16.675 4.87 16.769 A 0.884 0.884 0 0 0 4.87 16.799 L 4.87 17.277 L 4.732 17.277 L 4.732 16.366 L 4.844 16.366 L 4.866 16.491 L 4.873 16.491 A 0.279 0.279 0 0 1 4.982 16.391 A 0.335 0.335 0 0 1 4.992 16.386 A 0.373 0.373 0 0 1 5.125 16.351 A 0.451 0.451 0 0 1 5.162 16.349 A 0.544 0.544 0 0 1 5.255 16.357 Q 5.305 16.366 5.345 16.384 A 0.248 0.248 0 0 1 5.41 16.429 A 0.239 0.239 0 0 1 5.468 16.52 Q 5.482 16.558 5.488 16.605 A 0.602 0.602 0 0 1 5.493 16.683 L 5.493 17.277 Z M 2.844 16.366 L 2.844 16.473 L 2.612 16.473 L 2.612 17.277 L 2.474 17.277 L 2.474 16.473 L 2.311 16.473 L 2.311 16.411 L 2.474 16.361 L 2.474 16.31 A 0.559 0.559 0 0 1 2.487 16.184 Q 2.528 16.011 2.693 15.981 A 0.419 0.419 0 0 1 2.767 15.975 Q 2.84 15.975 2.937 16.004 L 2.901 16.114 A 0.67 0.67 0 0 0 2.849 16.1 Q 2.823 16.094 2.8 16.091 A 0.297 0.297 0 0 0 2.765 16.089 A 0.186 0.186 0 0 0 2.72 16.094 A 0.119 0.119 0 0 0 2.649 16.141 A 0.16 0.16 0 0 0 2.628 16.183 Q 2.614 16.225 2.612 16.286 A 0.651 0.651 0 0 0 2.612 16.307 L 2.612 16.366 L 2.844 16.366 Z M 6.195 17.163 L 6.195 17.268 A 0.136 0.136 0 0 1 6.179 17.275 Q 6.159 17.281 6.129 17.286 Q 6.085 17.293 6.05 17.293 A 0.36 0.36 0 0 1 5.944 17.279 Q 5.827 17.243 5.797 17.116 A 0.433 0.433 0 0 1 5.786 17.015 L 5.786 16.473 L 5.656 16.473 L 5.656 16.407 L 5.786 16.349 L 5.844 16.155 L 5.924 16.155 L 5.924 16.366 L 6.188 16.366 L 6.188 16.473 L 5.924 16.473 L 5.924 17.009 Q 5.924 17.067 5.943 17.106 A 0.134 0.134 0 0 0 5.963 17.135 A 0.128 0.128 0 0 0 6.042 17.177 A 0.184 0.184 0 0 0 6.07 17.179 A 0.453 0.453 0 0 0 6.136 17.175 A 0.416 0.416 0 0 0 6.141 17.174 A 0.745 0.745 0 0 0 6.161 17.17 Q 6.181 17.167 6.195 17.163 Z M 3.534 16.359 L 3.515 16.487 Q 3.468 16.477 3.43 16.475 A 0.323 0.323 0 0 0 3.415 16.475 A 0.239 0.239 0 0 0 3.239 16.551 A 0.327 0.327 0 0 0 3.226 16.565 A 0.315 0.315 0 0 0 3.15 16.741 A 0.419 0.419 0 0 0 3.148 16.788 L 3.148 17.277 L 3.01 17.277 L 3.01 16.366 L 3.124 16.366 L 3.139 16.535 L 3.146 16.535 Q 3.197 16.446 3.268 16.398 Q 3.34 16.349 3.425 16.349 A 0.633 0.633 0 0 1 3.482 16.352 A 0.462 0.462 0 0 1 3.534 16.359 Z M 4.49 16.82 Q 4.49 17.043 4.378 17.168 A 0.368 0.368 0 0 1 4.162 17.285 A 0.535 0.535 0 0 1 4.068 17.293 Q 3.946 17.293 3.851 17.236 Q 3.757 17.178 3.705 17.071 A 0.51 0.51 0 0 1 3.662 16.932 A 0.69 0.69 0 0 1 3.654 16.82 A 0.716 0.716 0 0 1 3.666 16.682 Q 3.682 16.601 3.718 16.539 A 0.381 0.381 0 0 1 3.765 16.474 A 0.365 0.365 0 0 1 3.978 16.358 A 0.536 0.536 0 0 1 4.074 16.349 A 0.463 0.463 0 0 1 4.21 16.368 A 0.361 0.361 0 0 1 4.378 16.477 A 0.429 0.429 0 0 1 4.471 16.658 Q 4.49 16.732 4.49 16.82 Z M 3.797 16.82 A 0.698 0.698 0 0 0 3.803 16.92 Q 3.811 16.971 3.826 17.012 A 0.289 0.289 0 0 0 3.866 17.086 A 0.226 0.226 0 0 0 4.014 17.173 A 0.342 0.342 0 0 0 4.071 17.178 A 0.32 0.32 0 0 0 4.156 17.167 A 0.223 0.223 0 0 0 4.277 17.087 A 0.296 0.296 0 0 0 4.323 16.997 Q 4.347 16.923 4.347 16.82 Q 4.347 16.709 4.318 16.632 A 0.284 0.284 0 0 0 4.277 16.557 A 0.227 0.227 0 0 0 4.136 16.473 A 0.348 0.348 0 0 0 4.07 16.467 A 0.328 0.328 0 0 0 3.988 16.476 A 0.22 0.22 0 0 0 3.865 16.555 Q 3.816 16.619 3.802 16.729 A 0.729 0.729 0 0 0 3.797 16.82 Z" id="front_labelLayer" stroke="#777777" fill="#777777" style="stroke:#777777;fill:#777777" vector-effect="non-scaling-stroke"/><path d="M 9.224 22.135 L 9.224 21.901 L 10.044 21.901 L 10.044 22.135 L 10.046 22.137 L 10.399 22.137 L 10.401 22.135 L 10.401 21.18 L 10.635 21.18 L 10.637 21.178 L 10.637 20.35 L 10.635 20.348 L 10.401 20.348 L 10.401 19.528 L 10.635 19.528 L 10.637 19.526 L 10.637 18.698 L 10.635 18.696 L 10.401 18.696 L 10.401 17.876 L 10.635 17.876 L 10.637 17.874 L 10.637 17.046 L 10.635 17.044 L 10.401 17.044 L 10.401 16.224 L 10.635 16.224 L 10.637 16.222 L 10.637 15.394 L 10.635 15.392 L 10.401 15.392 L 10.401 14.572 L 10.635 14.572 L 10.637 14.57 L 10.637 13.742 L 10.635 13.74 L 10.401 13.74 L 10.401 12.92 L 10.635 12.92 L 10.637 12.918 L 10.637 12.09 L 10.635 12.088 L 10.401 12.088 L 10.401 11.133 L 10.399 11.131 L 10.046 11.131 L 10.044 11.133 L 10.044 11.367 L 9.224 11.367 L 9.224 11.133 L 9.222 11.131 L 8.869 11.131 L 8.867 11.133 L 8.867 12.088 L 8.633 12.088 L 8.631 12.09 L 8.631 12.918 L 8.633 12.92 L 8.867 12.92 L 8.867 13.74 L 8.633 13.74 L 8.631 13.742 L 8.631 14.57 L 8.633 14.572 L 8.867 14.572 L 8.867 15.392 L 8.633 15.392 L 8.631 15.394 L 8.631 16.222 L 8.633 16.224 L 8.867 16.224 L 8.867 17.044 L 8.633 17.044 L 8.631 17.046 L 8.631 17.874 L 8.633 17.876 L 8.867 17.876 L 8.867 18.696 L 8.633 18.696 L 8.631 18.698 L 8.631 19.526 L 8.633 19.528 L 8.867 19.528 L 8.867 20.348 L 8.633 20.348 L 8.631 20.35 L 8.631 21.178 L 8.633 21.18 L 8.867 21.18 L 8.867 22.135 L 8.869 22.137 L 9.222 22.137 L 9.224 22.135 Z" id="left_outsideCutPath" stroke="#FF0000" stroke-width="0.1" style="stroke:#FF0000;stroke-width:0.1" vector-effect="non-scaling-stroke"/><path d="M 9.777 16.571 L 9.777 16.596 L 9.722 16.596 L 9.722 16.786 L 9.69 16.786 L 9.69 16.596 L 9.651 16.596 L 9.651 16.581 L 9.69 16.57 L 9.69 16.558 A 0.132 0.132 0 0 1 9.693 16.528 Q 9.702 16.487 9.741 16.48 A 0.099 0.099 0 0 1 9.759 16.479 A 0.105 0.105 0 0 1 9.774 16.48 Q 9.781 16.481 9.789 16.483 A 0.21 0.21 0 0 1 9.799 16.485 L 9.79 16.511 A 0.158 0.158 0 0 0 9.778 16.508 Q 9.767 16.505 9.758 16.505 A 0.044 0.044 0 0 0 9.748 16.507 A 0.028 0.028 0 0 0 9.731 16.518 Q 9.722 16.53 9.722 16.557 L 9.722 16.571 L 9.777 16.571 Z M 9.624 16.663 L 9.624 16.684 L 9.477 16.684 A 0.131 0.131 0 0 0 9.479 16.706 Q 9.481 16.718 9.486 16.727 A 0.061 0.061 0 0 0 9.496 16.741 A 0.059 0.059 0 0 0 9.527 16.759 A 0.09 0.09 0 0 0 9.547 16.761 A 0.172 0.172 0 0 0 9.611 16.748 A 0.198 0.198 0 0 0 9.615 16.747 L 9.615 16.776 Q 9.598 16.783 9.583 16.786 Q 9.567 16.789 9.546 16.789 A 0.126 0.126 0 0 1 9.514 16.786 A 0.089 0.089 0 0 1 9.47 16.76 A 0.096 0.096 0 0 1 9.448 16.718 Q 9.444 16.704 9.443 16.686 A 0.186 0.186 0 0 1 9.443 16.68 Q 9.443 16.638 9.46 16.609 A 0.096 0.096 0 0 1 9.468 16.597 Q 9.494 16.567 9.537 16.567 A 0.099 0.099 0 0 1 9.565 16.571 A 0.075 0.075 0 0 1 9.601 16.593 A 0.091 0.091 0 0 1 9.622 16.635 A 0.132 0.132 0 0 1 9.624 16.663 Z M 9.915 16.759 L 9.915 16.784 Q 9.909 16.786 9.899 16.788 Q 9.889 16.789 9.882 16.789 A 0.081 0.081 0 0 1 9.881 16.789 Q 9.831 16.789 9.821 16.748 A 0.102 0.102 0 0 1 9.818 16.724 L 9.818 16.596 L 9.787 16.596 L 9.787 16.58 L 9.818 16.567 L 9.832 16.521 L 9.851 16.521 L 9.851 16.571 L 9.913 16.571 L 9.913 16.596 L 9.851 16.596 L 9.851 16.722 A 0.066 0.066 0 0 0 9.852 16.734 Q 9.854 16.745 9.86 16.752 A 0.03 0.03 0 0 0 9.879 16.762 A 0.043 0.043 0 0 0 9.885 16.763 A 0.107 0.107 0 0 0 9.901 16.761 A 0.094 0.094 0 0 0 9.902 16.761 Q 9.907 16.761 9.911 16.76 Z M 9.386 16.481 L 9.386 16.786 L 9.353 16.786 L 9.353 16.481 L 9.386 16.481 Z M 9.477 16.658 L 9.59 16.658 A 0.111 0.111 0 0 0 9.588 16.64 Q 9.585 16.622 9.576 16.61 A 0.045 0.045 0 0 0 9.549 16.595 A 0.067 0.067 0 0 0 9.537 16.594 Q 9.511 16.594 9.495 16.611 A 0.064 0.064 0 0 0 9.483 16.633 Q 9.479 16.644 9.477 16.658 Z" id="left_labelLayer" stroke="#777777" fill="#777777" style="stroke:#777777;fill:#777777" vector-effect="non-scaling-stroke"/><path d="M 12.953 22.135 L 12.953 21.901 L 13.773 21.901 L 13.773 22.135 L 13.775 22.137 L 14.603 22.137 L 14.605 22.135 L 14.605 21.901 L 15.425 21.901 L 15.425 22.135 L 15.427 22.137 L 16.255 22.137 L 16.257 22.135 L 16.257 21.901 L 17.077 21.901 L 17.077 22.135 L 17.079 22.137 L 17.907 22.137 L 17.909 22.135 L 17.909 21.901 L 19.03 21.901 L 19.032 21.899 L 19.032 21.55 L 19.266 21.55 L 19.268 21.548 L 19.268 20.72 L 19.266 20.718 L 19.032 20.718 L 19.032 20.369 L 19.03 20.367 L 17.909 20.367 L 17.909 20.133 L 17.907 20.131 L 17.079 20.131 L 17.077 20.133 L 17.077 20.367 L 16.257 20.367 L 16.257 20.133 L 16.255 20.131 L 15.427 20.131 L 15.425 20.133 L 15.425 20.367 L 14.605 20.367 L 14.605 20.133 L 14.603 20.131 L 13.775 20.131 L 13.773 20.133 L 13.773 20.367 L 12.953 20.367 L 12.953 20.133 L 12.951 20.131 L 12.123 20.131 L 12.121 20.133 L 12.121 20.367 L 11 20.367 L 10.998 20.369 L 10.998 20.718 L 10.764 20.718 L 10.762 20.72 L 10.762 21.548 L 10.764 21.55 L 10.998 21.55 L 10.998 21.899 L 11 21.901 L 12.121 21.901 L 12.121 22.135 L 12.123 22.137 L 12.951 22.137 L 12.953 22.135 Z" id="top_outsideCutPath" stroke="#FF0000" stroke-width="0.1" style="stroke:#FF0000;stroke-width:0.1" vector-effect="non-scaling-stroke"/><path d="M 15.159 21.19 L 15.157 21.19 Q 15.159 21.209 15.159 21.226 L 15.159 21.314 L 15.127 21.314 L 15.127 21.003 L 15.153 21.003 L 15.158 21.033 L 15.159 21.033 A 0.088 0.088 0 0 1 15.172 21.018 A 0.068 0.068 0 0 1 15.188 21.007 A 0.081 0.081 0 0 1 15.212 21 A 0.105 0.105 0 0 1 15.227 20.999 A 0.1 0.1 0 0 1 15.255 21.003 A 0.074 0.074 0 0 1 15.292 21.029 A 0.098 0.098 0 0 1 15.309 21.061 Q 15.316 21.082 15.316 21.11 Q 15.316 21.163 15.292 21.193 Q 15.268 21.222 15.227 21.222 A 0.099 0.099 0 0 1 15.202 21.219 A 0.086 0.086 0 0 1 15.188 21.214 A 0.072 0.072 0 0 1 15.159 21.19 Z M 14.841 21.191 L 14.841 21.216 Q 14.836 21.219 14.826 21.22 Q 14.816 21.222 14.808 21.222 A 0.081 0.081 0 0 1 14.807 21.222 Q 14.758 21.222 14.748 21.18 A 0.102 0.102 0 0 1 14.745 21.156 L 14.745 21.029 L 14.714 21.029 L 14.714 21.013 L 14.745 20.999 L 14.759 20.954 L 14.778 20.954 L 14.778 21.003 L 14.84 21.003 L 14.84 21.029 L 14.778 21.029 L 14.778 21.155 A 0.066 0.066 0 0 0 14.779 21.166 Q 14.781 21.178 14.787 21.185 A 0.03 0.03 0 0 0 14.805 21.195 A 0.043 0.043 0 0 0 14.812 21.195 A 0.107 0.107 0 0 0 14.828 21.194 A 0.094 0.094 0 0 0 14.829 21.194 Q 14.834 21.193 14.838 21.192 Z M 15.043 21.192 A 0.091 0.091 0 0 0 15.054 21.178 Q 15.07 21.151 15.07 21.11 A 0.191 0.191 0 0 0 15.07 21.105 Q 15.069 21.087 15.065 21.072 A 0.101 0.101 0 0 0 15.043 21.029 A 0.085 0.085 0 0 0 15.004 21.004 A 0.109 0.109 0 0 0 14.972 20.999 A 0.126 0.126 0 0 0 14.949 21.001 A 0.086 0.086 0 0 0 14.899 21.029 Q 14.881 21.048 14.875 21.078 A 0.169 0.169 0 0 0 14.872 21.11 A 0.163 0.163 0 0 0 14.874 21.137 A 0.12 0.12 0 0 0 14.885 21.17 A 0.107 0.107 0 0 0 14.887 21.174 A 0.088 0.088 0 0 0 14.919 21.208 Q 14.941 21.222 14.97 21.222 A 0.126 0.126 0 0 0 14.992 21.22 A 0.087 0.087 0 0 0 15.043 21.192 Z M 14.906 21.11 A 0.165 0.165 0 0 0 14.908 21.134 Q 14.909 21.146 14.913 21.156 A 0.068 0.068 0 0 0 14.923 21.173 A 0.053 0.053 0 0 0 14.957 21.194 A 0.081 0.081 0 0 0 14.971 21.195 A 0.076 0.076 0 0 0 14.991 21.192 A 0.053 0.053 0 0 0 15.019 21.173 A 0.07 0.07 0 0 0 15.03 21.152 Q 15.036 21.135 15.036 21.11 A 0.162 0.162 0 0 0 15.034 21.087 Q 15.031 21.063 15.019 21.048 Q 15.003 21.027 14.971 21.027 A 0.077 0.077 0 0 0 14.951 21.029 A 0.052 0.052 0 0 0 14.922 21.048 Q 14.911 21.063 14.907 21.089 A 0.172 0.172 0 0 0 14.906 21.11 Z M 15.159 21.103 L 15.159 21.11 A 0.215 0.215 0 0 0 15.16 21.133 Q 15.163 21.155 15.17 21.169 A 0.049 0.049 0 0 0 15.174 21.175 Q 15.189 21.195 15.223 21.195 A 0.055 0.055 0 0 0 15.244 21.191 Q 15.257 21.185 15.266 21.172 A 0.079 0.079 0 0 0 15.277 21.149 Q 15.282 21.132 15.282 21.11 Q 15.282 21.07 15.266 21.048 A 0.051 0.051 0 0 0 15.229 21.027 A 0.07 0.07 0 0 0 15.222 21.027 A 0.094 0.094 0 0 0 15.204 21.029 Q 15.195 21.03 15.187 21.035 A 0.043 0.043 0 0 0 15.174 21.045 Q 15.161 21.062 15.159 21.098 A 0.208 0.208 0 0 0 15.159 21.103 Z" id="top_labelLayer" stroke="#777777" fill="#777777" style="stroke:#777777;fill:#777777" vector-effect="non-scaling-stroke"/><path d="M 1.365 11.004 L 1.365 10.77 L 2.185 10.77 L 2.185 11.004 L 2.187 11.006 L 3.015 11.006 L 3.017 11.004 L 3.017 10.77 L 3.837 10.77 L 3.837 11.004 L 3.839 11.006 L 4.667 11.006 L 4.669 11.004 L 4.669 10.77 L 5.489 10.77 L 5.489 11.004 L 5.491 11.006 L 6.319 11.006 L 6.321 11.004 L 6.321 10.77 L 7.141 10.77 L 7.141 11.004 L 7.143 11.006 L 8.504 11.006 L 8.506 11.004 L 8.506 10.045 L 8.504 10.043 L 8.27 10.043 L 8.27 9.223 L 8.504 9.223 L 8.506 9.221 L 8.506 8.393 L 8.504 8.391 L 8.27 8.391 L 8.27 7.571 L 8.504 7.571 L 8.506 7.569 L 8.506 6.741 L 8.504 6.739 L 8.27 6.739 L 8.27 5.919 L 8.504 5.919 L 8.506 5.917 L 8.506 5.089 L 8.504 5.087 L 8.27 5.087 L 8.27 4.267 L 8.504 4.267 L 8.506 4.265 L 8.506 3.437 L 8.504 3.435 L 8.27 3.435 L 8.27 2.615 L 8.504 2.615 L 8.506 2.613 L 8.506 1.785 L 8.504 1.783 L 8.27 1.783 L 8.27 0.963 L 8.504 0.963 L 8.506 0.961 L 8.506 0.002 L 8.504 0 L 7.143 0 L 7.141 0.002 L 7.141 0.236 L 6.321 0.236 L 6.321 0.002 L 6.319 0 L 5.491 0 L 5.489 0.002 L 5.489 0.236 L 4.669 0.236 L 4.669 0.002 L 4.667 0 L 3.839 0 L 3.837 0.002 L 3.837 0.236 L 3.017 0.236 L 3.017 0.002 L 3.015 0 L 2.187 0 L 2.185 0.002 L 2.185 0.236 L 1.365 0.236 L 1.365 0.002 L 1.363 0 L 0.002 0 L 0 0.002 L 0 0.961 L 0.002 0.963 L 0.236 0.963 L 0.236 1.783 L 0.002 1.783 L 0 1.785 L 0 2.613 L 0.002 2.615 L 0.236 2.615 L 0.236 3.435 L 0.002 3.435 L 0 3.437 L 0 4.265 L 0.002 4.267 L 0.236 4.267 L 0.236 5.087 L 0.002 5.087 L 0 5.089 L 0 5.917 L 0.002 5.919 L 0.236 5.919 L 0.236 6.739 L 0.002 6.739 L 0 6.741 L 0 7.569 L 0.002 7.571 L 0.236 7.571 L 0.236 8.391 L 0.002 8.391 L 0 8.393 L 0 9.221 L 0.002 9.223 L 0.236 9.223 L 0.236 10.043 L 0.002 10.043 L 0 10.045 L 0 11.004 L 0.002 11.006 L 1.363 11.006 L 1.365 11.004 Z" id="back_outsideCutPath" stroke="#FF0000" stroke-width="0.1" style="stroke:#FF0000;stroke-width:0.1" vector-effect="non-scaling-stroke"/><path d="M 5.418 5.675 L 5.424 5.675 A 0.816 0.816 0 0 1 5.444 5.648 Q 5.468 5.617 5.501 5.579 A 2.962 2.962 0 0 1 5.533 5.542 L 5.827 5.231 L 5.991 5.231 L 5.622 5.618 L 6.016 6.141 L 5.85 6.141 L 5.528 5.711 L 5.424 5.8 L 5.424 6.141 L 5.288 6.141 L 5.288 4.848 L 5.424 4.848 L 5.424 5.534 A 0.919 0.919 0 0 1 5.424 5.56 Q 5.423 5.602 5.418 5.671 A 4.734 4.734 0 0 1 5.418 5.675 Z M 2.627 6.024 L 2.617 6.024 L 2.588 6.141 L 2.49 6.141 L 2.49 4.848 L 2.627 4.848 L 2.627 5.162 A 2.875 2.875 0 0 1 2.626 5.26 Q 2.624 5.309 2.621 5.352 L 2.627 5.352 A 0.314 0.314 0 0 1 2.856 5.219 A 0.471 0.471 0 0 1 2.913 5.216 A 0.421 0.421 0 0 1 3.032 5.231 A 0.315 0.315 0 0 1 3.192 5.338 A 0.406 0.406 0 0 1 3.263 5.475 Q 3.281 5.532 3.287 5.6 A 0.885 0.885 0 0 1 3.291 5.685 A 0.808 0.808 0 0 1 3.28 5.821 Q 3.268 5.893 3.241 5.952 A 0.388 0.388 0 0 1 3.191 6.033 A 0.326 0.326 0 0 1 2.959 6.155 A 0.468 0.468 0 0 1 2.913 6.158 A 0.418 0.418 0 0 1 2.808 6.145 A 0.364 0.364 0 0 1 2.751 6.125 Q 2.677 6.092 2.627 6.024 Z M 4.194 6.141 L 4.092 6.141 L 4.064 6.011 L 4.058 6.011 A 0.572 0.572 0 0 1 4.012 6.063 Q 3.987 6.088 3.962 6.105 A 0.254 0.254 0 0 1 3.922 6.127 A 0.318 0.318 0 0 1 3.856 6.148 Q 3.824 6.155 3.788 6.157 A 0.621 0.621 0 0 1 3.753 6.158 A 0.423 0.423 0 0 1 3.667 6.149 Q 3.591 6.134 3.541 6.088 A 0.227 0.227 0 0 1 3.472 5.968 A 0.347 0.347 0 0 1 3.464 5.889 A 0.239 0.239 0 0 1 3.6 5.664 Q 3.709 5.606 3.905 5.6 L 4.059 5.595 L 4.059 5.539 Q 4.059 5.473 4.042 5.429 A 0.154 0.154 0 0 0 4.013 5.38 Q 3.967 5.329 3.866 5.329 A 0.449 0.449 0 0 0 3.763 5.342 Q 3.715 5.353 3.664 5.374 A 0.923 0.923 0 0 0 3.608 5.399 L 3.566 5.294 A 0.636 0.636 0 0 1 3.689 5.243 A 0.724 0.724 0 0 1 3.713 5.236 Q 3.794 5.216 3.874 5.216 Q 3.976 5.216 4.045 5.244 A 0.235 0.235 0 0 1 4.116 5.288 A 0.218 0.218 0 0 1 4.172 5.375 Q 4.185 5.41 4.19 5.455 A 0.543 0.543 0 0 1 4.194 5.52 L 4.194 6.141 Z M 5.085 5.261 L 5.043 5.378 A 0.613 0.613 0 0 0 4.976 5.356 A 0.733 0.733 0 0 0 4.943 5.348 Q 4.897 5.338 4.86 5.336 A 0.306 0.306 0 0 0 4.848 5.336 A 0.306 0.306 0 0 0 4.724 5.359 Q 4.593 5.417 4.574 5.615 A 0.762 0.762 0 0 0 4.57 5.69 Q 4.57 5.8 4.599 5.876 A 0.286 0.286 0 0 0 4.638 5.947 A 0.219 0.219 0 0 0 4.78 6.032 A 0.334 0.334 0 0 0 4.839 6.037 A 0.577 0.577 0 0 0 4.998 6.014 A 0.713 0.713 0 0 0 5.072 5.988 L 5.072 6.11 A 0.392 0.392 0 0 1 4.976 6.144 Q 4.932 6.154 4.88 6.157 A 0.756 0.756 0 0 1 4.842 6.158 A 0.515 0.515 0 0 1 4.717 6.143 A 0.349 0.349 0 0 1 4.536 6.036 A 0.399 0.399 0 0 1 4.453 5.884 Q 4.427 5.799 4.427 5.692 A 0.761 0.761 0 0 1 4.439 5.553 Q 4.463 5.422 4.538 5.339 A 0.357 0.357 0 0 1 4.733 5.226 A 0.541 0.541 0 0 1 4.851 5.214 A 0.622 0.622 0 0 1 4.982 5.228 Q 5.025 5.237 5.055 5.248 A 0.273 0.273 0 0 1 5.084 5.261 Z M 2.893 5.331 A 0.387 0.387 0 0 0 2.818 5.338 Q 2.734 5.354 2.69 5.412 A 0.236 0.236 0 0 0 2.656 5.477 Q 2.632 5.542 2.628 5.64 A 1.062 1.062 0 0 0 2.627 5.685 A 0.912 0.912 0 0 0 2.632 5.779 Q 2.642 5.874 2.674 5.932 A 0.208 0.208 0 0 0 2.691 5.959 A 0.2 0.2 0 0 0 2.793 6.028 Q 2.838 6.042 2.897 6.042 A 0.275 0.275 0 0 0 2.975 6.032 A 0.198 0.198 0 0 0 3.086 5.949 A 0.317 0.317 0 0 0 3.125 5.865 Q 3.148 5.789 3.148 5.683 Q 3.148 5.505 3.086 5.418 A 0.201 0.201 0 0 0 2.958 5.337 A 0.319 0.319 0 0 0 2.893 5.331 Z M 4.056 5.775 L 4.056 5.693 L 3.918 5.699 A 1.012 1.012 0 0 0 3.837 5.705 Q 3.758 5.714 3.708 5.736 A 0.212 0.212 0 0 0 3.681 5.75 Q 3.608 5.795 3.608 5.891 Q 3.608 5.966 3.654 6.005 A 0.15 0.15 0 0 0 3.71 6.035 Q 3.732 6.041 3.759 6.043 A 0.31 0.31 0 0 0 3.78 6.044 A 0.38 0.38 0 0 0 3.862 6.035 Q 3.934 6.019 3.983 5.973 A 0.231 0.231 0 0 0 4.047 5.858 Q 4.056 5.82 4.056 5.775 Z" id="back_labelLayer" stroke="#777777" fill="#777777" style="stroke:#777777;fill:#777777" vector-effect="non-scaling-stroke"/><path d="M 9.224 11.004 L 9.224 10.77 L 10.044 10.77 L 10.044 11.004 L 10.046 11.006 L 10.399 11.006 L 10.401 11.004 L 10.401 10.049 L 10.635 10.049 L 10.637 10.047 L 10.637 9.219 L 10.635 9.217 L 10.401 9.217 L 10.401 8.397 L 10.635 8.397 L 10.637 8.395 L 10.637 7.567 L 10.635 7.565 L 10.401 7.565 L 10.401 6.745 L 10.635 6.745 L 10.637 6.743 L 10.637 5.915 L 10.635 5.913 L 10.401 5.913 L 10.401 5.093 L 10.635 5.093 L 10.637 5.091 L 10.637 4.263 L 10.635 4.261 L 10.401 4.261 L 10.401 3.441 L 10.635 3.441 L 10.637 3.439 L 10.637 2.611 L 10.635 2.609 L 10.401 2.609 L 10.401 1.789 L 10.635 1.789 L 10.637 1.787 L 10.637 0.959 L 10.635 0.957 L 10.401 0.957 L 10.401 0.002 L 10.399 0 L 10.046 0 L 10.044 0.002 L 10.044 0.236 L 9.224 0.236 L 9.224 0.002 L 9.222 0 L 8.869 0 L 8.867 0.002 L 8.867 0.957 L 8.633 0.957 L 8.631 0.959 L 8.631 1.787 L 8.633 1.789 L 8.867 1.789 L 8.867 2.609 L 8.633 2.609 L 8.631 2.611 L 8.631 3.439 L 8.633 3.441 L 8.867 3.441 L 8.867 4.261 L 8.633 4.261 L 8.631 4.263 L 8.631 5.091 L 8.633 5.093 L 8.867 5.093 L 8.867 5.913 L 8.633 5.913 L 8.631 5.915 L 8.631 6.743 L 8.633 6.745 L 8.867 6.745 L 8.867 7.565 L 8.633 7.565 L 8.631 7.567 L 8.631 8.395 L 8.633 8.397 L 8.867 8.397 L 8.867 9.217 L 8.633 9.217 L 8.631 9.219 L 8.631 10.047 L 8.633 10.049 L 8.867 10.049 L 8.867 11.004 L 8.869 11.006 L 9.222 11.006 L 9.224 11.004 Z" id="right_outsideCutPath" stroke="#FF0000" stroke-width="0.1" style="stroke:#FF0000;stroke-width:0.1" vector-effect="non-scaling-stroke"/><path d="M 9.883 5.607 L 9.851 5.607 L 9.851 5.468 A 0.092 0.092 0 0 0 9.85 5.454 Q 9.849 5.446 9.846 5.44 A 0.039 0.039 0 0 0 9.839 5.429 Q 9.827 5.416 9.802 5.416 A 0.098 0.098 0 0 0 9.783 5.418 Q 9.773 5.42 9.765 5.424 A 0.046 0.046 0 0 0 9.752 5.435 Q 9.737 5.453 9.737 5.495 L 9.737 5.607 L 9.704 5.607 L 9.704 5.302 L 9.737 5.302 L 9.737 5.395 Q 9.737 5.407 9.736 5.416 A 0.127 0.127 0 0 1 9.735 5.422 L 9.737 5.422 Q 9.747 5.407 9.764 5.398 Q 9.782 5.389 9.805 5.389 Q 9.831 5.389 9.848 5.397 A 0.059 0.059 0 0 1 9.864 5.408 Q 9.883 5.426 9.883 5.467 L 9.883 5.607 Z M 9.586 5.393 L 9.66 5.393 L 9.66 5.413 L 9.62 5.418 A 0.053 0.053 0 0 1 9.625 5.425 Q 9.628 5.429 9.63 5.436 A 0.063 0.063 0 0 1 9.634 5.451 A 0.08 0.08 0 0 1 9.634 5.461 A 0.075 0.075 0 0 1 9.631 5.484 A 0.06 0.06 0 0 1 9.613 5.511 A 0.072 0.072 0 0 1 9.584 5.526 Q 9.574 5.529 9.561 5.53 A 0.141 0.141 0 0 1 9.554 5.53 A 0.105 0.105 0 0 1 9.541 5.529 A 0.088 0.088 0 0 1 9.536 5.528 A 0.058 0.058 0 0 0 9.526 5.534 Q 9.515 5.544 9.515 5.556 A 0.017 0.017 0 0 0 9.516 5.561 A 0.014 0.014 0 0 0 9.522 5.569 Q 9.529 5.573 9.547 5.573 L 9.585 5.573 A 0.133 0.133 0 0 1 9.605 5.575 Q 9.616 5.576 9.624 5.58 A 0.059 0.059 0 0 1 9.639 5.588 A 0.048 0.048 0 0 1 9.656 5.618 A 0.071 0.071 0 0 1 9.657 5.631 A 0.07 0.07 0 0 1 9.653 5.655 Q 9.646 5.673 9.629 5.685 A 0.098 0.098 0 0 1 9.603 5.696 Q 9.579 5.704 9.545 5.704 Q 9.503 5.704 9.48 5.688 A 0.052 0.052 0 0 1 9.464 5.67 Q 9.458 5.66 9.457 5.647 A 0.069 0.069 0 0 1 9.457 5.644 Q 9.457 5.624 9.47 5.61 A 0.057 0.057 0 0 1 9.489 5.596 A 0.08 0.08 0 0 1 9.505 5.59 Q 9.497 5.587 9.491 5.579 A 0.03 0.03 0 0 1 9.486 5.563 A 0.037 0.037 0 0 1 9.486 5.561 A 0.037 0.037 0 0 1 9.488 5.549 A 0.033 0.033 0 0 1 9.492 5.54 A 0.047 0.047 0 0 1 9.498 5.533 Q 9.504 5.528 9.512 5.523 A 0.057 0.057 0 0 1 9.487 5.503 A 0.071 0.071 0 0 1 9.485 5.5 Q 9.474 5.483 9.474 5.462 A 0.094 0.094 0 0 1 9.477 5.44 A 0.062 0.062 0 0 1 9.495 5.408 A 0.069 0.069 0 0 1 9.522 5.393 Q 9.537 5.389 9.555 5.389 A 0.125 0.125 0 0 1 9.572 5.39 A 0.095 0.095 0 0 1 9.586 5.393 Z M 10.049 5.58 L 10.049 5.605 Q 10.044 5.608 10.033 5.609 Q 10.024 5.611 10.016 5.611 A 0.081 0.081 0 0 1 10.015 5.611 Q 9.965 5.611 9.955 5.569 A 0.102 0.102 0 0 1 9.953 5.546 L 9.953 5.418 L 9.922 5.418 L 9.922 5.402 L 9.953 5.389 L 9.966 5.343 L 9.985 5.343 L 9.985 5.393 L 10.047 5.393 L 10.047 5.418 L 9.985 5.418 L 9.985 5.544 A 0.066 0.066 0 0 0 9.986 5.556 Q 9.988 5.567 9.994 5.574 A 0.03 0.03 0 0 0 10.013 5.584 A 0.043 0.043 0 0 0 10.02 5.584 A 0.107 0.107 0 0 0 10.035 5.583 A 0.094 0.094 0 0 0 10.036 5.583 Q 10.041 5.582 10.045 5.581 Z M 9.343 5.391 L 9.338 5.421 A 0.143 0.143 0 0 0 9.328 5.419 Q 9.323 5.418 9.318 5.418 A 0.076 0.076 0 0 0 9.315 5.418 A 0.056 0.056 0 0 0 9.273 5.436 A 0.077 0.077 0 0 0 9.27 5.439 A 0.074 0.074 0 0 0 9.252 5.481 A 0.099 0.099 0 0 0 9.252 5.492 L 9.252 5.607 L 9.219 5.607 L 9.219 5.393 L 9.246 5.393 L 9.25 5.432 L 9.251 5.432 A 0.11 0.11 0 0 1 9.263 5.415 A 0.084 0.084 0 0 1 9.28 5.4 A 0.065 0.065 0 0 1 9.317 5.389 A 0.149 0.149 0 0 1 9.33 5.389 A 0.109 0.109 0 0 1 9.343 5.391 Z M 9.415 5.393 L 9.415 5.607 L 9.383 5.607 L 9.383 5.393 L 9.415 5.393 Z M 9.575 5.602 L 9.536 5.602 A 0.075 0.075 0 0 0 9.522 5.603 Q 9.515 5.605 9.509 5.608 A 0.038 0.038 0 0 0 9.501 5.613 A 0.034 0.034 0 0 0 9.49 5.632 A 0.052 0.052 0 0 0 9.489 5.643 A 0.033 0.033 0 0 0 9.491 5.655 Q 9.494 5.664 9.503 5.67 A 0.052 0.052 0 0 0 9.516 5.675 Q 9.528 5.679 9.545 5.679 A 0.219 0.219 0 0 0 9.567 5.678 Q 9.592 5.675 9.606 5.666 A 0.047 0.047 0 0 0 9.617 5.657 A 0.036 0.036 0 0 0 9.626 5.633 A 0.044 0.044 0 0 0 9.625 5.625 Q 9.623 5.614 9.615 5.609 A 0.031 0.031 0 0 0 9.608 5.606 Q 9.6 5.603 9.588 5.603 A 0.207 0.207 0 0 0 9.575 5.602 Z M 9.506 5.461 Q 9.506 5.484 9.519 5.495 A 0.042 0.042 0 0 0 9.536 5.505 Q 9.542 5.506 9.55 5.507 A 0.084 0.084 0 0 0 9.555 5.507 A 0.071 0.071 0 0 0 9.573 5.505 Q 9.594 5.499 9.6 5.478 A 0.066 0.066 0 0 0 9.602 5.461 A 0.07 0.07 0 0 0 9.6 5.442 Q 9.594 5.42 9.572 5.414 A 0.071 0.071 0 0 0 9.554 5.412 A 0.068 0.068 0 0 0 9.54 5.414 Q 9.532 5.415 9.525 5.42 A 0.037 0.037 0 0 0 9.519 5.425 A 0.039 0.039 0 0 0 9.509 5.441 Q 9.507 5.447 9.507 5.454 A 0.086 0.086 0 0 0 9.506 5.461 Z M 9.38 5.328 A 0.036 0.036 0 0 0 9.38 5.334 A 0.038 0.038 0 0 0 9.38 5.338 Q 9.381 5.341 9.381 5.344 A 0.017 0.017 0 0 0 9.386 5.351 A 0.018 0.018 0 0 0 9.392 5.355 A 0.021 0.021 0 0 0 9.399 5.356 Q 9.407 5.356 9.413 5.351 Q 9.418 5.345 9.418 5.334 Q 9.418 5.329 9.417 5.325 A 0.016 0.016 0 0 0 9.413 5.318 A 0.019 0.019 0 0 0 9.399 5.313 A 0.025 0.025 0 0 0 9.398 5.313 A 0.019 0.019 0 0 0 9.386 5.318 A 0.015 0.015 0 0 0 9.382 5.323 Q 9.381 5.325 9.38 5.328 Z" id="right_labelLayer" stroke="#777777" fill="#777777" style="stroke:#777777;fill:#777777" vector-effect="non-scaling-stroke"/><path d="M 12.953 20.004 L 12.953 19.77 L 13.773 19.77 L 13.773 20.004 L 13.775 20.006 L 14.603 20.006 L 14.605 20.004 L 14.605 19.77 L 15.425 19.77 L 15.425 20.004 L 15.427 20.006 L 16.255 20.006 L 16.257 20.004 L 16.257 19.77 L 17.077 19.77 L 17.077 20.004 L 17.079 20.006 L 17.907 20.006 L 17.909 20.004 L 17.909 19.77 L 19.03 19.77 L 19.032 19.768 L 19.032 19.419 L 19.266 19.419 L 19.268 19.417 L 19.268 18.589 L 19.266 18.587 L 19.032 18.587 L 19.032 18.238 L 19.03 18.236 L 17.909 18.236 L 17.909 18.002 L 17.907 18 L 17.079 18 L 17.077 18.002 L 17.077 18.236 L 16.257 18.236 L 16.257 18.002 L 16.255 18 L 15.427 18 L 15.425 18.002 L 15.425 18.236 L 14.605 18.236 L 14.605 18.002 L 14.603 18 L 13.775 18 L 13.773 18.002 L 13.773 18.236 L 12.953 18.236 L 12.953 18.002 L 12.951 18 L 12.123 18 L 12.121 18.002 L 12.121 18.236 L 11 18.236 L 10.998 18.238 L 10.998 18.587 L 10.764 18.587 L 10.762 18.589 L 10.762 19.417 L 10.764 19.419 L 10.998 19.419 L 10.998 19.768 L 11 19.77 L 12.121 19.77 L 12.121 20.004 L 12.123 20.006 L 12.951 20.006 L 12.953 20.004 Z" id="bottom_outsideCutPath" stroke="#FF0000" stroke-width="0.1" style="stroke:#FF0000;stroke-width:0.1" vector-effect="non-scaling-stroke"/><path d="M 15.675 19.153 L 15.642 19.153 L 15.642 19.014 A 0.096 0.096 0 0 0 15.641 19 Q 15.639 18.984 15.631 18.975 A 0.034 0.034 0 0 0 15.616 18.965 Q 15.61 18.963 15.603 18.963 A 0.076 0.076 0 0 0 15.597 18.962 Q 15.567 18.962 15.553 18.98 A 0.054 0.054 0 0 0 15.543 18.996 Q 15.541 19.004 15.539 19.014 A 0.143 0.143 0 0 0 15.538 19.033 L 15.538 19.153 L 15.506 19.153 L 15.506 19.014 A 0.096 0.096 0 0 0 15.505 19 Q 15.502 18.984 15.495 18.975 Q 15.484 18.962 15.46 18.962 A 0.081 0.081 0 0 0 15.444 18.964 Q 15.425 18.968 15.416 18.981 A 0.055 0.055 0 0 0 15.407 18.996 Q 15.401 19.013 15.401 19.041 L 15.401 19.153 L 15.369 19.153 L 15.369 18.939 L 15.395 18.939 L 15.401 18.968 L 15.402 18.968 A 0.064 0.064 0 0 1 15.428 18.944 A 0.077 0.077 0 0 1 15.459 18.935 A 0.093 0.093 0 0 1 15.466 18.935 A 0.106 0.106 0 0 1 15.49 18.937 Q 15.52 18.944 15.531 18.971 L 15.533 18.971 A 0.068 0.068 0 0 1 15.559 18.946 A 0.082 0.082 0 0 1 15.561 18.945 A 0.082 0.082 0 0 1 15.591 18.935 A 0.103 0.103 0 0 1 15.602 18.935 Q 15.627 18.935 15.643 18.943 A 0.054 0.054 0 0 1 15.657 18.954 A 0.056 0.056 0 0 1 15.669 18.973 Q 15.675 18.99 15.675 19.013 L 15.675 19.153 Z M 14.388 19.126 L 14.385 19.126 L 14.378 19.153 L 14.355 19.153 L 14.355 18.849 L 14.388 18.849 L 14.388 18.923 A 0.678 0.678 0 0 1 14.387 18.946 Q 14.387 18.956 14.386 18.966 A 0.413 0.413 0 0 1 14.386 18.967 L 14.388 18.967 A 0.074 0.074 0 0 1 14.442 18.936 A 0.111 0.111 0 0 1 14.455 18.935 A 0.099 0.099 0 0 1 14.483 18.939 A 0.074 0.074 0 0 1 14.521 18.964 Q 14.539 18.987 14.543 19.026 A 0.209 0.209 0 0 1 14.544 19.046 Q 14.544 19.099 14.52 19.128 Q 14.497 19.157 14.455 19.157 A 0.099 0.099 0 0 1 14.43 19.154 A 0.086 0.086 0 0 1 14.417 19.15 A 0.072 0.072 0 0 1 14.388 19.126 Z M 14.942 19.127 L 14.942 19.151 Q 14.937 19.154 14.926 19.156 Q 14.917 19.157 14.909 19.157 A 0.081 0.081 0 0 1 14.908 19.157 Q 14.858 19.157 14.848 19.116 A 0.102 0.102 0 0 1 14.846 19.092 L 14.846 18.964 L 14.815 18.964 L 14.815 18.948 L 14.846 18.935 L 14.859 18.889 L 14.878 18.889 L 14.878 18.939 L 14.94 18.939 L 14.94 18.964 L 14.878 18.964 L 14.878 19.09 A 0.066 0.066 0 0 0 14.879 19.102 Q 14.881 19.113 14.887 19.12 A 0.03 0.03 0 0 0 14.906 19.13 A 0.043 0.043 0 0 0 14.913 19.131 A 0.107 0.107 0 0 0 14.928 19.129 A 0.094 0.094 0 0 0 14.929 19.129 Q 14.934 19.128 14.938 19.128 Z M 15.084 19.127 L 15.084 19.151 Q 15.078 19.154 15.068 19.156 Q 15.058 19.157 15.051 19.157 A 0.081 0.081 0 0 1 15.049 19.157 Q 15 19.157 14.99 19.116 A 0.102 0.102 0 0 1 14.987 19.092 L 14.987 18.964 L 14.956 18.964 L 14.956 18.948 L 14.987 18.935 L 15.001 18.889 L 15.02 18.889 L 15.02 18.939 L 15.082 18.939 L 15.082 18.964 L 15.02 18.964 L 15.02 19.09 A 0.066 0.066 0 0 0 15.021 19.102 Q 15.023 19.113 15.029 19.12 A 0.03 0.03 0 0 0 15.047 19.13 A 0.043 0.043 0 0 0 15.054 19.131 A 0.107 0.107 0 0 0 15.07 19.129 A 0.094 0.094 0 0 0 15.071 19.129 Q 15.076 19.128 15.08 19.128 Z M 14.76 19.128 A 0.091 0.091 0 0 0 14.771 19.113 Q 14.786 19.086 14.786 19.046 A 0.191 0.191 0 0 0 14.786 19.041 Q 14.786 19.023 14.782 19.008 A 0.101 0.101 0 0 0 14.76 18.965 A 0.085 0.085 0 0 0 14.72 18.939 A 0.109 0.109 0 0 0 14.688 18.935 A 0.126 0.126 0 0 0 14.665 18.937 A 0.086 0.086 0 0 0 14.615 18.964 Q 14.598 18.984 14.592 19.013 A 0.169 0.169 0 0 0 14.589 19.046 A 0.163 0.163 0 0 0 14.591 19.072 A 0.12 0.12 0 0 0 14.601 19.105 A 0.107 0.107 0 0 0 14.603 19.11 A 0.088 0.088 0 0 0 14.636 19.144 Q 14.658 19.157 14.687 19.157 A 0.126 0.126 0 0 0 14.709 19.156 A 0.087 0.087 0 0 0 14.76 19.128 Z M 15.285 19.128 A 0.091 0.091 0 0 0 15.296 19.113 Q 15.312 19.086 15.312 19.046 A 0.191 0.191 0 0 0 15.312 19.041 Q 15.311 19.023 15.307 19.008 A 0.101 0.101 0 0 0 15.285 18.965 A 0.085 0.085 0 0 0 15.246 18.939 A 0.109 0.109 0 0 0 15.214 18.935 A 0.126 0.126 0 0 0 15.191 18.937 A 0.086 0.086 0 0 0 15.141 18.964 Q 15.123 18.984 15.117 19.013 A 0.169 0.169 0 0 0 15.115 19.046 A 0.163 0.163 0 0 0 15.117 19.072 A 0.12 0.12 0 0 0 15.127 19.105 A 0.107 0.107 0 0 0 15.129 19.11 A 0.088 0.088 0 0 0 15.161 19.144 Q 15.183 19.157 15.212 19.157 A 0.126 0.126 0 0 0 15.234 19.156 A 0.087 0.087 0 0 0 15.285 19.128 Z M 14.623 19.046 A 0.165 0.165 0 0 0 14.624 19.069 Q 14.626 19.081 14.63 19.091 A 0.068 0.068 0 0 0 14.639 19.109 A 0.053 0.053 0 0 0 14.674 19.129 A 0.081 0.081 0 0 0 14.687 19.13 A 0.076 0.076 0 0 0 14.707 19.128 A 0.053 0.053 0 0 0 14.736 19.109 A 0.07 0.07 0 0 0 14.747 19.088 Q 14.752 19.07 14.752 19.046 A 0.162 0.162 0 0 0 14.751 19.023 Q 14.747 18.998 14.736 18.984 Q 14.719 18.962 14.687 18.962 A 0.077 0.077 0 0 0 14.668 18.965 A 0.052 0.052 0 0 0 14.639 18.983 Q 14.627 18.998 14.624 19.024 A 0.172 0.172 0 0 0 14.623 19.046 Z M 15.148 19.046 A 0.165 0.165 0 0 0 15.15 19.069 Q 15.152 19.081 15.155 19.091 A 0.068 0.068 0 0 0 15.165 19.109 A 0.053 0.053 0 0 0 15.199 19.129 A 0.081 0.081 0 0 0 15.213 19.13 A 0.076 0.076 0 0 0 15.233 19.128 A 0.053 0.053 0 0 0 15.262 19.109 A 0.07 0.07 0 0 0 15.272 19.088 Q 15.278 19.07 15.278 19.046 A 0.162 0.162 0 0 0 15.277 19.023 Q 15.273 18.998 15.262 18.984 Q 15.245 18.962 15.213 18.962 A 0.077 0.077 0 0 0 15.193 18.965 A 0.052 0.052 0 0 0 15.164 18.983 Q 15.153 18.998 15.149 19.024 A 0.172 0.172 0 0 0 15.148 19.046 Z M 14.45 18.962 Q 14.417 18.962 14.402 18.982 A 0.056 0.056 0 0 0 14.394 18.997 Q 14.389 19.012 14.388 19.035 A 0.251 0.251 0 0 0 14.388 19.046 A 0.215 0.215 0 0 0 14.389 19.068 Q 14.391 19.091 14.398 19.104 A 0.049 0.049 0 0 0 14.403 19.111 Q 14.418 19.13 14.451 19.13 A 0.065 0.065 0 0 0 14.469 19.128 A 0.047 0.047 0 0 0 14.496 19.108 Q 14.506 19.093 14.509 19.067 A 0.186 0.186 0 0 0 14.51 19.046 Q 14.51 19.004 14.496 18.983 A 0.047 0.047 0 0 0 14.465 18.964 A 0.075 0.075 0 0 0 14.45 18.962 Z" id="bottom_labelLayer" stroke="#777777" fill="#777777" style="stroke:#777777;fill:#777777" vector-effect="non-scaling-stroke"/></g></svg>