<?xml version="1.0" encoding="utf-8"?>
<!-- Generator: Adobe Illustrator 22.1.0, SVG Export Plug-In . SVG Version: 6.00 Build 0)  -->
<svg version="1.1" id="Layer_1" xmlns="http://www.w3.org/2000/svg" xmlns:xlink="http://www.w3.org/1999/xlink" x="0px" y="0px"
	 viewBox="0 0 2251.3 939.5" style="enable-background:new 0 0 2251.3 939.5;" xml:space="preserve">
<style type="text/css">
	.st0{fill:none;stroke:#FF0000;stroke-width:0.1;stroke-linecap:round;}
	.st1{fill:none;stroke:#FF0000;stroke-width:1.000000e-03;stroke-linecap:round;}
</style>
<g id="svgGroup">
	<path id="front_outsideCutPath" vector-effect="non-scaling-stroke" class="st0" d="M-1893,633.3v-16.8h50.5v16.8l0.1,0.1h51.1
		l0.1-0.1v-16.8h50.5v16.8l0.1,0.1h51.1l0.1-0.1v-16.8h50.5v16.8l0.1,0.1h51.1l0.1-0.1v-16.8h50.5v16.8l0.1,0.1h51.1l0.1-0.1v-16.8
		h50.5v16.8l0.1,0.1h40.8l0.1-0.1v-79.2l-0.1-0.1h-16.8v-50.5h16.8l0.1-0.1v-51.1l-0.1-0.1h-16.8v-50.5h16.8l0.1-0.1v-51.1l-0.1-0.1
		h-16.8v-50.5h16.8l0.1-0.1v-51.1l-0.1-0.1h-16.8v-50.5h16.8l0.1-0.1v-51.1l-0.1-0.1h-16.8V95.6h16.8l0.1-0.1V44.4l-0.1-0.1h-16.8
		V-6.3h16.8l0.1-0.1v-51.1l-0.1-0.1h-16.8v-50.5h16.8l0.1-0.1v-79.2l-0.1-0.1h-40.8l-0.1,0.1v16.8h-50.5v-16.8l-0.1-0.1h-51.1
		l-0.1,0.1v16.8h-50.5v-16.8l-0.1-0.1h-51.1l-0.1,0.1v16.8h-50.5v-16.8l-0.1-0.1h-51.1l-0.1,0.1v16.8h-50.5v-16.8l-0.1-0.1h-51.1
		l-0.1,0.1v16.8h-50.5v-16.8l-0.1-0.1h-40.8l-0.1,0.1v79.2l0.1,0.1h16.8v50.5h-16.8l-0.1,0.1v51.1l0.1,0.1h16.8v50.5h-16.8l-0.1,0.1
		v51.1l0.1,0.1h16.8v50.5h-16.8l-0.1,0.1v51.1l0.1,0.1h16.8v50.5h-16.8l-0.1,0.1v51.1l0.1,0.1h16.8v50.5h-16.8l-0.1,0.1v51.1
		l0.1,0.1h16.8V452h-16.8l-0.1,0.1v51.1l0.1,0.1h16.8V554h-16.8l-0.1,0.1v79.2l0.1,0.1h40.8L-1893,633.3z"/>
	<path id="left_outsideCutPath" vector-effect="non-scaling-stroke" class="st0" d="M-1355.6,633.3v-16.8h50.5v16.8l0.1,0.1h11.7
		l0.1-0.1v-78.9h16.8l0.1-0.1v-51.1l-0.1-0.1h-16.8v-50.5h16.8l0.1-0.1v-51.1l-0.1-0.1h-16.8v-50.5h16.8l0.1-0.1v-51.1l-0.1-0.1
		h-16.8v-50.5h16.8l0.1-0.1v-51.1l-0.1-0.1h-16.8v-50.5h16.8l0.1-0.1V95.3l-0.1-0.1h-16.8V44.6h16.8l0.1-0.1V-6.6l-0.1-0.1h-16.8
		v-50.5h16.8l0.1-0.1v-51.1l-0.1-0.1h-16.8v-78.9l-0.1-0.1h-11.7l-0.1,0.1v16.8h-50.5v-16.8l-0.1-0.1h-11.7l-0.1,0.1v78.9h-16.8
		l-0.1,0.1v51.1l0.1,0.1h16.8v50.5h-16.8l-0.1,0.1v51.1l0.1,0.1h16.8v50.5h-16.8l-0.1,0.1v51.1l0.1,0.1h16.8v50.5h-16.8l-0.1,0.1
		v51.1l0.1,0.1h16.8v50.5h-16.8l-0.1,0.1v51.1l0.1,0.1h16.8V401h-16.8l-0.1,0.1v51.1l0.1,0.1h16.8V503h-16.8l-0.1,0.1v51.1l0.1,0.1
		h16.8v78.9l0.1,0.1h11.7L-1355.6,633.3z"/>
	<path id="top_outsideCutPath" vector-effect="non-scaling-stroke" class="st0" d="M-1175.1,633.3v-16.8h50.5v16.8l0.1,0.1h51.1
		l0.1-0.1v-16.8h50.5v16.8l0.1,0.1h51.1l0.1-0.1v-16.8h50.5v16.8l0.1,0.1h51.1l0.1-0.1v-16.8h50.5v16.8l0.1,0.1h51.1l0.1-0.1v-16.8
		h23.5l0.1-0.1V605h16.8l0.1-0.1v-51.1l-0.1-0.1h-16.8v-11.4l-0.1-0.1h-23.5v-16.8l-0.1-0.1h-51.1l-0.1,0.1V542h-50.5v-16.8
		l-0.1-0.1h-51.1l-0.1,0.1V542h-50.5v-16.8l-0.1-0.1h-51.1l-0.1,0.1V542h-50.5v-16.8l-0.1-0.1h-51.1l-0.1,0.1V542h-50.5v-16.8
		l-0.1-0.1h-51.1l-0.1,0.1V542h-23.5l-0.1,0.1v11.4h-16.8l-0.1,0.1v51.1l0.1,0.1h16.8v11.4l0.1,0.1h23.5v16.8l0.1,0.1h51.1
		L-1175.1,633.3z"/>
	<path id="back_outsideCutPath" vector-effect="non-scaling-stroke" class="st0" d="M-1893-196.9v-16.8h50.5v16.8l0.1,0.1h51.1
		l0.1-0.1v-16.8h50.5v16.8l0.1,0.1h51.1l0.1-0.1v-16.8h50.5v16.8l0.1,0.1h51.1l0.1-0.1v-16.8h50.5v16.8l0.1,0.1h51.1l0.1-0.1v-16.8
		h50.5v16.8l0.1,0.1h40.8l0.1-0.1v-79.2l-0.1-0.1h-16.8v-50.5h16.8l0.1-0.1v-51.1l-0.1-0.1h-16.8v-50.5h16.8l0.1-0.1V-480l-0.1-0.1
		h-16.8v-50.5h16.8l0.1-0.1V-582l-0.1-0.1h-16.8v-50.5h16.8l0.1-0.1v-51.1l-0.1-0.1h-16.8v-50.5h16.8l0.1-0.1v-51.1l-0.1-0.1h-16.8
		v-50.5h16.8l0.1-0.1v-51.1l-0.1-0.1h-16.8v-50.5h16.8l0.1-0.1v-79.2l-0.1-0.1h-40.8l-0.1,0.1v16.8h-50.5v-16.8l-0.1-0.1h-51.1
		l-0.1,0.1v16.8h-50.5v-16.8l-0.1-0.1h-51.1l-0.1,0.1v16.8h-50.5v-16.8l-0.1-0.1h-51.1l-0.1,0.1v16.8h-50.5v-16.8l-0.1-0.1h-51.1
		l-0.1,0.1v16.8h-50.5v-16.8l-0.1-0.1h-40.8l-0.1,0.1v79.2l0.1,0.1h16.8v50.5h-16.8l-0.1,0.1v51.1l0.1,0.1h16.8v50.5h-16.8l-0.1,0.1
		v51.1l0.1,0.1h16.8v50.5h-16.8l-0.1,0.1v51.1l0.1,0.1h16.8v50.5h-16.8l-0.1,0.1v51.1l0.1,0.1h16.8v50.5h-16.8l-0.1,0.1v51.1
		l0.1,0.1h16.8v50.5h-16.8l-0.1,0.1v51.1l0.1,0.1h16.8v50.5h-16.8l-0.1,0.1v79.2l0.1,0.1h40.8L-1893-196.9z"/>
	<path id="right_outsideCutPath" vector-effect="non-scaling-stroke" class="st0" d="M-1355.6-196.9v-16.8h50.5v16.8l0.1,0.1h11.7
		l0.1-0.1v-78.9h16.8l0.1-0.1v-51.1l-0.1-0.1h-16.8v-50.5h16.8l0.1-0.1V-429l-0.1-0.1h-16.8v-50.5h16.8l0.1-0.1V-531l-0.1-0.1h-16.8
		v-50.5h16.8l0.1-0.1v-51.1l-0.1-0.1h-16.8v-50.5h16.8l0.1-0.1v-51.1l-0.1-0.1h-16.8v-50.5h16.8l0.1-0.1v-51.1l-0.1-0.1h-16.8v-50.5
		h16.8l0.1-0.1v-51.1l-0.1-0.1h-16.8v-78.9l-0.1-0.1h-11.7l-0.1,0.1v16.8h-50.5v-16.8l-0.1-0.1h-11.7l-0.1,0.1v78.9h-16.8l-0.1,0.1
		v51.1l0.1,0.1h16.8v50.5h-16.8l-0.1,0.1v51.1l0.1,0.1h16.8v50.5h-16.8l-0.1,0.1v51.1l0.1,0.1h16.8v50.5h-16.8l-0.1,0.1v51.1
		l0.1,0.1h16.8v50.5h-16.8l-0.1,0.1v51.1l0.1,0.1h16.8v50.5h-16.8l-0.1,0.1v51.1l0.1,0.1h16.8v50.5h-16.8l-0.1,0.1v51.1l0.1,0.1
		h16.8v78.9l0.1,0.1h11.7L-1355.6-196.9z"/>
	<path id="bottom_outsideCutPath" vector-effect="non-scaling-stroke" class="st0" d="M-1175.1,515.9V499h50.5v16.8l0.1,0.1h51.1
		l0.1-0.1V499h50.5v16.8l0.1,0.1h51.1l0.1-0.1V499h50.5v16.8l0.1,0.1h51.1l0.1-0.1V499h50.5v16.8l0.1,0.1h51.1l0.1-0.1V499h23.5
		l0.1-0.1v-11.4h16.8l0.1-0.1v-51.1l-0.1-0.1h-16.8v-11.4l-0.1-0.1h-23.5v-16.8l-0.1-0.1h-51.1l-0.1,0.1v16.8h-50.5v-16.8l-0.1-0.1
		h-51.1l-0.1,0.1v16.8h-50.5v-16.8l-0.1-0.1h-51.1l-0.1,0.1v16.8h-50.5v-16.8l-0.1-0.1h-51.1l-0.1,0.1v16.8h-50.5v-16.8l-0.1-0.1
		h-51.1l-0.1,0.1v16.8h-23.5l-0.1,0.1v11.4h-16.8l-0.1,0.1v51.1l0.1,0.1h16.8v11.4l0.1,0.1h23.5v16.8l0.1,0.1h51.1L-1175.1,515.9z"
		/>
</g>
<g id="svgGroup_1_">
	<path id="top_outsideCutPath_1_" vector-effect="non-scaling-stroke" class="st0" d="M9.3,100.3h16.8v50.5H9.3L9.1,151v51.1
		l0.1,0.1h16.8v50.5H9.3L9.1,253v51.1l0.1,0.1h16.8v50.5H9.3l-0.1,0.1V406l0.1,0.1h16.8v50.5H9.3l-0.1,0.1V508l0.1,0.1h16.8v23.5
		l0.1,0.1h11.4v16.8l0.1,0.1h51.1l0.1-0.1v-16.8h11.4l0.1-0.1v-23.5h16.8l0.1-0.1v-51.1l-0.1-0.1h-16.8v-50.5h16.8l0.1-0.1v-51.1
		l-0.1-0.1h-16.8v-50.5h16.8l0.1-0.1V253l-0.1-0.1h-16.8v-50.5h16.8l0.1-0.1V151l-0.1-0.1h-16.8v-50.5h16.8l0.1-0.1V49.1l-0.1-0.1
		h-16.8V25.4l-0.1-0.1H89.1V8.4l-0.1-0.1H37.8l-0.1,0.1v16.8H26.3l-0.1,0.1v23.5H9.3l-0.1,0.1v51.1L9.3,100.3z"/>
	<path id="bottom_outsideCutPath_1_" vector-effect="non-scaling-stroke" class="st0" d="M126.7,100.3h16.8v50.5h-16.8l-0.1,0.1
		v51.1l0.1,0.1h16.8v50.5h-16.8l-0.1,0.1v51.1l0.1,0.1h16.8v50.5h-16.8l-0.1,0.1V406l0.1,0.1h16.8v50.5h-16.8l-0.1,0.1V508l0.1,0.1
		h16.8v23.5l0.1,0.1h11.4v16.8l0.1,0.1h51.1l0.1-0.1v-16.8h11.4l0.1-0.1v-23.5h16.8l0.1-0.1v-51.1l-0.1-0.1H218v-50.5h16.8l0.1-0.1
		v-51.1l-0.1-0.1H218v-50.5h16.8l0.1-0.1V253l-0.1-0.1H218v-50.5h16.8l0.1-0.1V151l-0.1-0.1H218v-50.5h16.8l0.1-0.1V49.1l-0.1-0.1
		H218V25.4l-0.1-0.1h-11.4V8.4l-0.1-0.1h-51.1l-0.1,0.1v16.8h-11.4l-0.1,0.1v23.5h-16.8l-0.1,0.1v51.1L126.7,100.3z"/>
</g>
<g id="svgGroup_2_">
	<path id="top_outsideCutPath_2_" vector-effect="non-scaling-stroke" class="st0" d="M-769.7,354.8v-11.5h17v-51h-17v-11.5h-23.6
		v-17h-51v17h-51v-17h-51v17h-51v-17h-51v17h-51v-17h-51v17h-51v-17h-51v17h-23.6v11.5h-17v51h17v11.5h23.6v17h51v-17h51v17h51v-17
		h51v17h51v-17h51v17h51v-17h51v17h51v-17H-769.7z"/>
	<path id="bottom_outsideCutPath_2_" vector-effect="non-scaling-stroke" class="st0" d="M-769.7,471.8v-11.5h17v-51h-17v-11.5
		h-23.6v-17h-51v17h-51v-17h-51v17h-51v-17h-51v17h-51v-17h-51v17h-51v-17h-51v17h-23.6v11.5h-17v51h17v11.5h23.6v17h51v-17h51v17
		h51v-17h51v17h51v-17h51v17h51v-17h51v17h51v-17H-769.7z"/>
</g>
<g id="svgGroup_4_">
	<path id="top_outsideCutPath_4_" vector-effect="non-scaling-stroke" class="st0" d="M722.9-1014.7v-16.8h50.5v16.8l0.1,0.1h51.1
		l0.1-0.1v-16.8h50.5v16.8l0.1,0.1h51.1l0.1-0.1v-16.8h50.5v16.8l0.1,0.1h51.1l0.1-0.1v-16.8h50.5v16.8l0.1,0.1h51.1l0.1-0.1v-16.8
		h23.5l0.1-0.1v-11.4h16.8l0.1-0.1v-51.1l-0.1-0.1h-16.8v-11.4l-0.1-0.1h-23.5v-16.8l-0.1-0.1h-51.1l-0.1,0.1v16.8h-50.5v-16.8
		l-0.1-0.1h-51.1l-0.1,0.1v16.8h-50.5v-16.8l-0.1-0.1h-51.1l-0.1,0.1v16.8h-50.5v-16.8l-0.1-0.1h-51.1l-0.1,0.1v16.8h-50.5v-16.8
		l-0.1-0.1h-51.1l-0.1,0.1v16.8H648l-0.1,0.1v11.4H631l-0.1,0.1v51.1l0.1,0.1h16.8v11.4l0.1,0.1h23.5v16.8l0.1,0.1h51.1
		L722.9-1014.7z"/>
	<path id="back_outsideCutPath_2_" vector-effect="non-scaling-stroke" class="st0" d="M55-164.9v-16.8h50.5v16.8l0.1,0.1h51.1
		l0.1-0.1v-16.8h50.5v16.8l0.1,0.1h51.1l0.1-0.1v-16.8h50.5v16.8l0.1,0.1h51.1l0.1-0.1v-16.8h50.5v16.8l0.1,0.1h51.1l0.1-0.1v-16.8
		h50.5v16.8l0.1,0.1h40.8l0.1-0.1v-79.2l-0.1-0.1h-16.8v-50.5h16.8l0.1-0.1v-51.1l-0.1-0.1h-16.8v-50.5h16.8l0.1-0.1V-448l-0.1-0.1
		h-16.8v-50.5h16.8l0.1-0.1V-550l-0.1-0.1h-16.8v-50.5h16.8l0.1-0.1v-51.1l-0.1-0.1h-16.8v-50.5h16.8l0.1-0.1v-51.1l-0.1-0.1h-16.8
		v-50.5h16.8l0.1-0.1v-51.1l-0.1-0.1h-16.8v-50.5h16.8l0.1-0.1v-79.2l-0.1-0.1h-40.8l-0.1,0.1v16.8h-50.5v-16.8l-0.1-0.1h-51.1
		l-0.1,0.1v16.8h-50.5v-16.8l-0.1-0.1h-51.1l-0.1,0.1v16.8h-50.5v-16.8l-0.1-0.1h-51.1l-0.1,0.1v16.8H157v-16.8l-0.1-0.1h-51.1
		l-0.1,0.1v16.8H55v-16.8l-0.1-0.1H14.1l-0.1,0.1v79.2l0.1,0.1H31v50.5H14.1l-0.1,0.1v51.1l0.1,0.1H31v50.5H14.1l-0.1,0.1v51.1
		l0.1,0.1H31v50.5H14.1l-0.1,0.1v51.1l0.1,0.1H31v50.5H14.1L14-550v51.1l0.1,0.1H31v50.5H14.1L14-448v51.1l0.1,0.1H31v50.5H14.1
		l-0.1,0.1v51.1l0.1,0.1H31v50.5H14.1l-0.1,0.1v79.2l0.1,0.1h40.8L55-164.9z"/>
	<path id="bottom_outsideCutPath_4_" vector-effect="non-scaling-stroke" class="st0" d="M722.9-1132.1v-16.8h50.5v16.8l0.1,0.1
		h51.1l0.1-0.1v-16.8h50.5v16.8l0.1,0.1h51.1l0.1-0.1v-16.8h50.5v16.8l0.1,0.1h51.1l0.1-0.1v-16.8h50.5v16.8l0.1,0.1h51.1l0.1-0.1
		v-16.8h23.5l0.1-0.1v-11.4h16.8l0.1-0.1v-51.1l-0.1-0.1h-16.8v-11.4l-0.1-0.1h-23.5v-16.8l-0.1-0.1h-51.1l-0.1,0.1v16.8h-50.5
		v-16.8l-0.1-0.1h-51.1l-0.1,0.1v16.8h-50.5v-16.8l-0.1-0.1h-51.1l-0.1,0.1v16.8h-50.5v-16.8l-0.1-0.1h-51.1l-0.1,0.1v16.8h-50.5
		v-16.8l-0.1-0.1h-51.1l-0.1,0.1v16.8H648l-0.1,0.1v11.4H631l-0.1,0.1v51.1l0.1,0.1h16.8v11.4l0.1,0.1h23.5v16.8l0.1,0.1h51.1
		L722.9-1132.1z"/>
</g>
<rect x="437" y="-289" transform="matrix(-1.836970e-16 1 -1 -1.836970e-16 234.7878 -711.205)" class="st1" width="72" height="101.5"/>
<text transform="matrix(1 0 0 1 921.5376 -1110.4264)" style="font-family:'MyriadPro-Regular'; font-size:12px;">.003 kerf </text>
<path id="left_outsideCutPath_1_" vector-effect="non-scaling-stroke" class="st0" d="M-164.7,781.5v-16.8h50.5v16.8l0.1,0.1h11.7
	l0.1-0.1v-78.9h16.8l0.1-0.1v-51.1l-0.1-0.1h-16.8v-50.5h16.8l0.1-0.1v-51.1l-0.1-0.1h-16.8v-50.5h16.8l0.1-0.1v-51.1l-0.1-0.1
	h-16.8v-50.5h16.8l0.1-0.1v-51.1l-0.1-0.1h-16.8v-50.5h16.8l0.1-0.1v-51.1l-0.1-0.1h-16.8v-50.5h16.8l0.1-0.1v-51.1l-0.1-0.1h-16.8
	V90.8h16.8l0.1-0.1V39.6l-0.1-0.1h-16.8v-78.9l-0.1-0.1h-11.7l-0.1,0.1v16.8h-50.5v-16.8l-0.1-0.1h-11.7l-0.1,0.1v78.9h-16.8
	l-0.1,0.1v51.1l0.1,0.1h16.8v50.5h-16.8l-0.1,0.1v51.1l0.1,0.1h16.8v50.5h-16.8l-0.1,0.1v51.1l0.1,0.1h16.8v50.5h-16.8l-0.1,0.1
	v51.1l0.1,0.1h16.8v50.5h-16.8l-0.1,0.1v51.1l0.1,0.1h16.8v50.5h-16.8l-0.1,0.1v51.1l0.1,0.1h16.8v50.5h-16.8l-0.1,0.1v51.1l0.1,0.1
	h16.8v78.9l0.1,0.1h11.7L-164.7,781.5z"/>
<path id="right_outsideCutPath_1_" vector-effect="non-scaling-stroke" class="st0" d="M-290.5,782.2v-16.8h50.5v16.8l0.1,0.1h11.7
	l0.1-0.1v-78.9h16.8l0.1-0.1V652l-0.1-0.1H-228v-50.5h16.8l0.1-0.1v-51.1l-0.1-0.1H-228v-50.5h16.8l0.1-0.1v-51.1l-0.1-0.1H-228
	v-50.5h16.8l0.1-0.1v-51.1l-0.1-0.1H-228v-50.5h16.8l0.1-0.1v-51.1l-0.1-0.1H-228v-50.5h16.8l0.1-0.1v-51.1l-0.1-0.1H-228V91.6h16.8
	l0.1-0.1V40.3l-0.1-0.1H-228v-78.9l-0.1-0.1h-11.7l-0.1,0.1v16.8h-50.5v-16.8l-0.1-0.1h-11.7l-0.1,0.1v78.9h-16.8l-0.1,0.1v51.1
	l0.1,0.1h16.8v50.5h-16.8l-0.1,0.1v51.1l0.1,0.1h16.8v50.5h-16.8l-0.1,0.1v51.1l0.1,0.1h16.8V346h-16.8l-0.1,0.1v51.1l0.1,0.1h16.8
	V448h-16.8l-0.1,0.1v51.1l0.1,0.1h16.8V550h-16.8l-0.1,0.1v51.1l0.1,0.1h16.8v50.5h-16.8l-0.1,0.1v51.1l0.1,0.1h16.8v78.9l0.1,0.1
	h11.7L-290.5,782.2z"/>
</svg>
