<?xml version="1.0" encoding="utf-8"?>
<!-- Generator: Adobe Illustrator 22.1.0, SVG Export Plug-In . SVG Version: 6.00 Build 0)  -->
<svg version="1.1" id="Layer_1" xmlns="http://www.w3.org/2000/svg" xmlns:xlink="http://www.w3.org/1999/xlink" x="0px" y="0px"
	 viewBox="0 0 2251.3 939.5" style="enable-background:new 0 0 2251.3 939.5;" xml:space="preserve">
<style type="text/css">
	.st0{fill:none;stroke:#FF0000;stroke-width:0.1;stroke-linecap:round;}
	.st1{fill:none;stroke:#FF0000;stroke-width:1.000000e-03;stroke-linecap:round;}
</style>
<g id="svgGroup">
	<path id="front_outsideCutPath" vector-effect="non-scaling-stroke" class="st0" d="M-1213,633.3v-16.8h50.5v16.8l0.1,0.1h51.1
		l0.1-0.1v-16.8h50.5v16.8l0.1,0.1h51.1l0.1-0.1v-16.8h50.5v16.8l0.1,0.1h51.1l0.1-0.1v-16.8h50.5v16.8l0.1,0.1h51.1l0.1-0.1v-16.8
		h50.5v16.8l0.1,0.1h40.8l0.1-0.1v-79.2l-0.1-0.1h-16.8v-50.5h16.8l0.1-0.1v-51.1l-0.1-0.1h-16.8v-50.5h16.8l0.1-0.1v-51.1l-0.1-0.1
		h-16.8v-50.5h16.8l0.1-0.1v-51.1l-0.1-0.1h-16.8v-50.5h16.8l0.1-0.1v-51.1l-0.1-0.1h-16.8V95.6h16.8l0.1-0.1V44.4l-0.1-0.1h-16.8
		V-6.3h16.8l0.1-0.1v-51.1l-0.1-0.1h-16.8v-50.5h16.8l0.1-0.1v-79.2l-0.1-0.1h-40.8l-0.1,0.1v16.8h-50.5v-16.8l-0.1-0.1h-51.1
		l-0.1,0.1v16.8h-50.5v-16.8l-0.1-0.1h-51.1l-0.1,0.1v16.8h-50.5v-16.8l-0.1-0.1h-51.1l-0.1,0.1v16.8h-50.5v-16.8l-0.1-0.1h-51.1
		l-0.1,0.1v16.8h-50.5v-16.8l-0.1-0.1h-40.8l-0.1,0.1v79.2l0.1,0.1h16.8v50.5h-16.8l-0.1,0.1v51.1l0.1,0.1h16.8v50.5h-16.8l-0.1,0.1
		v51.1l0.1,0.1h16.8v50.5h-16.8l-0.1,0.1v51.1l0.1,0.1h16.8v50.5h-16.8l-0.1,0.1v51.1l0.1,0.1h16.8v50.5h-16.8l-0.1,0.1v51.1
		l0.1,0.1h16.8V452h-16.8l-0.1,0.1v51.1l0.1,0.1h16.8V554h-16.8l-0.1,0.1v79.2l0.1,0.1h40.8L-1213,633.3z"/>
	<path id="left_outsideCutPath" vector-effect="non-scaling-stroke" class="st0" d="M-675.6,633.3v-16.8h50.5v16.8l0.1,0.1h11.7
		l0.1-0.1v-78.9h16.8l0.1-0.1v-51.1l-0.1-0.1h-16.8v-50.5h16.8l0.1-0.1v-51.1l-0.1-0.1h-16.8v-50.5h16.8l0.1-0.1v-51.1l-0.1-0.1
		h-16.8v-50.5h16.8l0.1-0.1v-51.1l-0.1-0.1h-16.8v-50.5h16.8l0.1-0.1V95.3l-0.1-0.1h-16.8V44.6h16.8l0.1-0.1V-6.6l-0.1-0.1h-16.8
		v-50.5h16.8l0.1-0.1v-51.1l-0.1-0.1h-16.8v-78.9l-0.1-0.1h-11.7l-0.1,0.1v16.8h-50.5v-16.8l-0.1-0.1h-11.7l-0.1,0.1v78.9h-16.8
		l-0.1,0.1v51.1l0.1,0.1h16.8v50.5h-16.8l-0.1,0.1v51.1l0.1,0.1h16.8v50.5h-16.8l-0.1,0.1v51.1l0.1,0.1h16.8v50.5h-16.8l-0.1,0.1
		v51.1l0.1,0.1h16.8v50.5h-16.8l-0.1,0.1v51.1l0.1,0.1h16.8V401h-16.8l-0.1,0.1v51.1l0.1,0.1h16.8V503h-16.8l-0.1,0.1v51.1l0.1,0.1
		h16.8v78.9l0.1,0.1h11.7L-675.6,633.3z"/>
	<path id="top_outsideCutPath" vector-effect="non-scaling-stroke" class="st0" d="M-495.1,633.3v-16.8h50.5v16.8l0.1,0.1h51.1
		l0.1-0.1v-16.8h50.5v16.8l0.1,0.1h51.1l0.1-0.1v-16.8h50.5v16.8l0.1,0.1h51.1l0.1-0.1v-16.8h50.5v16.8l0.1,0.1h51.1l0.1-0.1v-16.8
		h23.5l0.1-0.1V605h16.8l0.1-0.1v-51.1l-0.1-0.1h-16.8v-11.4l-0.1-0.1h-23.5v-16.8l-0.1-0.1h-51.1l-0.1,0.1V542h-50.5v-16.8
		l-0.1-0.1h-51.1l-0.1,0.1V542h-50.5v-16.8l-0.1-0.1h-51.1l-0.1,0.1V542h-50.5v-16.8l-0.1-0.1h-51.1l-0.1,0.1V542h-50.5v-16.8
		l-0.1-0.1h-51.1l-0.1,0.1V542H-570l-0.1,0.1v11.4H-587l-0.1,0.1v51.1l0.1,0.1h16.8v11.4l0.1,0.1h23.5v16.8l0.1,0.1h51.1
		L-495.1,633.3z"/>
	<path id="back_outsideCutPath" vector-effect="non-scaling-stroke" class="st0" d="M-1213-196.9v-16.8h50.5v16.8l0.1,0.1h51.1
		l0.1-0.1v-16.8h50.5v16.8l0.1,0.1h51.1l0.1-0.1v-16.8h50.5v16.8l0.1,0.1h51.1l0.1-0.1v-16.8h50.5v16.8l0.1,0.1h51.1l0.1-0.1v-16.8
		h50.5v16.8l0.1,0.1h40.8l0.1-0.1v-79.2l-0.1-0.1h-16.8v-50.5h16.8l0.1-0.1v-51.1l-0.1-0.1h-16.8v-50.5h16.8l0.1-0.1V-480l-0.1-0.1
		h-16.8v-50.5h16.8l0.1-0.1V-582l-0.1-0.1h-16.8v-50.5h16.8l0.1-0.1v-51.1l-0.1-0.1h-16.8v-50.5h16.8l0.1-0.1v-51.1l-0.1-0.1h-16.8
		v-50.5h16.8l0.1-0.1v-51.1l-0.1-0.1h-16.8v-50.5h16.8l0.1-0.1v-79.2l-0.1-0.1h-40.8l-0.1,0.1v16.8h-50.5v-16.8l-0.1-0.1h-51.1
		l-0.1,0.1v16.8h-50.5v-16.8l-0.1-0.1h-51.1l-0.1,0.1v16.8h-50.5v-16.8l-0.1-0.1h-51.1l-0.1,0.1v16.8h-50.5v-16.8l-0.1-0.1h-51.1
		l-0.1,0.1v16.8h-50.5v-16.8l-0.1-0.1h-40.8l-0.1,0.1v79.2l0.1,0.1h16.8v50.5h-16.8l-0.1,0.1v51.1l0.1,0.1h16.8v50.5h-16.8l-0.1,0.1
		v51.1l0.1,0.1h16.8v50.5h-16.8l-0.1,0.1v51.1l0.1,0.1h16.8v50.5h-16.8l-0.1,0.1v51.1l0.1,0.1h16.8v50.5h-16.8l-0.1,0.1v51.1
		l0.1,0.1h16.8v50.5h-16.8l-0.1,0.1v51.1l0.1,0.1h16.8v50.5h-16.8l-0.1,0.1v79.2l0.1,0.1h40.8L-1213-196.9z"/>
	<path id="right_outsideCutPath" vector-effect="non-scaling-stroke" class="st0" d="M-675.6-196.9v-16.8h50.5v16.8l0.1,0.1h11.7
		l0.1-0.1v-78.9h16.8l0.1-0.1v-51.1l-0.1-0.1h-16.8v-50.5h16.8l0.1-0.1V-429l-0.1-0.1h-16.8v-50.5h16.8l0.1-0.1V-531l-0.1-0.1h-16.8
		v-50.5h16.8l0.1-0.1v-51.1l-0.1-0.1h-16.8v-50.5h16.8l0.1-0.1v-51.1l-0.1-0.1h-16.8v-50.5h16.8l0.1-0.1v-51.1l-0.1-0.1h-16.8v-50.5
		h16.8l0.1-0.1v-51.1l-0.1-0.1h-16.8v-78.9l-0.1-0.1h-11.7l-0.1,0.1v16.8h-50.5v-16.8l-0.1-0.1h-11.7l-0.1,0.1v78.9h-16.8l-0.1,0.1
		v51.1l0.1,0.1h16.8v50.5h-16.8l-0.1,0.1v51.1l0.1,0.1h16.8v50.5h-16.8l-0.1,0.1v51.1l0.1,0.1h16.8v50.5h-16.8l-0.1,0.1v51.1
		l0.1,0.1h16.8v50.5h-16.8l-0.1,0.1v51.1l0.1,0.1h16.8v50.5h-16.8l-0.1,0.1v51.1l0.1,0.1h16.8v50.5h-16.8l-0.1,0.1v51.1l0.1,0.1
		h16.8v78.9l0.1,0.1h11.7L-675.6-196.9z"/>
	<path id="bottom_outsideCutPath" vector-effect="non-scaling-stroke" class="st0" d="M-495.1,515.9V499h50.5v16.8l0.1,0.1h51.1
		l0.1-0.1V499h50.5v16.8l0.1,0.1h51.1l0.1-0.1V499h50.5v16.8l0.1,0.1h51.1l0.1-0.1V499h50.5v16.8l0.1,0.1h51.1l0.1-0.1V499h23.5
		l0.1-0.1v-11.4h16.8l0.1-0.1v-51.1l-0.1-0.1h-16.8v-11.4l-0.1-0.1h-23.5v-16.8l-0.1-0.1h-51.1l-0.1,0.1v16.8h-50.5v-16.8l-0.1-0.1
		h-51.1l-0.1,0.1v16.8h-50.5v-16.8l-0.1-0.1h-51.1l-0.1,0.1v16.8h-50.5v-16.8l-0.1-0.1h-51.1l-0.1,0.1v16.8h-50.5v-16.8l-0.1-0.1
		h-51.1l-0.1,0.1v16.8H-570l-0.1,0.1v11.4H-587l-0.1,0.1v51.1l0.1,0.1h16.8v11.4l0.1,0.1h23.5v16.8l0.1,0.1h51.1L-495.1,515.9z"/>
</g>
<g id="svgGroup_1_">
	<path id="top_outsideCutPath_1_" vector-effect="non-scaling-stroke" class="st0" d="M118.9,241.3v-16.8h50.5v16.8l0.1,0.1h51.1
		l0.1-0.1v-16.8h50.5v16.8l0.1,0.1h51.1l0.1-0.1v-16.8h50.5v16.8l0.1,0.1h51.1l0.1-0.1v-16.8h50.5v16.8l0.1,0.1h51.1l0.1-0.1v-16.8
		h23.5l0.1-0.1v-11.4h16.8l0.1-0.1v-51.1l-0.1-0.1h-16.8v-11.4l-0.1-0.1h-23.5v-16.8l-0.1-0.1h-51.1l-0.1,0.1V150h-50.5v-16.8
		l-0.1-0.1h-51.1l-0.1,0.1V150h-50.5v-16.8l-0.1-0.1h-51.1l-0.1,0.1V150h-50.5v-16.8l-0.1-0.1h-51.1l-0.1,0.1V150h-50.5v-16.8
		l-0.1-0.1H67.6l-0.1,0.1V150H44l-0.1,0.1v11.4H27l-0.1,0.1v51.1l0.1,0.1h16.8v11.4l0.1,0.1h23.5v16.8l0.1,0.1h51.1L118.9,241.3z"/>
	<path id="bottom_outsideCutPath_1_" vector-effect="non-scaling-stroke" class="st0" d="M118.9,123.9V107h50.5v16.8l0.1,0.1h51.1
		l0.1-0.1V107h50.5v16.8l0.1,0.1h51.1l0.1-0.1V107h50.5v16.8l0.1,0.1h51.1l0.1-0.1V107h50.5v16.8l0.1,0.1h51.1l0.1-0.1V107h23.5
		l0.1-0.1V95.5h16.8l0.1-0.1V44.2l-0.1-0.1h-16.8V32.7l-0.1-0.1h-23.5V15.7l-0.1-0.1h-51.1l-0.1,0.1v16.8h-50.5V15.7l-0.1-0.1h-51.1
		l-0.1,0.1v16.8h-50.5V15.7l-0.1-0.1h-51.1l-0.1,0.1v16.8h-50.5V15.7l-0.1-0.1h-51.1l-0.1,0.1v16.8h-50.5V15.7l-0.1-0.1H67.6
		l-0.1,0.1v16.8H44l-0.1,0.1v11.4H27l-0.1,0.1v51.1l0.1,0.1h16.8v11.4L44,107h23.5v16.8l0.1,0.1h51.1L118.9,123.9z"/>
</g>
<g id="svgGroup_2_">
	<path id="top_outsideCutPath_2_" vector-effect="non-scaling-stroke" class="st0" d="M540.3,344.8v-11.5h17v-51h-17v-11.5h-23.6
		v-17h-51v17h-51v-17h-51v17h-51v-17h-51v17h-51v-17h-51v17h-51v-17h-51v17H34.3v11.5h-17v51h17v11.5h23.6v17h51v-17h51v17h51v-17
		h51v17h51v-17h51v17h51v-17h51v17h51v-17H540.3z"/>
	<path id="bottom_outsideCutPath_2_" vector-effect="non-scaling-stroke" class="st0" d="M540.3,461.8v-11.5h17v-51h-17v-11.5h-23.6
		v-17h-51v17h-51v-17h-51v17h-51v-17h-51v17h-51v-17h-51v17h-51v-17h-51v17H34.3v11.5h-17v51h17v11.5h23.6v17h51v-17h51v17h51v-17
		h51v17h51v-17h51v17h51v-17h51v17h51v-17H540.3z"/>
</g>
<g id="svgGroup_4_">
	<path id="top_outsideCutPath_4_" vector-effect="non-scaling-stroke" class="st0" d="M722.9-754.7v-16.8h50.5v16.8l0.1,0.1h51.1
		l0.1-0.1v-16.8h50.5v16.8l0.1,0.1h51.1l0.1-0.1v-16.8h50.5v16.8l0.1,0.1h51.1l0.1-0.1v-16.8h50.5v16.8l0.1,0.1h51.1l0.1-0.1v-16.8
		h23.5l0.1-0.1v-11.4h16.8l0.1-0.1v-51.1l-0.1-0.1h-16.8v-11.4l-0.1-0.1h-23.5v-16.8l-0.1-0.1h-51.1l-0.1,0.1v16.8h-50.5v-16.8
		l-0.1-0.1h-51.1l-0.1,0.1v16.8h-50.5v-16.8l-0.1-0.1h-51.1l-0.1,0.1v16.8h-50.5v-16.8l-0.1-0.1h-51.1l-0.1,0.1v16.8h-50.5v-16.8
		l-0.1-0.1h-51.1l-0.1,0.1v16.8H648l-0.1,0.1v11.4H631l-0.1,0.1v51.1l0.1,0.1h16.8v11.4l0.1,0.1h23.5v16.8l0.1,0.1h51.1L722.9-754.7
		z"/>
	<path id="back_outsideCutPath_2_" vector-effect="non-scaling-stroke" class="st0" d="M55-164.9v-16.8h50.5v16.8l0.1,0.1h51.1
		l0.1-0.1v-16.8h50.5v16.8l0.1,0.1h51.1l0.1-0.1v-16.8h50.5v16.8l0.1,0.1h51.1l0.1-0.1v-16.8h50.5v16.8l0.1,0.1h51.1l0.1-0.1v-16.8
		h50.5v16.8l0.1,0.1h40.8l0.1-0.1v-79.2l-0.1-0.1h-16.8v-50.5h16.8l0.1-0.1v-51.1l-0.1-0.1h-16.8v-50.5h16.8l0.1-0.1V-448l-0.1-0.1
		h-16.8v-50.5h16.8l0.1-0.1V-550l-0.1-0.1h-16.8v-50.5h16.8l0.1-0.1v-51.1l-0.1-0.1h-16.8v-50.5h16.8l0.1-0.1v-51.1l-0.1-0.1h-16.8
		v-50.5h16.8l0.1-0.1v-51.1l-0.1-0.1h-16.8v-50.5h16.8l0.1-0.1v-79.2l-0.1-0.1h-40.8l-0.1,0.1v16.8h-50.5v-16.8l-0.1-0.1h-51.1
		l-0.1,0.1v16.8h-50.5v-16.8l-0.1-0.1h-51.1l-0.1,0.1v16.8h-50.5v-16.8l-0.1-0.1h-51.1l-0.1,0.1v16.8H157v-16.8l-0.1-0.1h-51.1
		l-0.1,0.1v16.8H55v-16.8l-0.1-0.1H14.1l-0.1,0.1v79.2l0.1,0.1H31v50.5H14.1l-0.1,0.1v51.1l0.1,0.1H31v50.5H14.1l-0.1,0.1v51.1
		l0.1,0.1H31v50.5H14.1l-0.1,0.1v51.1l0.1,0.1H31v50.5H14.1L14-550v51.1l0.1,0.1H31v50.5H14.1L14-448v51.1l0.1,0.1H31v50.5H14.1
		l-0.1,0.1v51.1l0.1,0.1H31v50.5H14.1l-0.1,0.1v79.2l0.1,0.1h40.8L55-164.9z"/>
	<path id="bottom_outsideCutPath_4_" vector-effect="non-scaling-stroke" class="st0" d="M722.9-872.1V-889h50.5v16.8l0.1,0.1h51.1
		l0.1-0.1V-889h50.5v16.8l0.1,0.1h51.1l0.1-0.1V-889h50.5v16.8l0.1,0.1h51.1l0.1-0.1V-889h50.5v16.8l0.1,0.1h51.1l0.1-0.1V-889h23.5
		l0.1-0.1v-11.4h16.8l0.1-0.1v-51.1l-0.1-0.1h-16.8v-11.4l-0.1-0.1h-23.5v-16.8l-0.1-0.1h-51.1l-0.1,0.1v16.8h-50.5v-16.8l-0.1-0.1
		h-51.1l-0.1,0.1v16.8h-50.5v-16.8l-0.1-0.1h-51.1l-0.1,0.1v16.8h-50.5v-16.8l-0.1-0.1h-51.1l-0.1,0.1v16.8h-50.5v-16.8l-0.1-0.1
		h-51.1l-0.1,0.1v16.8H648l-0.1,0.1v11.4H631l-0.1,0.1v51.1l0.1,0.1h16.8v11.4l0.1,0.1h23.5v16.8l0.1,0.1h51.1L722.9-872.1z"/>
</g>
<rect x="441" y="-289" transform="matrix(-1.836970e-16 1 -1 -1.836970e-16 238.7878 -715.205)" class="st1" width="72" height="101.5"/>
<g id="svgGroup_3_">
	<path id="front_outsideCutPath_2_" vector-effect="non-scaling-stroke" class="st0" d="M1747.3-141.5v-79.1h-17v-51h17v-51h-17v-51
		h17v-51h-17v-51h17v-51h-17v-51h17v-51h-17v-51h17v-51h-17v-51h17v-51h-17v-51h17v-51v-28.1h-40.6v17h-51v-17h-51v17h-51v-17h-51
		v17h-51v-17h-51v17h-51v-17h-51v17h-51v-17h-40.6v79.1h17v51h-17v51h17v51h-17v51h17v51h-17v51h17v51h-17v51h17v51h-17v51h17v51
		h-17v51h17v51h-17v51v28.1h40.6v-17h51v17h51v-17h51v17h51v-17h51v17h51v-17h51v17h51v-17h51v17H1747.3z"/>
	<path id="top_outsideCutPath_3_" vector-effect="non-scaling-stroke" class="st0" d="M1144.3-651.2v-11.5h17v-51h-17v-11.5h-23.6
		v-17h-51v17h-51v-17h-51v17h-51v-17h-51v17h-51v-17h-51v17h-51v-17h-51v17h-23.6v11.5h-17v51h17v11.5h23.6v17h51v-17h51v17h51v-17
		h51v17h51v-17h51v17h51v-17h51v17h51v-17H1144.3z"/>
	<path id="bottom_outsideCutPath_3_" vector-effect="non-scaling-stroke" class="st0" d="M1144.3-534.2v-11.5h17v-51h-17v-11.5
		h-23.6v-17h-51v17h-51v-17h-51v17h-51v-17h-51v17h-51v-17h-51v17h-51v-17h-51v17h-23.6v11.5h-17v51h17v11.5h23.6v17h51v-17h51v17
		h51v-17h51v17h51v-17h51v17h51v-17h51v17h51v-17H1144.3z"/>
	
		<rect x="1249" y="-940" transform="matrix(-1.836970e-16 1 -1 -1.836970e-16 395.7881 -2174.2214)" class="st1" width="72" height="101.5"/>
</g>
</svg>
