<?xml version="1.0" encoding="utf-8"?>
<!-- Generator: Adobe Illustrator 22.1.0, SVG Export Plug-In . SVG Version: 6.00 Build 0)  -->
<svg version="1.1" id="Layer_1" xmlns="http://www.w3.org/2000/svg" xmlns:xlink="http://www.w3.org/1999/xlink" x="0px" y="0px"
	 viewBox="0 0 1207.3 1651.5" style="enable-background:new 0 0 1207.3 1651.5;" xml:space="preserve">
<style type="text/css">
	.st0{fill:none;stroke:#FF0000;stroke-width:0.1;stroke-linecap:round;}
	.st1{fill:none;stroke:#FF0000;stroke-width:1.000000e-03;stroke-linecap:round;}
</style>
<g id="svgGroup">
	<path id="front_outsideCutPath" vector-effect="non-scaling-stroke" class="st0" d="M-1215,1631.3v-16.8h50.5v16.8l0.1,0.1h51.1
		l0.1-0.1v-16.8h50.5v16.8l0.1,0.1h51.1l0.1-0.1v-16.8h50.5v16.8l0.1,0.1h51.1l0.1-0.1v-16.8h50.5v16.8l0.1,0.1h51.1l0.1-0.1v-16.8
		h50.5v16.8l0.1,0.1h40.8l0.1-0.1v-79.2l-0.1-0.1h-16.8v-50.5h16.8l0.1-0.1v-51.1l-0.1-0.1h-16.8v-50.5h16.8l0.1-0.1v-51.1l-0.1-0.1
		h-16.8v-50.5h16.8l0.1-0.1v-51.1l-0.1-0.1h-16.8v-50.5h16.8l0.1-0.1v-51.1l-0.1-0.1h-16.8v-50.5h16.8l0.1-0.1v-51.1l-0.1-0.1h-16.8
		v-50.5h16.8l0.1-0.1v-51.1l-0.1-0.1h-16.8v-50.5h16.8l0.1-0.1v-79.2l-0.1-0.1h-40.8l-0.1,0.1v16.8h-50.5v-16.8l-0.1-0.1H-859
		l-0.1,0.1v16.8h-50.5v-16.8l-0.1-0.1h-51.1l-0.1,0.1v16.8h-50.5v-16.8l-0.1-0.1h-51.1l-0.1,0.1v16.8h-50.5v-16.8l-0.1-0.1h-51.1
		l-0.1,0.1v16.8h-50.5v-16.8l-0.1-0.1h-40.8l-0.1,0.1v79.2l0.1,0.1h16.8v50.5h-16.8l-0.1,0.1v51.1l0.1,0.1h16.8v50.5h-16.8l-0.1,0.1
		v51.1l0.1,0.1h16.8v50.5h-16.8l-0.1,0.1v51.1l0.1,0.1h16.8v50.5h-16.8l-0.1,0.1v51.1l0.1,0.1h16.8v50.5h-16.8l-0.1,0.1v51.1
		l0.1,0.1h16.8v50.5h-16.8l-0.1,0.1v51.1l0.1,0.1h16.8v50.5h-16.8l-0.1,0.1v79.2l0.1,0.1L-1215,1631.3L-1215,1631.3z"/>
	<path id="left_outsideCutPath" vector-effect="non-scaling-stroke" class="st0" d="M-677.6,1631.3v-16.8h50.5v16.8l0.1,0.1h11.7
		l0.1-0.1v-78.9h16.8l0.1-0.1v-51.1l-0.1-0.1h-16.8v-50.5h16.8l0.1-0.1v-51.1l-0.1-0.1h-16.8v-50.5h16.8l0.1-0.1v-51.1l-0.1-0.1
		h-16.8V1247h16.8l0.1-0.1v-51.1l-0.1-0.1h-16.8v-50.5h16.8l0.1-0.1V1094l-0.1-0.1h-16.8v-50.5h16.8l0.1-0.1v-51.1l-0.1-0.1h-16.8
		v-50.5h16.8l0.1-0.1v-51.1l-0.1-0.1h-16.8v-78.9l-0.1-0.1H-627l-0.1,0.1v16.8h-50.5v-16.8l-0.1-0.1h-11.7l-0.1,0.1v78.9h-16.8
		l-0.1,0.1v51.1l0.1,0.1h16.8v50.5h-16.8l-0.1,0.1v51.1l0.1,0.1h16.8v50.5h-16.8l-0.1,0.1v51.1l0.1,0.1h16.8v50.5h-16.8l-0.1,0.1
		v51.1l0.1,0.1h16.8v50.5h-16.8l-0.1,0.1v51.1l0.1,0.1h16.8v50.5h-16.8l-0.1,0.1v51.1l0.1,0.1h16.8v50.5h-16.8l-0.1,0.1v51.1
		l0.1,0.1h16.8v78.9l0.1,0.1L-677.6,1631.3L-677.6,1631.3z"/>
	<path id="top_outsideCutPath" vector-effect="non-scaling-stroke" class="st0" d="M-497.1,1631.3v-16.8h50.5v16.8l0.1,0.1h51.1
		l0.1-0.1v-16.8h50.5v16.8l0.1,0.1h51.1l0.1-0.1v-16.8h50.5v16.8l0.1,0.1h51.1l0.1-0.1v-16.8h50.5v16.8l0.1,0.1H-90l0.1-0.1v-16.8
		h23.5l0.1-0.1V1603h16.8l0.1-0.1v-51.1l-0.1-0.1h-16.8v-11.4l-0.1-0.1h-23.5v-16.8l-0.1-0.1h-51.1l-0.1,0.1v16.8h-50.5v-16.8
		l-0.1-0.1h-51.1l-0.1,0.1v16.8h-50.5v-16.8l-0.1-0.1h-51.1l-0.1,0.1v16.8h-50.5v-16.8l-0.1-0.1h-51.1l-0.1,0.1v16.8h-50.5v-16.8
		l-0.1-0.1h-51.1l-0.1,0.1v16.8H-572l-0.1,0.1v11.4H-589l-0.1,0.1v51.1l0.1,0.1h16.8v11.4l0.1,0.1h23.5v16.8l0.1,0.1h51.1
		L-497.1,1631.3z"/>
	<path id="back_outsideCutPath" vector-effect="non-scaling-stroke" class="st0" d="M-1215,801.1v-16.8h50.5v16.8l0.1,0.1h51.1
		l0.1-0.1v-16.8h50.5v16.8l0.1,0.1h51.1l0.1-0.1v-16.8h50.5v16.8l0.1,0.1h51.1l0.1-0.1v-16.8h50.5v16.8l0.1,0.1h51.1l0.1-0.1v-16.8
		h50.5v16.8l0.1,0.1h40.8l0.1-0.1v-79.2l-0.1-0.1h-16.8v-50.5h16.8l0.1-0.1v-51.1l-0.1-0.1h-16.8v-50.5h16.8l0.1-0.1V518l-0.1-0.1
		h-16.8v-50.5h16.8l0.1-0.1V416l-0.1-0.1h-16.8v-50.5h16.8l0.1-0.1v-51.1l-0.1-0.1h-16.8v-50.5h16.8l0.1-0.1v-51.1l-0.1-0.1h-16.8
		v-50.5h16.8l0.1-0.1v-51.1l-0.1-0.1h-16.8v-51h16.8l0.1-0.1v-79.2l-0.1-0.1h-40.8l-0.1,0.1V-3h-50.5v-16.8l-0.1-0.1H-859l-0.1,0.1
		V-3h-50.5v-16.8l-0.1-0.1h-51.1l-0.1,0.1V-3h-50.5v-16.8l-0.1-0.1h-51.1l-0.1,0.1V-3h-50.5v-16.8l-0.1-0.1h-51.1l-0.1,0.1V-3h-50.5
		v-16.8l-0.1-0.1h-40.8l-0.1,0.1v79.2l0.1,0.1h16.8V110h-16.8l-0.1,0.1v51.1l0.1,0.1h16.8V212h-16.8l-0.1,0.1v51.1l0.1,0.1h16.8
		v50.5h-16.8l-0.1,0.1V365l0.1,0.1h16.8v50.5h-16.8l-0.1,0.1v51.1l0.1,0.1h16.8v50.5h-16.8l-0.1,0.1v51.1l0.1,0.1h16.8v50.5h-16.8
		l-0.1,0.1v51.1l0.1,0.1h16.8V721h-16.8l-0.1,0.1v79.2l0.1,0.1h40.8L-1215,801.1z"/>
	<path id="right_outsideCutPath" vector-effect="non-scaling-stroke" class="st0" d="M-677.6,801.1v-16.8h50.5v16.8l0.1,0.1h11.7
		l0.1-0.1v-78.9h16.8l0.1-0.1V671l-0.1-0.1h-16.8v-50.5h16.8l0.1-0.1V569l-0.1-0.1h-16.8v-50.5h16.8l0.1-0.1V467l-0.1-0.1h-16.8
		v-50.5h16.8l0.1-0.1v-51.1l-0.1-0.1h-16.8v-50.5h16.8l0.1-0.1v-51.1l-0.1-0.1h-16.8v-50.5h16.8l0.1-0.1v-51.1l-0.1-0.1h-16.8V111
		h16.8l0.1-0.1V59.2l-0.1-0.1h-16.8v-78.9l-0.1-0.1H-627l-0.1,0.1V-3h-50.5v-16.8l-0.1-0.1h-11.7l-0.1,0.1v78.9h-16.8l-0.1,0.1v51.1
		l0.1,0.1h16.8V161h-16.8l-0.1,0.1v51.1l0.1,0.1h16.8V263h-16.8l-0.1,0.1v51.1l0.1,0.1h16.8v50.5h-16.8l-0.1,0.1V416l0.1,0.1h16.8
		v50.5h-16.8l-0.1,0.1v51.1l0.1,0.1h16.8v50.5h-16.8l-0.1,0.1v51.1l0.1,0.1h16.8v50.5h-16.8l-0.1,0.1V722l0.1,0.1h16.8V801l0.1,0.1
		H-677.6L-677.6,801.1z"/>
	<path id="bottom_outsideCutPath" vector-effect="non-scaling-stroke" class="st0" d="M-497.1,1513.9V1497h50.5v16.8l0.1,0.1h51.1
		l0.1-0.1V1497h50.5v16.8l0.1,0.1h51.1l0.1-0.1V1497h50.5v16.8l0.1,0.1h51.1l0.1-0.1V1497h50.5v16.8l0.1,0.1H-90l0.1-0.1V1497h23.5
		l0.1-0.1v-11.4h16.8l0.1-0.1v-51.1l-0.1-0.1h-16.8v-11.4l-0.1-0.1h-23.5v-16.8l-0.1-0.1h-51.1l-0.1,0.1v16.8h-50.5v-16.8l-0.1-0.1
		h-51.1l-0.1,0.1v16.8h-50.5v-16.8l-0.1-0.1h-51.1l-0.1,0.1v16.8h-50.5v-16.8l-0.1-0.1h-51.1l-0.1,0.1v16.8h-50.5v-16.8l-0.1-0.1
		h-51.1l-0.1,0.1v16.8H-572l-0.1,0.1v11.4H-589l-0.1,0.1v51.1l0.1,0.1h16.8v11.4l0.1,0.1h23.5v16.8l0.1,0.1h51.1H-497.1z"/>
</g>
<g id="svgGroup_1_">
	<path id="top_outsideCutPath_1_" vector-effect="non-scaling-stroke" class="st0" d="M718.9,241.3v-16.8h50.5v16.8l0.1,0.1h51.1
		l0.1-0.1v-16.8h50.5v16.8l0.1,0.1h51.1l0.1-0.1v-16.8H973v16.8l0.1,0.1h51.1l0.1-0.1v-16.8h50.5v16.8l0.1,0.1h51.1l0.1-0.1v-16.8
		h23.5l0.1-0.1V213h16.8l0.1-0.1v-51.1l-0.1-0.1h-16.8v-11.4l-0.1-0.1h-23.5v-16.8l-0.1-0.1h-51.1l-0.1,0.1V150h-50.5v-16.8
		l-0.1-0.1h-51.1l-0.1,0.1V150h-50.5v-16.8l-0.1-0.1h-51.1l-0.1,0.1V150h-50.5v-16.8l-0.1-0.1h-51.1l-0.1,0.1V150h-50.5v-16.8
		l-0.1-0.1h-51.1l-0.1,0.1V150H644l-0.1,0.1v11.4H627l-0.1,0.1v51.1l0.1,0.1h16.8v11.4l0.1,0.1h23.5v16.8l0.1,0.1h51.1L718.9,241.3z
		"/>
	<path id="back_outsideCutPath_1_" vector-effect="non-scaling-stroke" class="st0" d="M51,831.1v-16.8h50.5v16.8l0.1,0.1h51.1
		l0.1-0.1v-16.8h50.5v16.8l0.1,0.1h51.1l0.1-0.1v-16.8h50.5v16.8l0.1,0.1h51.1l0.1-0.1v-16.8h50.5v16.8l0.1,0.1h51.1l0.1-0.1v-16.8
		h50.5v16.8l0.1,0.1h40.8l0.1-0.1v-79.2l-0.1-0.1h-16.8v-50.5h16.8l0.1-0.1v-51.1l-0.1-0.1h-16.8v-50.5h16.8l0.1-0.1V548l-0.1-0.1
		h-16.8v-50.5h16.8l0.1-0.1V446l-0.1-0.1h-16.8v-50.5h16.8l0.1-0.1v-51.1l-0.1-0.1h-16.8v-50.5h16.8l0.1-0.1v-51.1l-0.1-0.1h-16.8
		v-50.5h16.8l0.1-0.1v-51.1l-0.1-0.1h-16.8v-51h16.8l0.1-0.1V10.1l-0.1-0.1h-40.8l-0.1,0.1V27h-50.5V10.1l-0.1-0.1H407l-0.1,0.1V27
		h-50.5V10.1l-0.1-0.1h-51.1l-0.1,0.1V27h-50.5V10.1l-0.1-0.1h-51.1l-0.1,0.1V27H153V10.1l-0.1-0.1h-51.1l-0.1,0.1V27H51V10.1
		L50.9,10H10.1L10,10.1v79.2l0.1,0.1H27V140H10.1l-0.1,0.1v51.1l0.1,0.1H27V242H10.1l-0.1,0.1v51.1l0.1,0.1H27v50.5H10.1l-0.1,0.1
		V395l0.1,0.1H27v50.5H10.1L10,446v51.1l0.1,0.1H27v50.5H10.1L10,548v51.1l0.1,0.1H27v50.5H10.1l-0.1,0.1v51.1l0.1,0.1H27v50.5H10.1
		l-0.1,0.1v79.2l0.1,0.1h40.8L51,831.1z"/>
	<path id="bottom_outsideCutPath_1_" vector-effect="non-scaling-stroke" class="st0" d="M718.9,123.9V107h50.5v16.8l0.1,0.1h51.1
		l0.1-0.1V107h50.5v16.8l0.1,0.1h51.1l0.1-0.1V107H973v16.8l0.1,0.1h51.1l0.1-0.1V107h50.5v16.8l0.1,0.1h51.1l0.1-0.1V107h23.5
		l0.1-0.1V95.5h16.8l0.1-0.1V44.2l-0.1-0.1h-16.8V32.7l-0.1-0.1h-23.5V15.7l-0.1-0.1h-51.1l-0.1,0.1v16.8h-50.5V15.7l-0.1-0.1h-51.1
		l-0.1,0.1v16.8h-50.5V15.7l-0.1-0.1h-51.1l-0.1,0.1v16.8h-50.5V15.7l-0.1-0.1h-51.1l-0.1,0.1v16.8h-50.5V15.7l-0.1-0.1h-51.1
		l-0.1,0.1v16.8H644l-0.1,0.1V44H627l-0.1,0.1v51.1l0.1,0.1h16.8v11.4l0.1,0.1h23.5v16.8l0.1,0.1h51.1L718.9,123.9z"/>
</g>
<rect x="422.3" y="721.8" class="st1" width="101.5" height="72"/>
</svg>
